<mxfile host="Electron" modified="2023-11-30T08:44:19.339Z" agent="Mozilla/5.0 (Windows NT 10.0; Win64; x64) AppleWebKit/537.36 (KHTML, like Gecko) draw.io/22.1.2 Chrome/114.0.5735.289 Electron/25.9.4 Safari/537.36" etag="l3s3XUK7GaPzt-_Utx6N" version="22.1.2" type="device">
  <diagram name="Page-1" id="ZZBWDqduvak-Xok3JgpD">
    <mxGraphModel dx="988" dy="573" grid="1" gridSize="10" guides="1" tooltips="1" connect="1" arrows="1" fold="1" page="1" pageScale="1" pageWidth="827" pageHeight="1169" background="none" math="0" shadow="0">
      <root>
        <mxCell id="0" />
        <mxCell id="1" parent="0" />
        <mxCell id="o5DvdfLguo0AZOg0hn8v-2" value="&lt;b&gt;MCU&lt;/b&gt;" style="whiteSpace=wrap;html=1;aspect=fixed;sketch=1;hachureGap=4;jiggle=2;curveFitting=1;strokeColor=#788AA3;fontFamily=Architects Daughter;fontSource=https%3A%2F%2Ffonts.googleapis.com%2Fcss%3Ffamily%3DArchitects%2BDaughter;fontSize=20;fontColor=#46495D;fillColor=#B2C9AB;rounded=1;shadow=1;" parent="1" vertex="1">
          <mxGeometry x="268" y="440" width="240" height="240" as="geometry" />
        </mxCell>
        <mxCell id="o5DvdfLguo0AZOg0hn8v-14" value="" style="edgeStyle=orthogonalEdgeStyle;rounded=1;sketch=1;hachureGap=4;jiggle=2;curveFitting=1;orthogonalLoop=1;jettySize=auto;html=1;strokeColor=#788AA3;fontFamily=Architects Daughter;fontSource=https%3A%2F%2Ffonts.googleapis.com%2Fcss%3Ffamily%3DArchitects%2BDaughter;fontSize=16;fontColor=#46495D;fillColor=#B2C9AB;" parent="1" source="o5DvdfLguo0AZOg0hn8v-3" target="o5DvdfLguo0AZOg0hn8v-4" edge="1">
          <mxGeometry relative="1" as="geometry" />
        </mxCell>
        <mxCell id="o5DvdfLguo0AZOg0hn8v-3" value="&lt;b&gt;Sound&lt;br&gt;Sensor&lt;/b&gt;" style="rounded=1;whiteSpace=wrap;html=1;sketch=1;hachureGap=4;jiggle=2;curveFitting=1;strokeColor=#788AA3;fontFamily=Architects Daughter;fontSource=https%3A%2F%2Ffonts.googleapis.com%2Fcss%3Ffamily%3DArchitects%2BDaughter;fontSize=20;fontColor=#46495D;fillColor=#B2C9AB;" parent="1" vertex="1">
          <mxGeometry x="68" y="420" width="120" height="60" as="geometry" />
        </mxCell>
        <mxCell id="o5DvdfLguo0AZOg0hn8v-4" value="&lt;b&gt;ADC&lt;/b&gt;&lt;br&gt;&lt;font style=&quot;font-size: 12px;&quot;&gt;-Single Ended Precision: 10&lt;/font&gt;" style="rounded=1;whiteSpace=wrap;html=1;sketch=1;hachureGap=4;jiggle=2;curveFitting=1;strokeColor=#788AA3;fontFamily=Architects Daughter;fontSource=https%3A%2F%2Ffonts.googleapis.com%2Fcss%3Ffamily%3DArchitects%2BDaughter;fontSize=20;fontColor=#46495D;fillColor=#B2C9AB;" parent="1" vertex="1">
          <mxGeometry x="108" y="530" width="170" height="70" as="geometry" />
        </mxCell>
        <mxCell id="o5DvdfLguo0AZOg0hn8v-10" value="&lt;b&gt;UART&lt;br&gt;&lt;/b&gt;&lt;font style=&quot;font-size: 12px;&quot;&gt;Baud rate: 115200&lt;br&gt;Over Sampling Rate: 16&lt;br&gt;Data Frame Order: LSB First&lt;br&gt;Data Inversion: RX Inverted&lt;br&gt;&lt;/font&gt;" style="rounded=1;whiteSpace=wrap;html=1;sketch=1;hachureGap=4;jiggle=2;curveFitting=1;strokeColor=#788AA3;fontFamily=Architects Daughter;fontSource=https%3A%2F%2Ffonts.googleapis.com%2Fcss%3Ffamily%3DArchitects%2BDaughter;fontSize=20;fontColor=#46495D;fillColor=#B2C9AB;" parent="1" vertex="1">
          <mxGeometry x="298" y="670" width="180" height="150" as="geometry" />
        </mxCell>
        <mxCell id="o5DvdfLguo0AZOg0hn8v-13" value="serial" style="endArrow=classic;startArrow=classic;html=1;rounded=1;sketch=1;hachureGap=4;jiggle=2;curveFitting=1;strokeColor=#788AA3;fontFamily=Architects Daughter;fontSource=https%3A%2F%2Ffonts.googleapis.com%2Fcss%3Ffamily%3DArchitects%2BDaughter;fontSize=16;fontColor=#46495D;fillColor=#B2C9AB;exitX=0.5;exitY=0;exitDx=0;exitDy=0;entryX=0.5;entryY=1;entryDx=0;entryDy=0;" parent="1" source="o5DvdfLguo0AZOg0hn8v-25" target="o5DvdfLguo0AZOg0hn8v-10" edge="1">
          <mxGeometry width="50" height="50" relative="1" as="geometry">
            <mxPoint x="388" y="870" as="sourcePoint" />
            <mxPoint x="348" y="770" as="targetPoint" />
          </mxGeometry>
        </mxCell>
        <mxCell id="o5DvdfLguo0AZOg0hn8v-17" value="&lt;b&gt;LED (board)&lt;/b&gt;" style="rounded=1;whiteSpace=wrap;html=1;sketch=1;hachureGap=4;jiggle=2;curveFitting=1;strokeColor=#788AA3;fontFamily=Architects Daughter;fontSource=https%3A%2F%2Ffonts.googleapis.com%2Fcss%3Ffamily%3DArchitects%2BDaughter;fontSize=20;fontColor=#46495D;fillColor=#B2C9AB;" parent="1" vertex="1">
          <mxGeometry x="678" y="535" width="120" height="60" as="geometry" />
        </mxCell>
        <mxCell id="o5DvdfLguo0AZOg0hn8v-18" value="&lt;b&gt;PIT&lt;/b&gt;&lt;br&gt;&lt;font style=&quot;font-size: 12px;&quot;&gt;1677ms&lt;/font&gt;" style="rounded=1;whiteSpace=wrap;html=1;sketch=1;hachureGap=4;jiggle=2;curveFitting=1;strokeColor=#788AA3;fontFamily=Architects Daughter;fontSource=https%3A%2F%2Ffonts.googleapis.com%2Fcss%3Ffamily%3DArchitects%2BDaughter;fontSize=20;fontColor=#46495D;fillColor=#B2C9AB;" parent="1" vertex="1">
          <mxGeometry x="498" y="495" width="120" height="60" as="geometry" />
        </mxCell>
        <mxCell id="o5DvdfLguo0AZOg0hn8v-20" value="" style="edgeStyle=orthogonalEdgeStyle;rounded=1;sketch=1;hachureGap=4;jiggle=2;curveFitting=1;orthogonalLoop=1;jettySize=auto;html=1;strokeColor=#788AA3;fontFamily=Architects Daughter;fontSource=https%3A%2F%2Ffonts.googleapis.com%2Fcss%3Ffamily%3DArchitects%2BDaughter;fontSize=16;fontColor=#46495D;fillColor=#B2C9AB;" parent="1" source="o5DvdfLguo0AZOg0hn8v-19" target="o5DvdfLguo0AZOg0hn8v-17" edge="1">
          <mxGeometry relative="1" as="geometry" />
        </mxCell>
        <mxCell id="o5DvdfLguo0AZOg0hn8v-19" value="&lt;b&gt;GPIO&lt;br&gt;&lt;br&gt;&lt;/b&gt;" style="rounded=1;whiteSpace=wrap;html=1;sketch=1;hachureGap=4;jiggle=2;curveFitting=1;strokeColor=#788AA3;fontFamily=Architects Daughter;fontSource=https%3A%2F%2Ffonts.googleapis.com%2Fcss%3Ffamily%3DArchitects%2BDaughter;fontSize=20;fontColor=#46495D;fillColor=#B2C9AB;" parent="1" vertex="1">
          <mxGeometry x="498" y="565" width="120" height="85" as="geometry" />
        </mxCell>
        <mxCell id="o5DvdfLguo0AZOg0hn8v-22" value="" style="shape=image;verticalLabelPosition=bottom;labelBackgroundColor=default;verticalAlign=top;aspect=fixed;imageAspect=0;image=data:image/png,iVBORw0KGgoAAAANSUhEUgAAAQ0AAABJCAYAAAAnrHPGAAAAAXNSR0IArs4c6QAAAARnQU1BAACxjwv8YQUAAAAJcEhZcwAADsMAAA7DAcdvqGQAAAASdEVYdFNvZnR3YXJlAEdyZWVuc2hvdF5VCAUAAANBSURBVHhe7dQhTmRpGIXhq1CjULRszLhRg8SwgN4AC+ikzYheRotWpBfABlgABgfBIBEgQSEIimCqqzl3+MXUl/BP1VRuZZ4nOQmFqPvlBt5hBtBBNIAuogF0EQ2gi2gAXUQD6CIaQBfRALqIBtBFNIAuogF0EQ2gy7ui8fz8PDs7O9uYXVxcjJev3tXV1cJnTnVPT0/j5at1d3e38HlT3e3t7Xj5ar28vCx83lR3fn4+Xv7vvSsa9/f3s2EYNma7u7vj5as3DPv/eN6Ud3l5OV6+WkdHRwufN9l9/TpevloPDw+LnzfhLasrGltbW7P9/f3Jbm9v7/XO9UTjj/Hnqe63+dYQjQ8fZsP83U92Hz/mTtF427K6orGzszP+Zppubm5e71xPNM7m+/V5qvtzvjVE48uX1z+iye7bt9wpGm9b1ru+QTQa0QjRCNEoiEYjGiEaIRoF0WhEI0QjRKMgGo1ohGiEaBREoxGNEI0QjYJoNKIRohGiURCNRjRCNEI0CqLRiEaIRohGQTQa0QjRCNEoiEYjGiEaIRoF0WhEI0QjRKMgGo1ohGiEaBREoxGNEI0QjYJoNKIRohGiURCNRjRCNEI0CqLRiEaIRohGQTQa0QjRCNEoiEYjGiEaIRoF0WhEI0QjRKMgGo1ohGiEaBREoxGNEI0QjYJoNKIRohGiURCNRjRCNEI0CqLRiEaIRohGQTQa0QjRCNEoiEYjGiEaIRoF0WhEI0QjRKMgGo1ohGiEaBREoxGNEI0QjYJoNKIRohGiURCNRjRCNEI0CqLRiEaIRohGQTQa0QjRCNEoiEYjGiEaIRoF0WhEI0QjRKMgGo1ohGiEaBREoxGNEI0QjYJoNKIRohGiUfg7Gtvb27PT09PJ7vj4+PXO9UTj+3ynE97v860hGp8+zYb5u5/sPn/OnaLxtmV1RWNTtp5obMb+82hsykTjbct61zf8ejEHBwcbs8PDw/Hy1RuGv+Y72JhdX1+Pl6/WycnJbJi/643Zjx/j5av1+Pg4f8+L/zmnumUt/w3A/4poAF1EA+giGkAX0QC6iAbQRTSALqIBdBENoItoAF1EA+giGkAX0QC6iAbQRTSALqIBdJjNfgKAdzWYoxh23gAAAABJRU5ErkJggg==;" parent="1" vertex="1">
          <mxGeometry x="502.73" y="610" width="110.55" height="30" as="geometry" />
        </mxCell>
        <mxCell id="o5DvdfLguo0AZOg0hn8v-23" value="" style="shape=image;verticalLabelPosition=bottom;labelBackgroundColor=default;verticalAlign=top;aspect=fixed;imageAspect=0;image=data:image/png,iVBORw0KGgoAAAANSUhEUgAABTcAAAKbCAYAAAAgzb64AAAAAXNSR0IArs4c6QAAAARnQU1BAACxjwv8YQUAAAAJcEhZcwAADsMAAA7DAcdvqGQAAAASdEVYdFNvZnR3YXJlAEdyZWVuc2hvdF5VCAUAAP+HSURBVHhe7J0FeBRZ2rb/dZdv/fvWbXZ3XBhmgEEGG9zd3d3dB4+7e0I8hAQISSBEiJHgGtzdYWZn5fx5q0919+k6CdWdJp0envu67muXOu85XamuLLPPHPl/DAAAAAAAAAAAAAAAAJwQhJsAAAAAAAAAAAAAAACnBOEmAAAAAAAAAAAAAADAKUG4CQAAAAAAAAAAAAAAcEoQbgIAAAAAAAAAAAAAAJwShJsAAAAAAAAAAAAAAACnBOEmAAAAAAAAAAAAAADAKUG4CQAAAAAAAAAAAAAAcEoQbgIAAAAAAAAAAAAAAJwShJsAAAAAAAAAAAAAAACnBOEmAAAAAAAAAAAAAADAKUG4CQAAAAAAAAAAAAAAcEoQbgIAAAAAAAAAAAAAAJwShJsAAAAAAAAAAAAAAACnBOEmAAAAAAAAAAAAAADAKUG4CQAAAAAAAAAAAAAAcEoQbgIAAAAAAAAAAAAAAJwShJsAAAAAAAAAAAAAAACnBOEmAAAAAAAAAAAAAADAKUG4CQAAAAAAAAAAAAAAcEoQbgIAAAAAAAAAAAAAAJwShJsAAAAAAAAAAAAAAACnBOEmAAAAAAAAAAAAAADAKUG4CQAAAAAAAAAAAAAAcEoQbgIAAAAAAAAAAAAAAJwShJsAAAAAAAAAAAAAAACnBOEmAAAAAAAAAAAAAADAKUG4CQAAAAAAAAAAAAAAcEoQbgIAAAAAAAAAAAAAAJwShJsAAAAAAAAAAAAAAACnBOEmAAAAAAAAAAAAAADAKUG4CQAAAAAAAAAAAAAAcEoQbgIAAAAAAAAAAAAAAJwShJsAAAAAAAAAAAAAAACnBOEmAAAAAAAAAAAAAADAKUG4CQAAAAAAAAAAAAAAcEoQbgIAAAAAAAAAAAAAAJwShJsAAAAAAAAAAAAAAACnBOEmAAAAAAAAAAAAAADAKUG4CQAAAAAAAAAAAAAAcEoQbgIAAAAAAAAAAAAAAJwShJsAAAAAAAAAAAAAAACnBOEmAAAAAAAAAAAAAADAKUG4CQAAAAAAAAAAAAAAcEoQbgIAAAAAAAAAAAAAAJwShJsAAAAAAAAAAAAAAACnBOEmAAAAoIP08DC2s08PCCGE0O4mDxvM/7YBAAAAgLUg3AQAAAB0gHATQgjhixLhJgAAAGA7CDcBAAAAHSDchBBC+KJEuAkAAADYDsJNAAAAQAeW4WbpnJmscukiCCGE0CZzhw1CuAkAAADYAYSbAAAAgA4sw81b27ayzyv3QwghhDZZPHMqwk0AAADADiDcBAAAAHSAcBNCCKE9RbgJAAAA2AeEmwAAAIAOEG5CCCG0pwg3AQAAAPuAcBMAAADQAcJNCCGE9hThJgAAAGAfEG4CAAAAOkC4CSGE0J4i3AQAAADsA8JNAAAAQAcINyGEENpThJsAAACAfUC4CQAAAOgA4SaEEEJ7inATAAAAsA8INwEAAAAdINyEEEJoTxFuAgAAAPYB4SYAAACgA4SbEEII7SnCTQAAAMA+INwEAAAAdIBwE0IIoT1FuAkAAADYB4SbAAAAgA4QbkIIIbSnCDcBAAAA+4BwEwAAANABwk0IIYT2FOEmAAAAYB8QbgIAAAA6QLgJIYTQniLcBAAAAOwDwk0AAABABwg3IYQQ2lOEmwAAAIB9QLgJAAAA6ADhJoQQQnuKcBMAAACwDwg3AQAAAB0g3IQQQmhPEW6CuvDPf/6Tpe/ZyhaGz2HDw/qzfoFd2aiQQWxlzFK2d38e++9//8srrePZs2csKTuRzQubyYaG9lXGHR0ymK3ZspIVHyzmVXXjwIlKtilprdGEPVt4S90oPrRPGHdbYRpvqRu7y3OFcbNLs3iL9Vy7cZUFpPmyqSHj2YDgHqx/UHc2MXgU807zYOcvn+dVtkPfe9reFOF+y4+W8VbrOXO+irknurCJIaOVex0Y3JNNDR7PQjIC2c3bN3mV9Rw/fYy5xG9g40JGVo/bjQ0K6cWmBU9gkTvC2d17d3mV7Xz++ecseHug8ByuXr/CW23n8ePHLCDTVxj33oN7vNV27t2/x3y2eQrjfvbZZ7wV6AHhJgAAAKADhJsQQgjtKcJNYCtFBwrZJ+4t2Gvr/lCjAwJ7sKrzVbyHPrKLd7E2bk2l45Gvr/sjGxk8kF26eon3sA4KhlZvWc7e2vBXYdwxoUN5hW1QMLQoai57c/2fhXFnR07lFbZx49YNNjN8Mntj/Z+EcVfGLeEV+vn3v//NPJJdWKPN/xDGMvftja+w1fHLlWDOFs5cOMNGBA7UjBuaGcQr9EPB2tLoBdXf1V8046m+v/k15p/hw3vo4+Gjh2x2+DTNd2VuE9e3WGRWOO9hPYUH8lkXzzaacSuPVfAK29hVksXau3+kGffcpXO8wjbS8lPZx+4fasa1R2j6MoFwEwAAANABwk0IIYT2FOEmsIUdxZlKCGYZhMhs5vYOO3r6KO9ZOwl5W2oNssxt49mEnb14lvfUx86i7aytdzPpeHUJN1N2J7GWno2k49oabv7nP/9hMVmRrJn7O9JxrQ03Kdicu2WGdCyZY0OGWRVwUq1nqht7b9PfpeNZG27S7N1hof2kY8lcEjdP10zhBw8fsD5BXaRjyNyQ/CnvqY/bd2+zeZEzNGG0qq3h5rWb19i0sPHSMUlbw83z1f3GBg+Tjkki3LQOhJsAAACADhBuQgghtKcIN4G10My8D1zekAYhNdnBvQV79PgRH0HO4ZOH2Lub/ibtX5O9vDrpWjZ7+eolNiVsnDLrUzYOaUu4eeb8GTY6eIh0PFVbwk1aLj04oI90PFVrw82AbX7ScWpzdeJy3rt2iioLWVevdtIxVK0NN5fGLpCOU5sR2aG8d83MiJwk7VuTFFKm5ifz3jVDYXRCzhbWwk0ecqtaG27+61//YuGZoayJ65vS8VStDTdpSwnfNG/2vstr0vFUEW5aB8JNAAAAQAcINyGEENpThJvAWsYHj9AEIB28WrH47DhWdqSUbdkVy7r5tNfUuKRs5CPIGezfW9OHxknZk6SMG70zQvkcyxra07AmvvjiCxa6PYg1dXt+GGtNuEmBqm+6B2vsWnswRFoTbj558oS5pK5n7+iYFWtNuHnl2hX2gav4DCjonRI+ju0uzWWFlQXMNXkTa7TxVaGG7uNY1TE+ipbbd26zxbFzal3erWpNuFlxZL9mBi99xuLYeaygMp/lle9hK6p//rfWi1sLNHN7V5k5WRN7SncL9SRtT0DbFNA2C7klOWxRzDzNrMs2nk1rDedPnj3JRodol+LLtCbcPHTiEBsS1FM6jqXWhJtlh0pZn8AO0nEsRbhpHQg3AQAAAB0g3IQQQmhPEW4Cazhy8rAmdGrv1VzZF9KctLwUoYak5em0JFhG8YF9mvruPp8o+1iaE7EjVFPX1usj6ezNO3fvsEFB3TX1JAV7lrM49YabNAu0l588GJKNqzfcrDp/mnX2bi30VZUtcbYm3Fwfv0bTf0ncfGW2oTnjQ7XB9dzIGbxVpPhgIWvl3lhTT8ru15pwk2bZWva33FeTltl39W2rqfNIceMVWoYF9Rdq6buKy43mrQYoEG/trd17Mrz63ZMRkx3BGm0WQ2FV2XPQG276Z3rVOJNZNq7ecNMlba0S6Fr2J2XjIty0DoSbAAAAgA4QbkIIIbSnCDeBNaxJWiEEHxQOZRZm8FYDFDr19esq1Kkm5STwKpG5W2YKdRSy0GxCc2h5bkfvj4U61ZziXbzKBN3HoEDtbNA2Xh+ylPwk1tqriXBdb7hJQWp330+EvmRH7xYsrTBFs0em3nCTZga289AeFNPNpy1LLUrWLB/WG27Sc2vjLv6sH3t8qAmaj50+Kt3v9EPXN5QDeCy5cPk8+1CyPcFg/14ssTBec11vuHnzzk3NDNK+AV2V79Mc2j/VMkgmO3u30dQSF66c14R3o0IGawJemoFsXqPa36+HdE/PnNJdmnFplunsyMnMLWOzcJ3UG24m7UnQ/HwUSi6OmcvWpIi/h6TecDN0R5CmL83QXb1lGVuUMFfThnDTOhBuAgAAADpAuAkhhNCeItwEeqFgh4Ij8+CjtceHSnhmTta+ndLQiZwePpFXmaBwqYWHuE9hV+92mtApMVcbmKkuiVnAq0QqT1Qal3jTf66IXcLu3rurtLXxEk9kt2ZZ+t7KPGMQSAfobEj8lD1+8lgJPm0NN4mM4nTjs2u8+XXmlerGnj59qsxCtTXcPHCsUuhHro7V7qU5I6LmvSjpO5Xhs93TWNPc9T0WnRWpvA/HTh0V+pN6w006nMmyb8T2MN5qgMLLfn7dNHUkBYsnqo7zShOhmcGa2q17UnmrAbr3Tj7y2bN0gNa1G1d5pQn6vZgcZ5pp2tWnnbLUn4jZHiWMQeoNN+lnHBZpmmna27+zMsOZ8EkyPXdVveEmzUztFdbJ2I/+BQC9I8TamNXCmCTCTetAuAkAAADoAOEmhBBCe4pwE+iF9m203AtyRuxk3mqAApkBATXvEdjGq4lmVt3JMyc1YeiyhEW81QCFTl18xGDV3O5B7Ws8KXt5wmI2ILiHso+jOXUJN4lZsVPYsND+yoxHlbqGm/QzjIkYxsZFjFAOblKpS7gZkOor9COzy8SZrqfOnpTO2lRdm7KKV4rQiea9gjuyeXGzhK0J6hJuLo6YL/SjWZGnL5zmrQayi7NqDNDJ6JxIXmliatAEoYaWfNMJ5OYk5SYINZZmFG3jlSLnL51nrfw/YO5pLkoYrVKXcJM4cuowa+H3PgvM8BNOrq9LuEmUHC5mzX0bsaidEUrYqYJws+4g3AQAAAB0gHATQgihPUW4CfSSV7ZHE3xQyGJOTkm2EDpZBmYUjl69Ls5+S9uTKtSQ0ZliOJWyJ1FotxyXgr9Hj+QHvlDgaB7gqNQ13KQQyzKorWu4SdAMUMtZq3UJN+eGTxf60czGS1cv8VYDs6OmGtvp+7M8IGik/yBeqUV20E5dws2BAb2Efu9vfE14HvTfBwaaamSh7NLIhbzaRFc/i1nHLk2EQJwCdPM9PGXjbo5fz6u1yJbu1zXcJGTj1jXcJGTjItysOwg3AQAAAB0g3IQQQmhPEW4CvUTuDNcEHxRMqlDoNDjItMclLddeGD9HqCcrjoozKD1T3TQ1FKSqUOhkvsdlE7e32OxYUxinevbiWd5DH3UNN2XYI9yUUZdwc5DZd0I2dXubPX78mLcaDjIyP2BmVPhg1sFDPJW+a2CbGmfGyrA13KR3qJWbeEhRV7+2vNVAbmmOEKAvTVqgOTV9XPhwXm2AQmh6H81rBgX05q0G6FR+8/YVyYs1s0PnRFn3Xdoj3JRhj3BTBsLNuoNwEwAAANABwk0IIYT2FOEm0Itr4kZN8JFfuZe3MpZXvlsIg1bEL2ChadrDS3bszeQ9DKyIWaypOXL6CG9lbOte8eR1l9R1zCVWey/FFYb9CPXysoSbnfzFQ5ja+DQRZkLOj5lhbKMl4CWH9rE+HuKBUPQzUcisF1vDTZpNSAcYmfcbEtGXtxrCz6FBfYxttLScTq9v6io+855eHXkPAzdv39TMxJwUPYa3GgL0Hr7tjW1NXN9UZrdaPvNhPv15D30g3Hz5QLgJAAAA6ADhJoQQQnuKcBPoZUXEEk3wsf9gudJGodOwENPhJxQ6XbhygcXtjBHqybiMWKWPyqwgcRYmBWxV56qUNiV08utgbPvA9Q12594d5p/qI/Qhd+RtV/ro5WUJNz9yf1fo135jC97C2JmLZ4R9VIcHD1SuD/MzfZckBYP//Oc/lTY92Bpu3rh5Q3l3zPuN9BjCWxnL279HCNCXxM1Xrrf1bib0abOxmXJd5cz5Ks2J5tN9TfvFbs0Xt0bYmLxO+S6be7wnXO+xWQxNnwfCzZcPhJsAAACADhBuQgghtKcIN4FeFgXP0wQfh44dUtryK/YKodOimLnK9aQc7QEtMVnifpqTfU0nTZMUpJ2/eF5p21aQLrStT1qjXA9JDxSukxn56UqbXl6WcLOxy+tCvy6upmXeC2JN2wbQ91dQma9cHx04VOhD0uFBerE13Lx89bKwRJ4c7z1SaVMC9NABxusUgqqBXgdfcRl9G48mynWV46eOa5aYzw2cobRRgN4rwHR6OD2v23dvK2FuKy9xiXwvP4SboHYQbgIAAAA6QLgJIYTQniLcBHqpKdyk0Glk6CDjNQqdqi4YZl4mZWvDzejd+sJNCp36BHYxXm+0+VV2684tpY8s3NxWjHBThmW42ZWHm+cunRVmSQ4JMi3/HhU4ROhDPvusfsLNty1O5FfDzcLKAiGgXBAzW7lOWIabrX0/5C0Gags3Mwu3CdfXJhpOhpeFmz3COyhtekG4+fKBcBMAAADQAcJNCCGE9hThJtDL8nDt3piVhyvYvkNi6DQvyhAaEbE7ooV6Mi4jhrcamBk4RWink7rPnD/DduwTQ6c18ct5D8b8UrTL0ndiWboUy2XpHTa1VK4vSxBnbdKeqSqOWpZ+/cZ1zbL0UR5DlcOMRkeI2x7QQUgqlt9l641NeYsB2bL0Gb5TlAC9f7Bp1iYF6DduXlf60Hdp+eywLB08D4SbAAAAgA4QbjqPn+0vY3eztrML4SHspKcbO+G2mVX5ebOrCXHscWG+tM/L5qPCvcrzqPL1Up7PqernRM/rbtYO5fnJ+kAI7SvCTaAXF8mBQkWHCthws6XCtH/jyTMneA/GApP9hXpye14GbzWwPFobmh6uOsR6W8zavHbjKu/B2KaY9UI9ua+iiLfq42UJNzv6i7Ma23k3Y2evnGXvbTadHj4goCevNtDb3fTsSTphnYJAvdgabj54+EBzoNDI8H7V71mhEKDPiZzGexho4vKW0KeHpzjD8satG0pAa14zPWocy9yXIVxbtWUZ78HY06dPq9+7fwjtQ71xoBCoHYSbAAAAgA4QbjZ8n5UWs7OBfqxgwli2s29P4ftSzR7Uj1UuXcTu7MiQjvFl93bmNlaxZCHLHthX+nzouRVMHMfOBQewZ2Ul0jEghPYR4SbQS8T2UE3wsTZnpRA6zQw3HdJCbE7aINST+48aDiFS8Uh21dSsy1kl/HlF7GJebWBZ3CKhnaTDcazhZQk3BwX2EvrRITlz000npJM5Jbt4tWFvyw6+LYX2zgGtldmTerE13Pz3v//NWrmJS8F7BndgI+IGGv9MAfqJquO8B2Off/65Jri0/C4pmH1voynMJYdE9mF9I02nwlOAfuXaZd6DsVt3bgr15KzIKbxVHwg3Xz4QbgIAAAA6QLjZsL2dmc4KJ40TvqOsfr1Y7rDBbM+IoSx7UH+hbVf/3uzY5g3sWfnLEeBRUHl04zqWVf1zmz+HnMH9leeTO2yQ8rzM2wonT2B3tr+cITCE9SHCTaCX3OIcTfBhfvgL7ZV49NQRXm1gesgkoZ5qrly7wlsNJOckCTWk+bg0e+7i5Qu82sCoAHFPSAqmHj16xFv18bKEmzNDxGX/tDyblv6rf+7r11UILuk50qn05n1G+BpOUdeLreEm0d+3u9CPgkvzAH1G2CReaaDqfJXQTi4OM5yibk4nn4+FGstxl0Uv5JUGyg+XC/Xkxti1vFUfCDdfPhBuAgAAADpAuNlwvRwXrczIVL+boqkT2YWwYPZgTy57WlqsBJhP9hUq39nRDWuVQE+tLZ0zU2mTjftl8XFRASuZNc34M+cMGaAEnbcytio/OwWf9JzoeZ0PDWKFUyaYaquf1dX4OOm4zuCN1CRWOndWg/Vc9fOW3Td8OUS4CfRy6colzWEv5k4LHc8rTXTzbyfUfOz2oTI7z5zjp7WHvZi7OGoerzRAs/Da+jYTarp6t7NqZiHxsoSb/mna/UnN3VEo7lV6+OQhTc3qWNN+p3qoS7i5KFJ7cJUqvX9HTh7mlQbS89I0dZHbw3mriakh4zV1qhSgX7AI0CO2h2nqtlZ/ljUg3Hz5QLgJAAAA6ADhZsP0ypZYtmtAH+U7oYCTllM/b8/IB7tzWOncmcbvkgIGCvdktc7u05J9bN+0ycaftWz+bCXElNWqPisvVZb3q0vX6T+vJcZLaxu6l6IjjD97Q5RmD8vuG74cItwEelGWK3uKy5VVaabloeMHeaWBq9evCDMwyUlBY3mrCQo7m7mJgaDqe5v+zs5dFEMb2tPTsm5BuOnkbL28LOFm2aFSoZ+5vX06a8Jm/63aMDQzX9wn9XnUJdyM3xWn6as6JWQcrzKxOHq+UEMzUy0DUCJwq59QZ+6iyLm8ysTUUDEMpZmel69e4q36QLj58oFwEwAAANABws2GJx1+Q7MQ6fvIHTqQ3UxPk9bJpADv0JqVxu/z4Mpl7POKcmmt01r981QuW2z8GQ+vXc0+q/65pbUSb6Qlm55v9X/ey8mS1jVkzcPN0jkzlHDX4c6bbQzkEW6+3CLcBNZAe19ahh/kxKDRvMKET4aXpi4uWzwpXWVWhLh0WnV++CxeYWJdyhpN3Y7CTN6qn5cl3Pziiy9YS8/3hb6q2/K28ioDFHT2CjGdHk7S5967b13AVZdwk0JxyxPTSQoXDxyr5FUGnjx9wpp7NBLqOni3lB5+VHVBu3ydpM+i0/nNuX33tuZ59/HvogT81oBw8+UD4SYAAACgA4SbDUtaSq0un6agiII4WV1t0gzP/YvmG77Tvj3ZxcgwaZ2zej402Pi+VixdZNMp6NeTE5X9SWmMommTlFBYVtdQNQ83HxXkSWvq288qytmeUcOUe0K4+XKLcBNYw/7j+4X9GkmaKVd+qIxXGLh8/TJr7vaeUPehy5vs7r27vEJk9/5coZakJcinzp7iFQYooGq8+XWhjg6gefLkCa/Qz8sSbhIrk5YIfcmuXm01IWDs7mhN3YwI8ZAoPdQl3CTGRA3T9B8bMJy3mtiQ9qmmziVpA2/V0j9C3M+TnB2i/X4WJWqXxgdlBPBW/SDcfPlAuAkAAADoAOFmw/KUt4fxuzjj7yut0ePTkiK2d+woZRw6fOhRwV5pnbP5cO8eljN0oPJz5Y8frZwkL6vT42kfT+OzrvLzltY0VBFuwoYswk1gLSODTSdXq04KGcMKyvOVMDIpN4G19/5IU1Pbvo20X2Zv/86aPrPCp7Liyn3s5JmTLHZXNGslmYHomezGR9Hy+PFjNiNostR3N4qzA1u4NdLUzAmdzkcSuX7juqaWnBo4QbMUv417E03dskjx8BoVmkFoWUtOChyjCZU7eLTU1K2NWcVHEjl/+byyxN+8P+0z6ZXqxg6fOKzss7kxca3m3mm2ZMWRmsO4ffv3ae6BHOUvHvhE9vLqpKkLTPHjI4kUVhYoobl5/2au7ygn9tMerfuPlLMFUbM1MzEp+L524xofRcuOogyhnmzl+gGLzYpmJ6pOsNJDJcqJ/5Y1zV0bsfsP7vNRtGzZHqv52cjenl00Y43wH6Sp27FX3PdUJSQtSFNLdnUX97IlxwYO19Tll+7lI4l4JbhrasmObuKhS+SkoDGauv2HyvlIwBKEmwAAAIAOEG42HCm4Uw8QKpk9w6YZiebeSEthWX17KuMdWbdGWuNsqkvu6eeq67tKz3ff9CnKeDmD+rPHhfnSuoYowk3YkEW4CazlaNURTVD2PNt4Nq1x1qZKyeF9Spgm61+TnX3aKAFmTdy+fVvaT6/vbHyFjyRyquqUtF6vzTc14iOJlFaUSOv12mlTaz6SFre0DdI+tbkoTjzMyZK4bbHSfnod5zmCj6RldrR40r4efTO8eW85FKKPC9MGr7VJAWpsTjQfQc5C/5oPQdKjR5w8oJ/sOU5ar9eItDA+kshQl/7Ser2mZafykYAlCDcBAAAAHSDcbDhSAEnfQVb/3uz29gxpjbUeWL5EGZOWuN/P2SWtcRbv7tppXEp+cPVyaY210vue1a+XMuaxTeulNQ1RhJuwIYtwE9jCluxYzUzCmnzf9TVWcrCY96ydwG1+mhl7NdnU4x3pwTHmINw08c9//pONDxoh7Sezf2D131mPHvHecl5kuPng4QPWy1vc/7M2p0SM1xyOJOPGrRusk0dr6RgyF8bOfe5emwg3gQrCTQAAAEAHCDcbhrRsfBc/xfvAiiXSGlu8l51lPOTF2WdvqrM2laB2d460xhYrlixUxs0Z7DyzNxFuwoYswk1gKxn521gLd/lBNardfNuz/cf28x76oOC0mdu70vFU+/p3ZceqjvIeNYNwU4T2BKVDoWg/U1l/kkLr2ZHTlHDxebzIcJOgg4ymho2vNfCmn2Vtwmrl4CS9XL95nY0NGlbruI02/YN5pLjoCkwRbgIVhJsAAACADhBuNgxPeroqz59mEd7ZmSmtsdVKPnuTTgh3pqXX5j7Kz2PZg/srP8ehVfaZtal6O3Obcfk+7cMpq2loItyEDVmEm6AuUPgUlhHCxoeMYB1cW7FW6z9gXd3bsumhE1lqXpISptnCrTu3WOBWPzY2dBjr4NJSGbebRzs2M2wKyyxMV2Yh6oE+PzQ52GYj08L5SCIPHjyQ1us1LiOWjyRy89ZNab1eU3Ym8ZFq59jpo2zdltVsUEBv1mZjM9Z6Y1M2wK87WxWzlFUc1R9GV505Lb0PvWbn7+Ij1Q7N/F0es4j18+3GWm9owtpuasaGBPZhmxI+ZafOnuRV1kGzMfPL97LFUfNYb+/OyrjtNn3Ehgf3Z25JG9n5S+d55fMpKiuU/nx6PXj0IB9JZHfRbmm9Xk+cOs5HEtmxZ7u0Xq/nLtT98KIvKwg3AQAAAB0g3HS8tPdj3ujhyvMvnTtLWlMXb2VsVU5Np/HPBvlLaxq6Z/y8lfunEPLODvss2Te3eOY0Zfy940bXea/T+hDhJmzIItwEAAAA7APCTQAAAEAHCDcd7/WUROPzvxwTJa2pixTWFU2dqIy/b/pkJYSS1TVU6f4LJ09Q7r94xtQXcv8XI/nvQd+eykFMspqGJMJN2JBFuAkAAADYB4SbAAAAgA4QbjreQ6tXKM8+d+hA9qy0RFpTV8/4+yifQcvene1gobs7txuXjZ8LDpDW1NWnJfuMJ9UfXrtaWtOQRLgJG7IINwEAAAD7gHATAAAA0AHCTcf6rKyE7R4+WHn29joBXOaDPbnGk8arfL2kNQ3VU55uyn3TQUIP8/dIa+yherL8nlHD2WflpdKahiLCTdiQRbgJAAAA2AeEmwAAAIAOEG46VloCrT77K/Gx0hp7SUvS6XMoeJC1N0grylnRtEnKfZfMmi6vsZOXYqIM30Xfng3+9wDhJmzIItwEAAAA7APCTQAAAEAHCDcd6wm3zcpzp1mJz0qLpTX28pSXu/GzHhcVSGsamnRKunHGqZ+3tMZePtlXqDwb+iyaLSqraSgi3IQNWYSbAAAAgH1AuAkAAADoAOGmY1UP+nkRp6Rbejsj3Xhq+pUtMdKahqYxxKNT0ndmSmvsacksw6npdHCRrL2hiHATNmQRbgIAAAD2AeEmAAAAoAOEm47zcWE+2zWwr/LcT/t4Smvsqfn+nkc3rpXWNDTpcB+6XwrN6P5lNfb0pIer8nk5g/uzJ/sa7uxWhJuwIYtwEwAAALAPCDcBAAAAHSDcdJzXkuLNnnuatMbeli+Yq3wezRiVtTckKSwrnDROud+KJQukNfb2Rmqy8Tu5kZYsrWkIItyEDVmEmwAAAIB9QLgJAAAA6ADhpuNUZwnS7M36mJVInvb2UD4zq39v9rRkn7SmoUj7gqr7bZ7x95HW2FvzfTfrYzatrSLchA1ZhJsAAACAfXhh4aZLQCKEEMIXpFtgIv9fW1BfINx0nGXz5yjPfN/0KdL2F+H1lCTjd30zPVVa01C8npJodq/1M7NVOZ19ygTlM/cvrp/ZoraIcBM2ZBFuAgAAAPbhhYWbU1z3QAghfEFOdcnh/2sL6guEm47xs/1lxiDoyPpPpTUvwkcFe40zE88G+klrGopVvl7KfWYP6levp7sfWrNS+dy9Y0cq35OsxtEi3IQNWYSbAAAAgH1AuAkhhE4ows36B+GmY3yYl6ssDadnfj4sWFrzotw7ZqTyuYdWr5C2NxQPLF+i3GfBxLHS9hfl2SB/5XMpBKYwWFbjaBFuwoYswk0AAADAPiDchBBCJxThZv2DcNMxXk9OMD7z29u3SWtelLTcmj5339RJ0vaGonqYUOXyJdL2FyUt11e/m5tbU6Q1jhbhJmzIItwEAAAA7EO9hJvuiUfYkUufQwghrIOu8YcRbjoQhJuO8UyAr/K86cCcJ8VF0poX5Qm3zcpn03Jv2mNSVuNon5WXsuyBfZX7POXlLq15UT4uzDfOqj0XEiitcbQIN2FDFuEmAAAAYB/qJdz0TD7KTt/4N4QQwjpI/6II4abjQLjpGA9/ukp53o7Y19EYjPXtyR7syZXWONr7ObuM7+SVuBhpzYuSgtW80cOVzz66Ya20xtEi3IQNWYSbAAAAgH1AuAkhhE4iwk3HgnDTMZbMnqE877L5s6XtL9LbmduM3zedSC6rcbRXE+IM99i3J7ubtUNa8yItmT2dfz9zpO2OFuEmbMgi3AR14bPPPmOJu+LZzJApbEBoD9Y9sD0bHNKLLYqcy3bty2L/+c9/eKV1PHnyhMXsiGbTQyay/qHdlXGHBPVmy2IWsbzyPey///0vr7SOBw8fsIiMUDY1eDzrG9JVGXdoUF+2Km4ZKz5YzKvqxt6KPLY6frnR1Pwk3lI3du7bIYy7Y18mb7GeS1cvMc9ENzYueATrFdyJ9QrqyEYFDmYuSRvZ6fOneJXt0PcTnxsr3G/JIduf7/Gq42xD3Fo2Kngw6xnUgfWuvudxgSOYT5onu3r9Cq+ynoPHD7JPY1axkcGDWI+gT5RxJwSOYkEZAezWnVu8ynaePXvGfLd5Cc/hyvXLvNV6Csrz2bKIhWxoSH/l3e1X/Q5PDRrPYnZFsUePH/Eq27l99zZzSd1ovNc18SuUnwHoB+EmhBA6iQg3HQvCzfqXZmqqMwPr86R0VVp2Tcvh6fPPBQdIaxztGX8f5f5oafqTfYXSmhepemJ6/vjRSmgnq3GkCDdhQxbhJrCV3WW5rLXrh+y1dX+o0V7+ndjxqmO8hz4y8tNZc9dG0vFUBwf2ZmcvnuU99BGfHceauLwlHU+VwjNbw7Kbt2+yWeFT2evr/iiMOTtyKq+wDQoiJ4WMEcYkV8Yt4RX6+eKLL9jG+LXs7Y2vaMZTfXP9n9nSuAXs6dOnvJd1HKv+vgf599aMG5oZxCv0QyH3vMiZmmdq7jvVP4vHVlergvS79+6yqaETah230eZXWfD2AJuD9NyybNbevblm3MpjFbxCPxeuXGBD/PtqxjK3hcd7LG1vKu9hHfTsEnLjqn/v3tOMe+/BPV4F9IBwE0IInUSEm44F4Wb9+7iogGUP6q88b9p7U1bzot09bLDy+cddNkrbHS0tB6f7yxs1TNr+oj3t46l8fs6QAexpyT5pjSNFuAkbsgg3gS1sLUhlb234qyYIkdnE7U128MQB3rN2onIilHBNNo6lLd3fZ6fOnuQ9a8c306vWIMvcdp4fKYGiXigYis2KZh+5vysdz9Zwk4LI0Iwg5fnJxrU23PzXv/7FpsdMko4lc0TQQKsCTgoiNyWuU8JG2XjWhps03qCQXtKxZM6PmaUr4KRgs2dAR+kYMtckLLcq4Lx64yqbGT65xvfN2nCTQvzWXrX/SwRV+szwncG8pz5OVv8OjQwcJB2PRLhpHQg3IYTQSUS46VgQbta/93OzleXW9Lwvx0VLa160RVMmKJ9fuXyxtN3Rqie6F8+YIm1/0V6MCjf8TlR/Tw/37pHWOFKEm7Ahi3ATWAsFiu9vfk0ahNRkO7eP2P2H9/kIciqO7q8xGKvJ7l6fsKfPag/g9pTtZm9t+Iu0f00O9O2lhIvP40TVcTYssL90DFVbws0DxypZf/8e0vFUrQ03fdO9pOPU5vL4xbx3zVDwt7s0l3X0/Fg6hqq14ebCmLnScWozeGcA7y2H7nVy+Fhp35qkwDAxL56PUDMUHkfuCGfNXN+RjqNqTbhJ2z708esiHacm6V0vPVLCR6gZWm7unuzCGm3+h3QcVYSb1oFwE0IInUSEm44F4Wb9eyMtxfi8b2emS2tetPsXzVc+n0IIWbujLZo6Ubm/ymWOCV9vbjX7jjIc8x3VJsJN2JBFuAmsZUzgME0A0tWnLUvbk8IOnzrEUqv/s7dfZ03NxuS1fAQtFDoNkIR5vX07s8yCDHbo5EGWmBPPunq31dT4b/Pho2j5/PPPq/u00/QZFNCb7SrOUsaNzYpi7T20y4e35MTyUbTQrELXlI3sfZfagyHSmnDz4cOHbG3iilqXjataE25eunKx+l7FQJpCu1mRU9i+A0Vs/9Fy5p3mwRpvel2oofs4fOowH0XLtRvX2NzoqeyN9X8S+sm0JtwsPViimcFLM4VXxS9jZUfKWMnBYrYuYTV7Z4P4nJq4vc1u3LrBR9GSU7xLqCcpUN+YtJZVHKv+55nKQrai+rlafnZrjybKfq01cfjEYTY0SLsUX6Y14WbwtgBN/yaubzL/dB9lNjQF9zPCJ2lmifbx71LrLNaC/fmsh7/2d0kmwk3rQLgJIYROIsJNx4Jws/69GMmfed+e7FG+Y4Kpo+s/Ve6B9v6UtTva3OF82byDQrIHu3NMs2tjo6Q1jhThJmzIItwE1kAHsFjOguzg2VJz+ErK7kShhmzq+ja7/0A+e5PCFsv63r6dNIESBWSWdW08m9R46Mm2vVs19UMC+2jq3VM2a+o6+7Vh//73v3mFiUtXL7Juvm009SSFfJZBk95w89S5k6yDlzZkJWXhoTXh5qdxKzX9V8Uv1Sy3HheqDa5nRcjvv7AynzV30+7RSMq2FrAm3JwQMlroS880ZHsgbzVA300XH+334Jq8iVdoGVz93ZvX0nNN2iPOyvznP//JWnk1FurI0Ez5cu+IrGD23qa/a+pJ2XPQG27SrM32Fu8DBbH7DhbxCgO0R6zl7Et6Xjkl2bxCZH3KyhpnMsvuF+GmdSDchBBCJxHhpmNBuFn/nvL2UJ61sp9jabG05kVb5eul3MOuAdX/h6y8VFrjKJ+VlRjfx7OBftKaFy0dYpQzmO+L6u8jrXGkCDdhQxbhJrCGVUlLheCDQhQ6xdscCp1oxqV5nWpC9hZeJTJ7yzShjkIWmlFoDi0T7+DVQqhTzSrayatExkWMEOpo9h8deGPOw0cPlf07zetUyw6V8ioTNBu0l28nTW1XvzZsR0kma+YuLkvWG27SbFAKis37kr39OrLMkm2amZd6w01aLv2x+wdC3zaezTSnax8+eVgabn3g+oZ01uLlq5ekBzSNChrI0opTNNf1hpvXb11njTaJYV3/gB6aoDkjf5smSCY7erWShtLnLp/T1I8JGaYJeGOyIoUa1X5+3aSzIfeU79aEzxQeLoyZxTwz3ITrpN5wM7c8R9N3+ZZFvNXEuoQ1mjpyRtgkXiESmRWuqX1/8z/YxqQ1bEniAk0bwk3rQLgJIYROIsJNx4Jws/49vHa18qz3jhulBEKymhftpehI5R6y+vViD/bkSmscpbInKX8fr2yJlda8aJUT7UcZTrQ/tnGdtMaRItyEDVmEm0AvFAJ19BL3VWzj2VQTJG0vzJCGTuS08Am8ygQFRs3dxdPRu3t/ogmS4rJjhBpzF0fP51UmHj9+zBq7iMushwT04a0m/NJ9hBpzNybIl9IXHSo0zn6jU7XdU1yUw3dotp2t4Saxs3SH8dnR8uOAbb5KmHrn7h2bw03ay9S8H7k2biVvNTE1YrymTnVH0XZeJRKY5WesaeXemCXtTlDeh2Onjgr9Sb3hZlJugqZv9M5I3mpACdD95XtRUtAoO6E/JCNQU0sze81RAnRvbcBMUjAuO0mffi9mbDEd1NTLrxMrqihU2mK2RwljkHrDzeUxizV9j546wlsN0BL8Jq7agJn8yPVdZRaqJfTs+oZ3NdYNDx7Ijp0+qrStjVktjEEi3LQOhJsQQugkItx0LAg369+KJQuVZ73PQYflkDdSk4zf+Z3tGdIaR3lrW5rZ+5gmrakP1UOXDqxYKm13pAg3YUMW4SbQy+WrlzV7Qc6MncJbDVBw0s/fFJxY2tr7Q00YerzquCYMXZEgBncUOnXyqfnAmm5B7TUz8Ior92nqXLeKS5YpAG3lIc5qNHdQZG9eqWXelhlsdMRQdvrcaX7FsJS4LuEmMSF6FJsSPU7ZJ1OlLuGmX4o2vKVZgeZQGCibtan6abI2DCXo5+0b1pUtSVig3KNKXcLNReHzhH4UVp65eIa3GthRmFljgE5GZUfwShNTgsTwlpaS0yxRc7Zkxwo1lqYXimGoCm1V0DaoGfPP8FGeiUpdws2eXuLs4BYejXiLiY2Ja4Uac+n50B64MiqO72cfB3zAEnPjhd9HhJt1B+EmhBA6iQg3HQvCzfq3ZNY05VnvXzRP2l4f3s3abvzOryUlSGscJc3WpPvK6tuT3cvZJa2pD8vmzVLuo2zebGm7I0W4CRuyCDeBXvaU7tYEHz5JnrzVAC1RNw+daLabeT3tGXj1+lVebSAlN1moIaMzxZl6CTlbhHbLcSn4e/RIXGYdlhEi1JCZezN4q4GgDH+h3XLcJm5v8kotNKPScnapPcJN2g/UMqitS7g5O0xc8k8zTimoNmdGpGnmIYWJlkHnCP+BvFKLbL/TuoSblgdL0SFH5s+Zwrj+Ad2N7ZbfGbkkcgGvNtHZt7VQ09q1qfCcKUDv7GOqkY27KX49r9YiO7Xf1nCT3uUmbuKMzKE+/XirAdrntqnb28Z22f3G75JvA0HQTGNLEG7WHYSbEELoJCLcdCwIN+vfggljlGd9aM0KaXt9SAcZUXhI93ExKlxa4yjPhwUr97Wrf2/2qDBfWlMf0oxNug+awSlrd6QIN2FDFuEm0Ev4jlBN8LE1L5W3GkKnAYE9jW10yMmShPlCPUknc5vjkaLdl3BveR5vNYRO5gfHUKAzN3aGUE9azu5bvWW5pubQCdNMNgoiP/Y0zdps69WMTQ4fI9ST1oQ79gg3ZdQl3BwY3EvoR8+PZqyqnDx7Qgk81fax4cNYRw9xlmyXgNaawLU2bA03KcS03P+0m3873moguzhLCNBXJi9hb60Xg70xYUN5tQHad9Ty0J/BgeKs3MTd8UL7mtTlmtmhdLq8Ndgabl64fEHz2fMjZvJWA3Rav3n7p6krhD+TbrUcriQD4WbdQbgJIYROIsJNx4Jws36lw3L2jByqPOvjrpukNfUhHSJE+23SfTS0A3NO+3gq95U9qB97tr9MWlMfHt24TrmPvDEjlD04ZTWOEuEmbMgi3AR6cUkUwxSyoDKftzKWW5ottK1OWMJC0rSnm2/PE2dPLo/W7i145LRpb8HkPeLJ6x5bNzPXuE3CNbK4Yh/vYWBm2GRNzdUbpj0TQ7eL9xa+M4itCF8iXCNPVJ3gPZ5PQww3O/q3Evq18WkqzIScHT3F2EYzNsuPlLG+nt2EPhSIUkCoF1vDTTq46EPXN4R+QyNMMxYpQB8UJAbo9J02c3tX6NPDswPvYYD2prQ8IXxy9FjeagjQ6UAotY1+XhrXcs/WYT79eQ992Bpulh8u0/Rbl7SatzJ2995d4T3r5tuenThzXDPjdlHoXN5DHwg36w7CTQghdBIRbjoWhJv165PiogZzCnfusIHKfZxwYMgqkw7wofuiEFjWXl+aTrUf6LBT7WsS4SZsyCLcBHpZEaEN/ioO7VfaKCwbFNzbeJ1Cp8vXLrO4ndpDgOIyYpQ+KjMDTeEaScuiq85VKW0UOnXza29so0N2KGzxT9XuI7kzTzz0ZrTvUKGdwq07dwz7QlII2dqribGtjUcT5bTyDXHaPQxLKoqVPnpoiOHmR+5i8PfJppa8hbFT504Ky5lHhwxRrg/3HyD0oWcnO5ymJmwNN6/fuM7e3fQ3od8oD9MszByLAH1F/GLlelvvZsL1NhubKddVzpyv0pxoPsPXNAszJS9JaHNNrf5nrc8/Z8093hOu99jckffQh63hZu4+7UnpLtEbeStjbqmbhbakPYnKVgOWS9Mne4/jPfSBcLPuINyEEEInEeGmY0G4Wb8+KthrWg4eESatqS/zx49W7uPw2lXSdkd5cNUy5b4KJ4+XtteX50MClfugGa4USstqHCXCTdiQRbgJ9LIoWDzohTx0zLDMe3d5rrCMdmmcYc/DpBztydcxWeJ+mpN9xwntFKSdv3heaUvbmyK0bUpep1wPSdeefJ2Rn660qQz17C+0U2h2754hqInIChPaAjN8leuuktmpRZUFSpseGmK4aTn7sItrW97C2NwY0/J+Cv+KDxpmv44OFINh8tln2r01a8LWcFMW0I33Hqm0UYA+OLiP8ToF6Bf5oUsdfC1mp3o0Ua6rHD+lPbRqbuAMpY0C9O5+HYzXaebo3ft3lTC3lVdjoU8v//oJN7fnZWr6eW1xV9ru3b8nBNZdfForQaxhdqr47KZGINysbxBuQgihk4hw07Eg3KxfH+zOMT5rOjhHVlNf7ps2SbmPyuWLpe2Ocv/i+cp90cFLsvb68lJ0pPG7oj1KZTWOEuEmbMgi3AR6qSncpNBpaIgpSKS9Dc9dOqf0ScrWhpvRuWK4OcVXPMVaDTcpdKIwSb1OId2de4aZl7Jwc9s+feEmBZDtfZobr9Mej48eGw4jcknYIPQhCw99ucLNrjzcrDp/WpglOTzYdGjQqMAhQh/ys89Np4A/j7qEm5Yn8qvh5t79e4SAcnHsPOU6YRlufuz7IW8xUFu4uTU/Vbi+MelT5bos3OweJi53fx4vItz03uouXI/LjlauX795XTtzc4tp6b0eEG7WHYSbEELoJCLcdCwIN+vXOzsyjc/6RmqytKa+LJ0zU7mP8gVzpO2OsnTODH5fc6Xt9eW1xHjjd3UvO0ta4ygRbsKGLMJNoJealqXnV4qh04LoObwHY7E7ooV6cktGLG81MCtoqtBOMwjPnD/DthWKodO6BNOeg34pti9Lj8kWZ236bDWd+L4+do3QRn7ZlqV34MvSF20xzdqk76+gwrR/6jA/MRh29LJ0CtBHhJlmbVKAfvbiWd6LsTZeTYU+epelU4DeJ/AT4zUKgukUcoK+S8tn58hl6a4xm9jDRw9ZC0/TPXXwamk8rf7y1UuacHOK93ilTS8IN+sOwk0IIXQSEW46FoSb9evNrSnGZ317+zZpTX25f/EC5T6KZzp2hqSlRVPVGaVLpO315c30VON3dSsjXVrjKBFuwoYswk2gF9mBQoWH8tmQkH7GP1Mwdfrcad6DscBkf6Ge1HOg0KGqg6xngDhrk2amqWyKXi/Uk3oOFDp35Sxr722atdncvZFyiI3KkpAFQj35ZTtQqK13U3b64qnq78p0eviQwD682kAvt85Cn/o6UIjCO8sDhUZG9Gd7D+QJAfr8qFm8h4EmLm8JfXp6iSHkzds3lYDWvGZa1FiWXpQmXPs0fiXvwdjTp0+Vpe/m7Y48UGhj8hrmlSnO2ozaGcF7MHay+j21DHBxoFD9g3ATQgidRISbjgXhZv16NSHO+Kzv5+6S1tSXB1ctV+6jcJJj97a0NH+cuhfoaml7fXkna7vxu7qekiitcZQIN2FDFuEm0EvkdnHGI7lq1xIhdJobMZ1XG9iUrA0hK44aDiFS8Ux209Ss3rVU/HPcMl5tYGncQqGdNJ/JR6yOXa6psRzXI8WVVxuYFjlRaCetCXcaYrg5KKCX0I8OyZm1VQx+88p282rD3pYdfFsK7V0CWrP//ve/vOL52Bpu0me3cv1A6Ncj6BM2NEYM0E+dPcV7GJ65ZXA5NmwYbzVAwWyjjWJQOTiyN+sV1sn4Z3q+125c4z0oEL0h1JPWfpe2hpsXLl/QLKOfmTKZNfc2HXDU3qu5EsCqlBwqFupJ95TNvFUfCDfrDsJNCCF0EhFuOhaEm/XrxSgeSvXt6fB9HI+s/1S5l7wxI6TtjnL3iCHKfR13cECm7I/KD3+6EhcjrXGUCDdhQxbhJtDLntLdmuDDPFR6Z+Mr7OQZcZbjtBAxLKSaq9ev8lYDKbnJQg1pPm6jza+yK9cu82oDI/0HC/UUTD16ZNg3UyUsI0SoIc3HpdmI9x/c59UGevt0EeqbuL3FW/TREMPN2WHThH4UmpnP8Bvg31MILh8+fKjZp3Ok7yDeqg9bw02C7se835vr/ywEfbPDxedJM4Utg8Cl4Qt5q4nOvq2FGhrX/M8rY8TnWXZIO3tyU9x63qoPW8NNepfp3TPvZxnghmUG82oD8bu2CO1kQlY8b9UHws26g3ATQgidRISbjgXhZv16jp/AvWtAH/a4qEBaU1+ecNus3Evu0EHSdkeZPbCvcl+nvNyl7fUlhc/0PdG9XIgIldY4SoSbsCGLcBPohQJGy8NezJ0RNplXmujq10aoae3WhP373//mrQZOVGkPezF3WfQiXmmAZuG18RH3WOzm/YlmZmHxAe1MNnNdEjfwSgOPHz/WBJODA8Tl2s+jIYabAWm+Qj9Ls/ft4pUGDh4/oKn5NM60XFsPdQk3l0RptwZQpXD8+OljvNJA2h7xRH0yeod4aBUxNWSCpk6VAnTas9KciMxQTd22vVt5qz5sDTeJXt6mWaWW0mnwT5484ZUGVsUuE2oowD584jBv1QfCzbqDcBNCCJ1EhJuOBeFm/XomwFd5zjmD+7MnxUXSmvqSwkP1Xj7bXyatqW/pPnb1763cV5Wft7SmvnxcmM+yB/ZT7oVCaVmNo0S4CRuyCDeBXig87OAh7t+oSqHn0VNHeKUBOvnacrbZlOBxvNUELUW2PLhFlfY8vHj5Aq80cOy0NjhbGK7dW5DCSssZiKq0r+Pde3d5pYGiykJN3fothpOz9dIQw83yw+VCP3P7+XVTnr85vmnemrodBeJhTc+jLuFmYna8pq/q9NCJvMrEwqi5Qg2FevT5lgSnBwh15lKgasnksHFCDb3LV65d4a36qEu4uSxKu/WCauBWf15loodvB6Gmmcs7Vh0CRSDcrDsINyGE0ElEuOlYEG7Wr6d9PJXnTLMln5bsk9bUlxQe0r1kD+rHnpWVSGvq26elxSyLh5tng/ylNfXlk32FSvBL90KhtKzGUSLchA1ZhJvAGlZtEfesVJWFll7bxMNPyIScLbxVZE7kdE0tuShSG1quSVqhqcvat5O3iowLGa6pJTfEa0PLuVtmaupKD5fwVn00xHCTZrq28mos9FXdXpDJqwzQrNruwabTw0kKiM0PXdJDXcLN67euK6ehW/ank8CPnBRnIj56/Kj6eYvBeEfvjzWzg4lzl85JZwjTZ52vbjPn5p2bmsOE+gZ0s2rfUaIu4ebuUu2J6WRL9/eV4N6cyhMVmmX2MyIn8Vb9INysOwg3IYTQSUS46VgQbtavJz1cledM+0o6OlCk8JDuZdfAvg6fRapKS/Wz+vVS7utCWIi0pr6koDV36EDlXiiUltU4SoSbsCGLcBNYw4ETlZoQhWbKVRwRA5sLV86zpq5iyEcnWlvucamSX7lXqCVpNmjVuSpeYeD42ePKEmLzutbuTdizZ894hUh6oXgaNklh1s1bN3mFgdIjJcqSZ/O6Tl6tNbMan0dDDDeJNcnaQLirZzvNCejh2dql2LMjrL//uoSbxITokZr+4wJH8FYTq1O0h0a5p7jwVi2DIntr6ueEiodgUYA5N0Ebtoda7HGph7qEm/QutfP9SNPfI9GNVxj4/PPP2fCQ/kINhbi5Jdb//zSEm3UH4SaEEDqJCDcdC8LN+vW4y0blOVMI5Oil4OfDgpV7Ufb/LMyX1tS3tM+lGm5ejAqX1tSXz8pL2e7hg5V7oVBaVuMoEW7ChizCTWAtY0KGaAKQsUHDWM6+bHbo+EEWkxXF2ng10dSs37KGjyCnf2A3TZ+poeNZXukeZdzw7SGsuYd2+bpvqhcfQQsty+3qK+77Sc6NmMEKyvPZgWOVLGCbD2vi9qamJjYrmo+i5dr1a2xiwGiN4wNGapbi0+nflnXzw2fxkUSqzp7W1JJj/IcJhwCR7dw/0tStjJIHnpeuXtSEwnTq+KbE9azsYBkrO1TK1mxZrgmuabYkPfuaKCgr0NwDOcTHdLq5KoWplnU+SZ58JBE6+dvyXigcD0j3ZZVHKlhhRaESulrOxGzi8ia7cesGH0VLdkmWUE+2cG2kHM5z8NgBtrc8j00OGaOpaeX2Qa2zV6O2RWh+NrK7h7hUnBzs20dTl7EnnY8kErJdu5SetoZIyI5nh08cYllFO5V9YS1revt0rjWYd43bpLkHsr1bC81YYwKHaepKD1g3o/llAuEmhBA6iQg3HQvCzfr16Ia1ynPeSyeUV5RLa+rLi5Hhyr3QHpcP9+6R1tS3D/bksix+Qvnl2GhpTX2phHUjhyr3QqG0rMZRItyEDVmEm8BaTpw5rplF+DzbeX1U46xNlfKjZbUeWCSzm2979vTpUz6CnNyybE3g+DwHBvZkX3zxBR9By6mqU9J+em2+qREfSaS0okRar9dOm1rzkbR4pbtK+9Tm8vjFvLecuG2x0n56HeepnY2pMj9WvlVBbQZtD+C95dCszEnh2lmhtUkBasLu2k8dX+g/T9pXrx5x4mxMFZq92Tewo7RPTdK7XnyomI8gZ6iLONPTWtOyU/lIwBKEmxBC6CQi3HQsCDfr18NrVyvPOX/8aGl7fXo5Nkq5F5op+WBPjrSmvr2Xk8V28nDzasIWaU19mjd6uHIvRzeuk7Y7SoSbsCGLcBPYQvLuRGVWnyz4sPRD9zfY/iPlvGft0OxMyxl7NdncqxE7XnWc96wdjxRXzczHmmzj25RduHSe95TjjOEmhbVTQsZL+8kcEtJPcyK3JS8y3Hz06BHr56OdzVuTs6KnSvfatOT2ndvKLFLZGJZSsLksftFz99p8UeEmcfrcadbSTb5nqqX0jgdm+vGeNYNw88WBcBNCCJ1EhJuOBeFm/Xpw9XLlORdOGidtr0+vxscp90IzJe/l7JLW1Ld3s7Ybw83ryYnSmvo0f9wo5V6OrFstbXeUCDdhQxbhJrCVXfuyWBvPptLwQ7W3f2d2+NQh3kMfqXuSWUv32sOcwYG92alzp3iP50PhFC2Xb2axD6i5FGSNCh7ELl4RT2eX4YzhJkH7M66NX6UsSZf1Jym0Xhwzjz1+Ih5aI+NFhpvEw4cP2azwqbXOvKU9VF2SN2r2D62NW3dusckhY2sNvBtvfp35p/voCkxfZLhJnL14lg3y0y4/N7e523ssMbf2GaYqCDdfHAg3IYTQSUS46VgQbtavB1cuU55z4ZQJ0vb69FriFuVelHAzO0taU9/e2ZFpfBdvpCZJa+rT/AljlHs5/OkqabujRLgJG7IIN0FdoNOqY3dGs2nhE1g3t09Y+40tWG/Pzmxe+Ay2oyhD2fPSFu7dv8ciMkLZlLBxrJtre2XcPl5d2cLI2Sy3dFetS8Zr4+btmyxoawCbGDqadXFpq4zbz7sbWxK1gOVX5OkKsggK3WK2RdtsalYyH0nk9u3b0nq9ZuRu4yPVDs0GdE3cxEYEDmIdN7dmHTZ9zIb691P2RT16SjyRvDbOnj8rvQ+97i3O4yPVzoFjB9jaLSvZYL8+1ffainWqvudRQYOZR7ILO3dRPOlcLxR4lx4sYatil7JBvr3ZJxtbKuOODR7G/LZ6sivXLvPK51NaWSr9+fR69MRRPlLNUHhLJ6gviprL+np1U97drq7t2KSQ0Sxie4hy6JRedhfmSu9DrxcuPf9fALysINyEEEInEeGmY0G4Wb8eWLFEec5FUydK2+vTa0kJhu+9b092d9dOaU19e2d7hvFdvJmWIq2pTwsmjlXu5dCaldJ2R4lwEzZkEW4CAAAA9gHhJoQQOokINx0Lws36tXL5YuU575s2Sdpen9Kyb8P33pPdzdohralvb2duM76LN7emSmvqU9o+gO7l0Orl0nZHiXATNmQRbgIAAAD2AeEmhBA6iQg3HQvCzfq1ctki5Tnvmz5F2l6fXk9NMn7vd3dul9bUt7cz0o33dHNbmrSmPi2cPEG5l4OrEG4+T4SbUBXhJgAAAGAfEG5CCKGTiHDTsSDcrF8rlixUnnPxjKnS9vr0Rlqy8XunvS5lNfUtvX/GdzHD8e9i0ZSJyr0cWLFU2u4oEW7ChizCTQAAAMA+INyEEEInEeGmY0G4Wb9WLF6gPOe8MSPYaW9Ph0qH5Kjf++3t29jnFeUOl5aiq/d0ZN0a6X3Xp2pYlzO4v3K4UENxz8ihxueUP360tKbeHT+GZfXrpdxT7tCB8hoHWjRtEntaWiz9vYT2FeEmAAAAYB8QbkIIoZOIcNOxINysX/cvmi8874birgG9q+3jePv3lt4fhHU1Z8gA9rRkn/T3EtpXhJsAAACAfUC4CSGETiLCTceCcLN+rVy6iGUP6tdgbKhhIt2X7H4dYVbfnso97R03Wjk1vSFYOmem8VkdWL5EWuMI6XnRPRVOHi9td4S0BQTdE8LN+hPhJgAAAGAfEG5CCKGTiHDTsSDcrF8/21/WoDzt46l877sG9mWnPN2lS7Pry1OebiyLh61nAnyl9+sI6WR7uqfKZYul36kjvBwbZfydfbh3j7Smvm2oe25W+fko94Rws/5EuAkAAADYB4SbEELoJCLcdCwIN19uq/y8le+d9pR0dPDzpLiI7RrQV7mfs0H+0hpHuG/6ZOWeEG7WLsJNqIpwEwAAALAPCDchhNBJRLjpWBBuvtye8efBz+D+7ElJkbSmvnyyr1DZd5Pu51xwgLTGESLc1CfCTaiKcBMAAACwDwg3IYTQSUS46VgQbr7cng3wVb737EH9lZmTspr68sm+AmO4eT4kUFrjCBFu6hPhJlRFuAkAAADYB4SbEELoJCLcdCwIN19uzwb6K987HQRDMydlNfXl46J8U7gZGiytcYQIN/WJcBOqItwEAAAA7APCTQghdBIRbjoWhJsvt7T8m753JdwsKpDW1JePCvcaw80L4SHSGkeIcFOfCDehKsJNAAAAwD4g3IQQQicR4aZjQbj5cnsuJFD53rMH9mWPC/OlNfXlo/w8toufln4hIkxa4wgRbuoT4SZURbgJAAAA2AeEmxBC6CQi3HQsCDdfbmmGJH3vNGOSwkVZTX35MG83y+Lh5qXoSGmNI0S4qU+Em1AV4SYAAABgHxBuQgihk4hw07Eg3Hy5pRCRvncKFR/k5Upr6sv7ubtYVr9eyv1c2RIrrXGECDf1iXATqiLcBPbkv//9L/9v9uVFjEtjvqj7Bc6Hs70PL+pe8TtRNxBuQgihk4hw07Eg3Hy5vbIlRvnes/r2ZPdzs6U19eXdXTvYzur7oPu5lpQgrXGECDf1iXATqiLcBHXh0eNHLDozkk0OGst6hXRknfw/Zn2DurDZ4dNZ+t6t7IsvvuCV1nHv/j0Wmh7MJgSNZj2DDeP2C+zK5kfNYln7drJ//etfvNI6bt25xQLSfNm4wBGsR/Anyrj9A7qxxdHzWF75bvbvf/+bV9oGBUO7SrLY0tgFbEnsfMWEPXG81Xb+85//sK35qcK42wrTeKvt0LjxubHCuNmlWbzVduj7idgZahyTLDxQwFtt5/PPP2eBmf7CuJXHK3irddB3VXKwmC2PXMQGBfZinQNas25B7dhI/0HMO82DXbl2mVfazsNHD5lr2ibhfi9dvcRbrYO+q+yiLDYvdCbrH9xDeXd7Bndg4wNGsNDtQezuvbu80jrodzQjbxubHTKtetzuyrj0uzwxcDSLyopQfgagH4SbEELoJCLcdCwIN19uryXFG7/7e9lZ0pr68s6ODOO93EhLltY4QoSb+kS4CVURbgJb2VG0nbV0bcxeW/eHGu3u144dPHGQ99BH8u5E9tHmd6Xjqfbz78pOnj3BezwfCrIid4SxD13ekI6nOiywL7tw+QLvZR2Xr11mU0PHs9fX/VEYc3bkVF5hG2cvnmFjg4YJY5Ir45bwCts4fuY4GxrQTzOuW/ImXmEbB45Xsn5+XTXjhmYG8Qrb2HewiHX3/kQzbkr1+2ItN2/fZBOCR2q+K3Mbbf4H8073sCnwpvdte1EGa+PWVDNu5THrw9iq81Wsv293zVjmNnN7m8XnbuE99HHk1GHW07ujdDzVlh7vs4yCdN4DPA+EmxBC6CQi3HQsCDdfbm+kJhu/+zs7MqU19SW9ew3xPUS4qU+Em1AV4SawhcS8BPbWhr9IwxBLP3B9g5UdLuU9ayd0ZxB7Y/2fpONY2tz9PXb09BHes3bc011qDbLMbePZlJ27dI73fD40SzE8M4Q1cXtLOp6t4SbNUvRN82KNXV6XjmtruPnkyRPmkrRBCe9k49oabtIMvzVblrO3N74iHdfWcPPO3TvKzNqa3jdrw00KNrv6t5OOJXNZ3EJl1qReLl65wCaFjKnxfbM23Dx59iRr6fm+dCxL6TMDt/vynrVz4ERlje+spfTsY3OieU9QGwg3IYTQSUS46VgQbr7cCoFihmO/e5qtqd6Lo4NWcxFu6hPhJlRFuAms5djpY6zRplelIUhN0gy2u/fv8hHkUAD61oa/SvvXZFfPtuzxk8d8BDnZxVnszfV/lvavyX4+3dg///lPPkLNHDx+gA0M6CUdQ9WWcJOWS/f26ywdT9WWcHNP2W7WxauNdDxVa8NNmqW4ozCTtff4SDqeqrXhJgWKKXuSWUu32mcHWxNu0r1OCB0pHacmKTCMzX1+sEfvS/C2ANbE5U3pOKrWhJvPnj1jPX1qn1lpKQWRhQdr3wKAguj2Xs2l/WvyvQ1/ZwdOVvIRQE0g3IQQQicR4aZjQbj5ckshovrd0yxOWU19eS2x4SyRNxfhpj4RbkJVhJvAWkYGDNIEHz19O7KdRdvZqXOn2I7C7WyAX09NzbrE1XwELRQ69fHtoukzIKAnyy3JUcZN35vGekiW0Pqke/JRtHz22WessyTMGx40gOVX7GUnz51kSbkJ1TWtNTXRWRF8FC0PHz5k66t/nnc3/U3Tz1Jrwk3aN3FZ3AJdIa814eaNWzfYvKjpukJea8LNS1cusmnh43XNtrUm3Dxz4QwbF6pdii/TmnCT3k3L/u9t+jtzT3Vhx6qOsYqj+9m6hDWa59/SvbGyD2xNVBzZX/2udhP61KQ14WbAVl9N/2Zu77Dw7SHKu1t8YB+bFzlT8/x7+nWqdTn9xoS1Qj3Z0qMxi90VrfyuFVYUsGlhEzU1w6p/b6yZxfoygnATQgidRISbjgXh5svtg905xu/e0SeUqye3k4/y86Q1jhDhpj4RbkJVhJvAGiqOVmgCsi7ebTSzMikwNK8hm7i+WeOhJ3llezT1/fy6aWZlhmQEauo+9vxAWWotI3V3iqaegk1a8m0OLdO2rOvo20oaENGy407eLTX1JIVMlkGT3nDzxJnjrI3Hh0JfVXrmlsuc9YabFUfLWQu3RkJfVdlSb73h5t79e6q/07c1/UnZuHrDzcyidPZBDXujysa1JtyksNy8Lz3XtPwU3mqA3g3ZMvDAbf68QiRkhz97p4al+LL71Rtu0qzNNh7NhL4UppcfKeMVBi5fvaTZYoDeFTp4SwbN2mzqJn5vH2x+gx2rOsorDJw6e1LzLtOfaVYxqBmEmxBC6CQi3HQsCDdfbh8XFRi/+4uRYdKa+vJ8aJDxXp6WFktrHCHCTX0i3ISqCDeBNSxPXCyEHRSi5JRk81YDtAclzeQ0r1ONy4rhVSIz46YIdRQ6We7TSct+23qKYY8qzciTMTpiqFBHM/JoD0Nz7j+4r+zfaV6nSjPjLKH76Cs5MKeX/ycstyKHNXN/R7iuN9ykMKuTZAbpwIDuLGf/Lva+y2vCdb3h5oOHD9jH7trQdERwP5a9P0sTwOkNN6/euMqauYg/KzkhZDjLLM3QXNcbbtKszUabxJ+V3rMZEeNZYkG8cJ3UG25WXazSBMQTwkYqs4bNoYOnzGtUe/t0ls5aLKjM1wT+9J6tjF/EfHd4C9dJveFmTtkuTd9V8ct4q4k1W1Zo6sipoRN4hUjSXu2/ePBIc+WtJuZFzdTUkUuiFvAKIAPhJoQQOokINx0Lws2X22dlJSyrby/luz8b5C+tqS+r/LyV+8jq10va7igRbuoT4SZURbgJ9ELBTkevVkLQ0darmSbwSc/fKtSYOzlsHK8yQbMjm7mJp6PTPoOWoVN0VqRQY+7CqDm8ysSjx480geDwgP681YR3modQY+76+DW8SqT0aIkSYFENHZjkt9VHmfFHy+BtDTeJnPJdxgCumes7LGJHKPviiy+UQ3VsDTeJlIIkY7+W7u+zhNwtynOnZeW2hptEaHaQsV8bj6ZsW0G68j4cO3VUGJO0Zlm6W8ZmYz965yhAp/ehcH+BMCapN9wMTPfX9N1ekMFbDVBw3d5bvncoPSeaJSljVvxUY10//+5s/5Fy5XrM9ihhDFJvuLk0ZqGm7/GqY7zVwLWb12qc5drU9W3NDGViRtgkoY4OgKLZyOZQwFzTbFTaq5P+BQaQg3ATQgidRISbjgXh5svts/JSljO4v/Ldn/bxkNbUlyc9XJT7oBBK1u4oEW7qE+EmVEW4CfRCQZjlSdizYsXgjkKP2g7C+djrA81S7+Onj2lm1K1MXMpbDVDo1MG7hVBjbtfAtpowdF9lkabOfasLbzVAAWgLD/mSbXJQZG9eqWVRwlw2MXqMEAzVNdwkpsSNY7PiprLrN6/zK4YTw+sSblLgOCp6MFucOF8ZS6Wu4SZ9LwMierLVKcuVfUhV6hpuPn36lPUI78A2p29QZrSq1CXcnBw0VuhHe23euH2DtxqIqSVAJ7cWpPJKkavXr7BPQluwsKxgJYxWqUu42d2rg9CvhWcj3mJiXcIqocZc+p06dOogrzTRxr2JUNfZrw1vMbEweo5QYy7NUr1w5TyvBJYg3IQQQicR4aZjQbj5cvvZ/jK2e+RQ5bs/4bpJWlNfHtu4TrmPPaOGS9sdJcJNfSLchKoIN4FecotzNEGHb5IXbzWQWSguR7YMQ+nPV65d4dUGknNNswpVKRQyJy47Rmi3HLfR5lfZo0ePeLWB0G3BQg25fa84U88vXVw2bDnuh65v8EotFORaBqr2CDfNwzGVuoabhGzcuoabhGzcuoabhGzcuoSbnXw+Fvq1cWkmfH+WAbrlu0BujF/Hq7XI7tfWcJOC4iZu4qnrQ33EWcd0SJR5jex+t2TF8WoD1MdyRubkgLG81cC5S+eU4Fdtl42bVSTfzxMg3IQQQqcR4aZjQbj5ckuBVP640cp3f3jdGmlNfXlw9XLlPgomjpO2O0qEm/pEuAlVEW4CvdAJzZYhR3peGm81hH19A0x7UVIYtzxBu7TW8kAUjxRXTU3+/r281RA6dfIx7UVJ+2POj50l1JNnLlTxHgZWbVmmqTl88jBvNcwOpNlwatsn3s3Z1PDxQj1peVhSbdgj3JRhj3BThj3CTRn2CDdl2Bpu0rv53kZTYEcOCezDWw3EZUcL7eu3rtYcqDMzYjKv1oet4eb5y+c1s5nnR87irQY2Jn0qtG/Yukb4M+mavJFXG6g8Vqmp+TRuJW81sCR2ntAuG5cO9gJyEG5CCKGTiHDTsSDchMbwbukiaXt9uX/hPOU+SmZNl7Y7SoSb+kS4CVURbgK9uCRu1IQchQcKeCtjO/dtF9rWJq1goVslsyfzxNmTy6IWaWqOVh3hrYzF58QKbd7p7sw1bpNwjdxXUcR7GJgRNllTc/WGadZoYIav0Ba1K4ytCF8iXCOPnz7OezwfhJsGGlq4STMWLX/OSVGmGYsUoHe2CNCv37zGGru8LvQZ6q3ds7U2bA03yw+XafqtS1rNWxm7decWa+L2lrGtl19HdvLMCc3BRotC5/IeBnYVZQntpM820+xrClXNT14fEtSXVR7dL9ST66Ple9EChJsQQug0Itx0LAg3YfnCucp3XzLbsaGiGiJWLF0obXeUCDf1iXATqiLcBHpZHi6elE5WHNqvtNE+mgMCexivUxB39fpVFrdTXE5OxmWIJ6bPDBRPSqfZcmfOn1Ha6ECULr5tjG1N3d5WTv/2T/UR+pA79mQqfVRG+wwR2ukAoDt3DPtN0j6OrTw/MLa182qmzOTcELdW6EMW79eemF4TCDcNNLRws+pclWYW5gzfKbyVsfjcOKGNTg+nd6+5h3iKfvdNHXgPfdgabuYUZWv6uUSbZmFuTl4vtKXtTVG2e1APuVKd7C0e4JW0S3tSekiK6XtZFifOtN5TvpudqDohXCMXBc7jPYAlCDchhNBJRLjpWBBuwoayHHzv2JHKfRxZt1ra7igRbuoT4SZURbgJ9LIoWFyuSh46dkhpyy7ZJVxfsWWxcj0pRxumxGSJ+2lO9h0ntFPYdv6i4cCSpD2JQptbiiHgCUkPFK6TmQXpSpvKUM/+Qvu7m/7G7t27p7SFbBf7058JV9ns1ArT7NTngXDTQEMLN4+fOq5Z5j03cIbSRrM2u/q1M16nGZH3H9xXrrfyaiz06RXQUemjF1vDze15mZp+XlvclbY79+4oIb96vZtvO+VeDbNTxXBzasR4pY9KbIa49J6MTA9X2i5Wvwvm79jAwB7KnqR0crp5Pbk4RpwRCkwg3IQQQicR4aZjQbgJj7tsVL773SOGKgGVrOZFSwcb5Q4dqNzHSQ9XaY2jRLipT4SbUBXhJtBLTeEmzdocHNzHeI0O96GghEjK1oab0bmRSpvKFF9xn0s13KTAprv/J8brdLjPvfuGcDI4PUDoQ27bpy/cpFmbbbybGq+39viQPX78WOnjkrBB6EMWHkS4aS3OFG6m5IkHWrkkb1Cuy8LN7qH1M3OztnDTI81FuJ64O165Tqfra2ZuxomHBcVlamdSq+HmyvilwvXs4izletX5KuE6uTAR4WZNINyEEEInEeGmY0G4Cav8vJXvXgl/ioukNS/aJ/sKWPbAvsp9nA3yl9Y4SoSb+kS4CVURbgK9rIjQ7kdJy9L37BdPUV8SM5/3YCxmhzbc2ZIRy1sNzAqaKrSry9JT88VZmxsT1/IejPkmi6eckzvztvNWA6N9hwrtFOLRsvSIrCDhesA2H96DsfWx2sNTSiqKeevzQbhpoKGFm2fOV2n2o6Rl6RRg9gowzdqkAJ1mRhL0XX7k/q7Qp8fm+pm5mbtP/J0iXWM2KTNKP/Iwzdrs7N1auU/i8tVLmu9yirc4czM5W/ydImlZ+uVrl9gHrqb3q19AV+VfWhDHTx8T6kksS68ZhJsQQugkItx0LAg34YWIUOW739W/t8OCsge7c1hWv17KfVyOiZTWOEqEm/pEuAlVEW4Cvbgmag/xKTi0lw0K7mX8Mx1GcvbiWd6DscBkP6Ge3LFX3BtzRYx2L8+DpytZV7/2xj9/4PqGcoiKyqZocc9BsrhC3BtzVri4lyd55koVa+PVzPjnFu7vs0ePH/EejC0OmS/UkyfPnOStzwfhpoGGFm7evH1T83NOix7HUgrEWZvrEz7lPRh78uQJe2+TeML6MJ/6OVBo/5FyTb+NyauZe4Y4azNuVzTvwdjJqhOafUUXhYkhZE6xuH0EGZDpzVYmi7M2txeaDv0qPVAitJEbYkzPCYgg3IQQQicR4aZjQbgJr6ckGb//O9szpDUv2lvpacZ7uFn932U1jhLhpj4RbkJVhJtAL1HbwzUhx/Kd4gEkC6Jm8WoDm5LXCe2kZbjjleymqbEcd+2WlbzawNK4BUI7ee7SOd5qYE3sCk2N5bg+aZ682sD0qElCO3n/4X3e+nwQbhpoaOEmzUJstNF0Cjg5KKIX6xFq2vaAAnTat1Llxq3rQj05J2oab9WHreHmxSsXNEHl9OQJrKmnadZmB6+WxlmbRPHBfUI96ZHiwlsNHDpxULM8f07aNNbY7Q3jn3v7dWL/+te/eA/GdhRtF+rJsO3BvBVYgnATQgidRISbjgXhJryfu8v4/V/ZEiutedFeio403sPDvbulNY4S4aY+EW5CVYSbQC95pXs0IYd5AEN7Wp4+d5pXG5gWMkGof2fjK+zajWu81UDq7hShhjQft7HL65o+w/0HCvUU/Kn7ZqqEZ4QINaT5uB+5vcsePnrIqw308u4s1NPBLdaAcNNAQws3CfNT90nL8HBN3HJeaaDkoHbG4uY4w36cerE13Hz06JFysJF5P8v7jdxh2CtTZcsu8cR3MnGXYT9OFZr9TL+n5jWW427NS+PVBvzTfIV2MrtoF28FliDchBBCJxHhpmNBuAlpn01akk7f/9lAP2nNi7bK10v5/F0D+rBn5aXSGkeJcFOfCDehKsJNoJer168o4aRl0KE6O1w7q80yUGrj3pT95z//4a0GTp09qZlNZu6qmKW80gDNKmvt/aFQ0927g3KyszmlB0uFGkvdkzbzSgMUKJmfQk0ODejHW/WBcNNAQww3p4VO1PRVpWd79fpVXmkgTBKOZ+wVD616HraGm0RvHzFoN7edZzPlYCxzVkaLS8sptDx66ghvNdHWw7Qtg6XdvT9hX3zxBa80MDtsmlBD7wu9N0AOwk0IIXQSEW46FoSbkMJER4dSR9Z/qnz+3jEjlJBMVuMoEW7qE+EmVEW4CfRC4WEnz9ZC0KFKoeeJMyd4pQE6Md0yOJsaPIG3mqBxW3g0EupUKXS6fO0yrzRw5NRhTd3iCNMhRiq0ZyItNbasJWlW3IOHD3ilgYKKfE3dxi3reKs+EG4aaIjhZmi6eJCUuStitM9yYuhooYZOIrecQfw86hJurojWHuClGrpN+yy7+ZoORiKbu76nCSqJmSHavWhVk3PFZ0m/m5b/IqGDR0vjYUNAC8JNCCF0EhFuOhaEm5AsmjpR+f4rly2Str9o9y+ap3w+hSKydkeKcFOfCDehKsJNYA1rtmj3sSRnhE7mFSbctm7W1CXVEETNi5qpqSWXRS3iFSZWJmpDn5ySbN4qMjF0lKaW3JygXV48K0Yb+uw/Ws5b9YFw00BDDDcvXNbuY0k22vSqZibitZvXNIcJDQjoqZkd/DzqEm7mlWu3gSBbe3zInj59yqsMlB8t05wGPytK/t5tzUsV6lS7erVVTo83J7dce2r7ii11f+++zCDchBBCJxHhpmNBuAnJiiULle+/aOokafuLtmDiOOXzD6xYKm13pAg39YlwE6oi3ATWcPjUIU0YRoFR5dFKXmGg6mIVa+Iq7hnYzPUdzWxJlcKD2tDq7Y2vsDPnz/AKA4dPH9KETrTM1vxgFXMy9m0Taknqf+u26eR1ovBgvvJ55nVdvdtpltA/D4SbBhpiuEkMjeqn6T83dAZvNUDf+cwtkzV1lntc6qEu4ebnn3/OOvi10PT3THLjFQZoefqg4N5CDW3zkFe2h1eIPHn6hDX3eFeoJyMyw3iFgUePH7HuvqYDl0gKUCuP6rv/lxWEmxBC6CQi3HQsCDchedx1k/L97x4xhD0rK5HWvCiflhaznKEDlc8/6ekmrXGkCDf1iXATqiLcBNYyIWyEEHiQIwIHsYy8bazsYKkSYrX0eF9TszlhPR9BzqCgXpo+44JHsp0F21npgRLmn+7DmlocskIGpvvxEbTQTLTufmJAQ04Pm6gcilJyoJh5prpJl68nZMfxUbRcvXaVjfYbqnGk32DNDLrmro00dbQ0WMapqpOaWnKYb3/NrMPWrh9q6haHz+Mjiew/WK6pJQf79BHGJNu7N9fUfRq9io8ksrckT1NL9vfuoRm3k0drTZ17vHiat0rmngxNLdnbq4tm3K6e7TR1gan+fCSR3WXamYgfubzL/Lf6KO/Crn1ZbGzwME1NG/cmyp6sNRGaGqy5B7KzexvNWP18umnq0nJS+Ugi4TuCNf3buX/EorZHKL9rNAuzv183TU1f3261BvMeaS6aPl282rAtWTHKuLQ8vYdFsEmOChhi9ezVlw2EmxBC6CQi3HQsCDcheSE8RPn+s/r1qvew7P7ubOVz6fMvRUdIaxwpwk19ItyEqgg3gbVUnT9d416WNdnBq6XmZHJLDpyo1Jzk/Dx7+XXSHKxiSX5FnrJfoqx/TQ4J6qscXFQTp6pOSfvptfmmRnwkkdIK7Qnd1thpU2s+ksiOPdul9Xod4NqTjyQSty1WWq/XcZ4j+Egi/vHaE7qtcY7/dD6SCAVz0yPHSvvUJIXKqXuT+QhyFvrPk/bVq0ecOBtThWZvDgzqKu1TkzQDufxIGR9BDu1H29X/Y2n/mmy8+XV2vOoYHwHUBMJNCGG9W3DgIkvJKmVHLjyRtkO5CDcdC8JNSNL3rr4DN1KTpTUvymuJ8cbPvrMjU1rjSBFu6hPhJlRFuAlsYdverbWenG5uU6932KETB3nP2onJitIsk67JVr4fsNPnTvOetUOzPi1nVNbkJwEt2KWrl3hPOQg3DThbuEncvXeX9fKu+SRyc2l596dJK587W/FFhZvEuYvnWBu3ptJ+ltI7HpYVwnvWDm0dQIcOycax9J1Nr7CkPQm8J6gNhJsQOpEUBq5zC2ZrXAI0rvcIZaeu/0varyG5zj2Yffe732P/7//9P9aqXSd28toX0jqoFeGmY0G4CcnHhfls14A+yjtwNshfWvOirPLzVj6XPv9pSZG0xpEi3NQnwk2oinDzy0N9n2BMe/p18NLuCWjugMCe7PiZ47yHPjILMlgbz5rDHAqcRgQPZOcuneU9ng+FU0m5CayFu/xUdpJm6E0IHcmuXL/Ce9UMwk0DzhhuEhRwzgyfXGvg3cT1TRaaGaxr39UXGW4SF69cYCMCBinvvqw/2cq9MUvfm8Z76OPUuVNsoJ+4X6el7Tw/qvHALqAF4aYDPHXtC7aj4Chz9YtmSz91Z6s2+rKQuExWduKWtB5C1fiMAiUUlPn6m+9K+zQkD5x9wH7ys18Y7/kHP/wRO3rpqbQWakW46VgQbkLys/1lbO/YUco7cGjNSmnNi5IOEaLPLZgwVgnIZDWOFOGmPhFuQlWEm18eHj9+zEaPHs3KympfkmpPnj59ypJzk9jcyOmsr3s31nVjOzbIqxdbEjmf7S7LZl988QWvtA46zGRLViybFTGF9XHrqow72LsPWxG9mBVW5tsc5N67f0/Zr3B6+ETW27WLMu5Qn35sdexyVnqoWPcBQvSsU3Ym2ez23Zl8JJE7d+5I6/Wanb+LjyRy7fo1ab1e9xbn8ZFELly6IK3X677yIj6SyOkzp6X1eqU9Rp8HBd4Hjx9kG+I/ZSP8BrJum9qzni4d2ZTQsSwkI4DduHWDVz6fysOV0vvQ68nTJ/hINUPvZlFlIVsZu6T6d6Gv8u7S78aMsMksbld0jYd1PQ/afmFP2W62LGZh9e9ub+O4s8KmsuTdCcoSdqAfhJv1KM2q849MY2+83Yh97WtfF4Ip8vs/+CEbM3kOO3T+kbQ/hLMWrdG8N6qjJsyU9mlIVpy+y374o/8x3nOvAcPZaSeYbdpQRLjpWBBuQtX9i+Yr70B9n5heMMlwUnpDCg/NRbipT4SbUBXh5peL1atXs2984xuse/furLz8+QEPAAAA+4Fws56kpbcUPn31q18VAimZjZu2ZBVV96TjwJfbrMJjLCZ1t9Hf/eFPxveGgnNZn4ZmQNRW1q33IDZnyVp2+MJjaQ2Ui3DTNg4cOMBCQkLYrVu3+BXbQLgJVemkcnoHcgb3Z0+K62d5+OOiApY9qJ/yuVW+XtIaR4twU58IN6Eqws0vF/fu3WM///nPlX8up5CzR48ebP/+/bwVAADAiwThZj25YMUmYwj1la98hX3Uqh1bvNqVbfaJUGbj/e0fbxjbm7VsyypO3ZGOA6Fq6fGb7Dvf+a7yznzt619n5SdvS+vqS9pWYfVmP0VZO6y7CDdtg5a+9O7dm337299mHTp0UILOu3fv8lb9INyEqteSEkzvQUb9vAc30pKNn0n/XVbjaBFu6hPhJlRFuPnlg2Zvqv+fTvln9K99TQk5KysreQUAAIAXAcLNepCW4v7gBz9S/oKjYHPlBh9NzfErn7NBIyawPgNHsqOXnmnaDf6L7S4/wzZ4hiqz3lZs8GYZeYdqPERm/+k7LCGzSLHo0GWlLmPPQWWPz9mLP2WbvCNY+Un5Pp/Hr3zGknYUG/vXJNXUdCDM8cufsdi0PWzZWg/lfum+8w9ckNaS5adua8Y/cOa+0kana2/0CmOzFq5RQuGQuO3s8Hn7zPqj50LBYFj8TuW7oWezaJVL9Z931Lof5J7q70K9T5qBSN9bZFK20nfe0vUsKGab8gxkfUnqE7+tQDkgaO6SdWzesg3MKzie7a9+DrJ6S4NjMoz/4PSaFftt0s+bVXRcOdiHvpfl6zxZ8s4SXQf7FB2+wtz8Y6qf0Vo2ZfZSNmbSbNaz31D25jvvs29845vKvXTtNVDoszVnv/CdqiZuL2Inrn4u1NYkvY9x6fls+XovNnvRp8o7nJ5bWeO7/2UV4abtPHjwgP35z382/u/wt771LdaxY0cWGhqq7LGkB4SbUPVRwV7joUIUCMlq7O0pLw/l87IH9mVP9hVKaxwtwk19ItyEqgg3v3zQ7M1f/MK0v7wqrd7r2bOnspoEAACA/UG4WQ/6hqcY/2L7v9/8rsZAh4KamsIaCtLad+qpWdb+la98lfUeOIIdvagN4SgEVOs6du3D/vH620Jf8ue/+BXLLj6p6Zu0Y58SAFjWW/rnv/6dnbz6T6HvqetfKIcl/eZ3f9TU0xKNGfNXSX/OecvWC7X0syZkFrKhoycbgzPV733v+0p4azmGteaWVbFGHzZnX//6N4TxVX//p7+wjLyD0r7NW7VXar761a+xwSMnsp//8n81/Zu2aKMJq+l5fdKlN/tu9c9gWU/+8Ic/VkJO8z4yx06ea+wzUud+m9vzj1TfU1vpd9usZbsaD7UqOHiJ9eg7RPM9yKRx1H4Hzz1k3/imvM///vq37FiNQb5B+l1Zs9lf+b3RjvEV1uSj1mx32Rlp3y+jCDfrBm3y/53vfEfzLtGMzk6dOrGwsLBag06Em9BoRTkrnDxeeQ9o/01pjZ0tmzdb+TwKEGXtDUGEm/pEuAlVEW5+OVmzpuY98mkmZ69evTCTEwAA7AzCzXpwxXpv419oNIOzprCsJmO35rGf/PRnwl+Mlk6ft0LTr13H7tJay2Br+Nhpmr7zl28Qamqy/5AxQr8TV/+p7C1aWzBKba6+0UI/smWbjkIdhYb/+3+/Fa6p9uo/XNPfFunU+uftg0qzEunnMu936NxD9uMf/0RTSz+b5c8eumW70Jf86c8M+/HU5Pe//wO278hVTT9z33q3sbHePyJVWmMuncj/vepxzT/H0k8696quFYPnbXsOCN8DPa9vf+c7yj+cqde++c1vsvade7KxU+ayiMRdxr40G1atsbRT937C51h66OxD9kmXXtK+5r7+1nu1zpD9Molws+54eHjU+r9PFH526dKFRUREsNu3b/NeBhBuQnOPrP9UeQ9yhw9mz8pKpDX2koKm3KEDlc873oDCMEsRbuoT4SZURbj55YRmb/7yl7+U/nOG6te//nVlyxwKOWn7HAAAAHUD4WY9GJ26W/jL7Lvf+x4bMHQsi88oZMeeE8pk7j3EfmQWojVt3oZ5Bm1hkck5rFufwcbrv/7N74UZgjTuT39mWhJBgVTr9l1Z6JYd1WMeZq3amoLEdh17CJ9J0pLlQSMmCvYdNMq4xyP581/+Srk/835zl5pmX377299RTn+ng29oifbfXjXtK/rO+02EfqRncLwyS4/+slfryK9U3zvNrvzr314zXvOPfH6Yp8fS4zfY7//4Z+Vno+Xh9FwpkBswbLzp87/yFVZ89LrQj2aUqu0kPRcKdWmZfkpWKfvJT03h5erqn8m8L/lB05ZKkLj0U3flO4lKyVWWsn/zW9829vMJS9L0U6X7/u53v6fU0cn7z9tvc9vuA8Zgk34e+v7pAKK49L3KVgjqZ9J7srfStHVAZdU99sc/v2Jsb92+C0vdVabs97k1t8IYetIMYnrPzT+TpCXptC2BqvlYtK2CZb0qLUOn2a1q7be+/W1ldmxQ9DYWHJvJRk+cpcx8/cnPfq48b9kYX0bNw80pLjksMTERWumWLVvYn/5kOoirNr9X/b/VXbt2ZZGRkUrQiXATmnslPtb4LtxMT5PW2MvrKUnGz7qenCCtaQgi3NQnwk2oah5uJgzoI/17CzqntPWN7J8tLKVVbRRy4uAhAACoGwg360Hay5CCLO1faF9hf/rL39iC5ZuMe0uaS/s9vvXuB8b6EeOmCzMIafbgz35h+LeCFEqVHDMFcOm5FcZ+3/rWt9kalwBhT8UhoyYZ2yk0Uq/XJC0fpmXJah9azk7BlXnNjoIjSghF7bTM2ztUDOeCY017RP7wR/8jDXYpHDSfVUXjfeoSqPzcf3/1TeXaD374I3bw7ANNX1uk5fGyWX/FR66xb37rW8rnUbhacuyG0E77cqr3+Ovf/p4lmwVsNObv/mDY248MjEoX+pLHLsuXY5sfLOUbniytIc2fJe23WdN2BiTt5/r2e6b3iLYxMH+PaO9P8zA2qHpstW3hys3G6zSD9YjF6ebtzd7rpZ96CG2WHrn4hP3iV/+n1NJ3vD3/sLSOXL7Oyzgufd+y4JTe8Zcp2CTNw81Jm7KNzwi+eH/wgx+wj958g819/z0W37Wj8n9EEW6+3Cqnlw/ur7wLx103SWvs5dGN60yhUz2dzm6LCDf1iXATqpqHm9GdP5H+/QNfDtWQs6Kigv+/aQAAANaAcLOepABp/LT5ynJj2V9oNKMtu/iU0MfFN8rY/tob72gCMQq0KByldsPswmvGtiWr3Yx9O3brI/QjP2jWyti+2SdS024uhX89+g011v/s579kqbvKNXXdeptmknbrPUgTuFEftf37P/ghO3T+kdBO0qE6ag2FihTK0vXCg5eMwWmHrr01/eoqhX20DDyn5JSyVN07JNF4H7/5/R+VmYTm9c0/Nv0D6Hr3EKHtwNn7ymxKaqNgufDgZaFdlZ4P7XG5u6yK7az+zLTscvbj/zHM0qXvk/YDlfUjx02ZZ/z8keNnSGtUfcOSjYExLYenA64sa373B9NMNp/qerpG9/feBx8Zr9NsXvM+tLfqn1/5h7HdOzRRaLd02+5K9v/4fdB+m7J9Ysn9p+6wn/3iV8Zx1XcAItxsKP70O99mMxu9g3ATsrL5c5RQomDCWCWwktXU1c/2l7G940Ypn7N/8QJpTUMR4aY+EW5CVYSb0NLvfve7LCoqiv8/agAAAHpBuFnP0qnfdEL1q2+8o9nr8b3GTY2BIP1nI7NgiZZk0ynU5nbu0V9Z+k3ttHSdZnKqn9OuUw9jX9rzU71OUtBK4SK1fe3rX2d7ys8K7eZSqEenYatj/fTnv5DOlis/cUsJ8qiGfi46DduyhpZBq+P88le/Nv6s5rZq28lYQ6GsWkOz/nbtO65YduKmpp+tpmXvV7YI+O3v/2h4ljx8M5eCWvM+hy88Yj/60f8obfT8skvEUDoswbTPJM02PW3xc9I7MHnmYmWWJi0VpyXdar0qzfw8caXmk8TNZ2L6PWe/TfNnSqebW7ZTyGy+9cGWbfnKdfruaVaqep2W7Jv3C43fYQxNf/Q/P6nxMCLVpWvcjWN17NZXWkOucfE31v32939SvntZ3csowk3H+eMf/5h9/PbbbH7jRiyhWyfl/4gi3ITnQoOMwcSdnZnSmrp6K2Or8TMuRoZJaxqKCDf1iXATqiLchKq0LRedpo7l6QAAYBsINx0kzRRM3F6kLPVV/1KjA1ry9p9T2ul0avP9F5/nex80MwaBtPz8f35iOICIDuWxPMCI9llUQyk6DVwWMpK0nLln/2HGz6Cly8lZJdJat4BYYx0FYtTXsmbyrMXGmhatO2jaaRm+ekgP3ff2vTUvW66r9PwnTl+oHISj3lNNWs4cpOBWbfvdH7Uh5MQZi4ztw8ZMEdrcq5+TeZBYkxQom/czV9lvk5+0TktYaP9LWR1JsyC//31DkE3GZxRoatJzK41BO804pT50nd4L820RKJDMLT3Nig5dVr5v8z1d5yxeqxnXUjpwSK23DNzNNQ9jaR9TWc3LKvbcrLvW7Ln5ox/9iPXp00fpQ4cDYM9NaOmjgr0se1A/5X04tmmdtKauHlm3WhmfAidaCi+raSgi3NQnwk2oij03v7zq3XOTQs0ePXqwsrIyHCwEAAB1AOGmgzUPlug/swqPK9fpAB7zv/R+9OP/qVVazm0cc/cBY1+aIWm5p+TMhauN7X0HjxbaVCmc7DVguLHuxz/5KUvaWSytJWk/ULW2S8/+0hrzIHf+8o2advP9NmnZck2hqz2cvWiN8bMoSKXZmZt9IpSTvunZq4f1UM2ufSeEvhTkqT9Hr/7DhDbyvcbNjO20vF29TmN/85uGfTzJxk1asFUbfZUDhaJTctnfX3vL2Ga5BNxcOvVcrTPst2naS9VSmoWp1tIJ57L9Rc23AqAZoebPne5DfU7k17/xDeNepKp0cr0szDaXgutf/PJ/lXrabiAzTzyIylh30VRH0pJ6Wd3Lqnm4idPSbeN5p6V///vfV2ZOxMXFsfv37/NeBhBuQpkVSxYo70PusEF2PzX9SXERyxliOCX9wIol0pqGJMJNfSLchKrm4SZOS//yoOe0dJrUos7URKgJAAB1B+Gmg6WlvupS6O997/vGA1tWbfIz/uVHJ1RTOFSb5ocFLVljvt+mdvlvs5Ztje2bfCI07RRU9R4wwlhD4SkFj5Z15rbt0N1YP23uck07zR6lv8Sp/Rvf/CbbU35GUzPfLGTr3mewpt1eFh+5yr7/gx8ZP2vlBh+hnX5Wte03v/ujZq/TFq3N9tv0EPfbpIOO1OX5FGQWHjLst0nfz1vvNDb2o5/P/FAf6vfj//mp0kbhH+39qbZZOm6qab9NCpVlNaq0n6pa+8rfX9e003f9j9dNoSq9O+btc5eYTr+3lJaMr3ULqv7ZTD9HTW7bYwrcf/V/v1HeWVkd7Qeqvifk1pwKad3LKsLNukGzIr7zHcNWHubSte7du7Po6GhNoGkOwk0o81pSgvGdOB8WLK2x1bNB/oax+/ZkN9JSpDUNSYSb+kS4CVURbn45WbNmjeafNVRpMgvN1ESoCQAA9gXh5gs0t7RK2c+xpj0DKVii5dnqX3YdupoO/lltFm5+0LSldBYj7YloHmqq1rb899C5R+yHP/yx0kZ/ue6tMCyDV6V76jPQFGzSSdXPCzbJVm1MSy9mLVwjtNG9t+toCj+79RH3sFRt1a6zsWata6C0xh6aH9T0m9/+QfmZzdtnLTL9A0m3XuK9UihHz4TaaEZtdvFJoT08IcvYl/bUVK/T4UBUr7bRIULm/WK35hnb6HAfywOMzH2n0YfGWr/wFGmNKh12pNa++vrbmnaarUqn9lM7LTM3P2woLWd/9T1/Q2l77c33lBPLPYO2KAcOUVh90iycfZ50krp6Hx3N3nNLLcNNep6yOto3Vnb9yy7CTdt58OAB+/Of/6y8VzRz89vf/jbr0qULi4yMrDXQNAfhJpRJB/4UThqvvBP540ezz8pLpXXWSrNA88aMUMbdN22SEojJ6hqSCDf1iXATqiLc/PJBszZ/8QvT1k2qaqiJ09ABAODFgHDzBZm8s5j9nC+vpaW+tL8mLQmmMJKCq+SdJaz5x+2Nf+HR3o80u03tH5WSa2z7xje+yUK3bGenqvtSUEgHB1Fo9fs//kVZ0mz+uRQ4/eSn6n6btPzXcr/NfOOSTNov0ryN7qvPoJHGz6UZiLSsmvb/tJRCUvO+A4aNM/ajn/cgP9zo4NmHbPjYacbPpP0m91aeF/pSuEgzF//nJ4aZi+TOwmPKdVl4W1dnLlhl/JzX33rPuKybvh+aMfud73zX2E4hs3lf+h7Vtt/9/k+agG+S2X6bQ0eb9tuMSd1tvE4hpxoi0mdHJmWz//vN74zttc1ape9e/X5JOtmdrtN3R/tpWp5AH5FoClvpPVLfMZpt6ROWxL7/A8Pp/fT9WJ76Pn3eCmNfetfoOx44fLzi6ImzlFmh9L2Z91Gl745mvKq272QK3Gl2qHrdMsQ9Vv0d/OZ3fzDWNm3eRjmoSP29iU3bwz5u15m17dhd6PeyiHDTNmhmRO/evZVAs1OnTiw8PFz5Px/WgnAT1uTFqHDje3E+NEhaY61nA/2MY16OjZbWNDQRbuoT4SZURbj55WP1atP2XyT9S3taHYJQEwAAXiwIN1+Qvc1mP6pSsEenYJuHeCT9pbfWNUjoTzPTfl9dq9ZQUPmXV/6hzL6jE7bV681atRNmddIenmqQSHsXmi99JmeZ77c5aJTQNnfJOmNbbdL9Wp6YHhSTLtTQZ7/93ofGpdYkLdOm/SzN+6XuKmc//dnPeZ3hvkk6vOgn1dcXrXIR6u0h7SOpfg5tCUAzY2k2ofnJ4KptO3RTDvBR+84xe0Y9+0n22/zAtN+mV0iC8TqFteYzEl/5+2vKafevvvG25oT2v/3jdZa+u1IYV/XIhSfCnpQ/+8WvlICWTrGnU9e354uHMB04c5/9vLpGracT4d96t7ESVqrX6PMHjZigCZLXbDadWl6Tv/7N79jWXHHpOAWnf/rL35SQWJXeX7UP7dmpXv+wWSvh/SXNl92T3/nu99gf//xK9TtiOoiJAuLUXWVCv5dBhJu2ceDAARYSEsJu377Nr9gGwk1YkzR7s2CyYfbm7uGD2ePCfGmdXh8V5Bn32lRmbVaPL6traCLc1CfCTaiKcPPLBf2L05///OfGf1alULO8vJy3vlj+85//sH/9619Os9T93//+t1Pd74tCfQ72hsaksZ0BegdexP2+qHFfFOr90u8ysA2Emy9IWoreb8hoIdCSSYGaf2SqdAya0fcDs70hLf35L3/FVmzwEUKppWvcje2y/TY/atnO2L7JW9xv8/0PPzK21ebbjT7QBGEUUHXtNVBaT/7yf3/NwuJ3Cn3IBcs3SutJCmlpKbRln7q6/+RtITg2l04f/8vfXjX++dU33hH2hzTfRsByv83KqnvsO981zPqkg3f2Hb5ibKPn1a5TD2Nfc+nnpCXsaij9/R/8ULNs3dxxU+ZqxlANixdn8pJu/jHKPqeyegoaJ89aojnxnaSAvUOX3sIhSDL//upbQoieVXScfc1sCX5tjq3+Wcw/k6Tn2KiWd5GebZeeA1iR2fN9WUS46VgQbsLavJ6SpOyNSe9G5bJF7HMbl5FT8LV/0XxlnKx+vdjNranSuoaoGm5WLF3EnpUVNwgvmc2qbYjh5tGN66T37QhP+3gp94Rws/5EuPnlgmZt0v+XoFCT9vl+0dy9d5cFbw1kYwOGsa4BbVg732asm187NjV0PEvMTWDPnj3jlbZTWJnP5sfMYvOiZyp6bXfnLdZz5dpl5pnoxkb4D2Kd/D9m7X0/Yj19O7A5kdPZzqLt7IsvvuCVtkGhUHpBmvFeyZjcKN5qOxSOJeTGCeOm5ifxVus5cvIIWxOzgg3w68U6+LVgn/g1Z319urIVsUtY+RHbTs2nPpVHK9iKqCWsv18PZUwae4BPd7Zmywp26OQhXmk7T548Yd7pHsJz2H/Utvecnune8jy2IHw26+3XWXkXOvq3YoN9+zCX5A3s7MWzvNI6KBzcVZTF5oROZ738Oynj0rs2zLcf80h1ZZeuXuSVtnPtxjW2Jmm58Bxu3bnFW63js88+Y8k5SWxq8ATWI6CD8jvcJaA1G+U/hAVlBrA7d+/wSqAHhJsv1H8pp1XTct5/vPYW+9nPf6nsa0iz0Cg02uAZVuOyXtUdBUeUkJT6UF8KQ+mAoTWbA4T9EVWXr/Ninbr3U/SPTBPaKIDqP3SssZ2Wl6ttdEo1nZyuttWm5biqtKSYDud59/2mymxBWpZPJ4fPXbpOWVos60NLlGWfQXbvM+S5z8dWd5efUU75pudJz/Wvf3uVDR4xUZkNeKD6M2nZNS2PjkrOFfr148+IZl3mWexXumvfSdaZ3/vQ0ZOFNvLAmQds4vSF7M9//bsyW/W3v/9jdX1/Fhi9VXl2tD8q3QfNoLXsay4t56bDl175x+vKvdOS9pZtOir9K6ruSfvEpO1R9mL9v1//jv+8r7HBIydKZ4gePv9Yma1KUsCZX3mBpVQ/Fzotn6TAediYKcawkcJP83eJlsebf4+1Scv8zT9blZbX07tBM2Fppir97rzxdiM2ZtJsZXayrM/LIMJNx4JwEz7PQ2tWGN6Pvj1Zla+XtOZ5nvJ0M75jR9avkdY0VNVwM3tgX5Y7bHCDkII69Xk2xHCzQT2rwf2Ve0K4WX8i3Pzy8PjxYzZ69Oh6CTWJtL2p7COX99hr6/5Qo519PmZlh0t5D+ugsGZB1Gz25vo/C2P2D+7BK/RDoWPQNn/2/qbXhLEsHeDfg50+f5r3so7zl8+x8cEj2Ovr/iiMOTtyKq+wjRNnTrDhAQOEMcmVcUt4hX6ePn3KlkQtYG9t+ItmPNU31v+JzYiYxO4/0LcfPPHw0UM2O3ya0lc2Jknf46KYuUpAaQt7ynezzl5tNOOm7E7kFfq5euMqGxkwWDOWue9u+htzTd1oVeB97uJZNsivt3Q81fddXmP+GT42zeak4DQ6O7L69+5dzbjnLp3jVfqpOLqfdfVsqxnL3I/c3mXJe6x/xi8rCDfrUZq9Z7lM3BpPXP1cs4S3oUo/q7qXZUOWnqds1iJpmJ36Yp635SFGqnQ/lrNia7OmcWq2+ud9zjs4cvwMJbAkfWs4sGhH/hHjTNMf/ujHLyyEJpXvqA6/N18mEW46FoSb8Hk+KS5iBRPHKe8Hzbo8GxSgfwZndd0Zfx+lH/UvmjLB6QImNdxsqDbEcLMhinCz/kS4+eWhPpe+xuREaULHmqQwZ9+BIt7z+SizFHO2sFYejaXjWRtu0ozCjanrNKFjTdLnWhNw/vOf/2T+W33YB65vSMezNdykINIteTNrtPlV6bjWhpuff/45Gxc5QjqWzAEB1X9nPXrIe9cMheqDQ/pIx5A5MniQMltQLzdu3WBzI6fX+L5ZG27SrMeOvh9Lx5K5MHaOrt+tsxfPsDZeTaVjyFybuNKqGbLHqo6yIf59pWOR1oabZUdKa3xnLaVnH5EVynuC2kC4CSEUpH1G1VmZtD+p+aE/dFDUlvR89uY7jY01PfsNFfrDFyfCTceCcBPq8X7OLrZn5FDlHcnq25Md2fCpEnrKalWf7Ctkh9euVuqpHwVfD3bnSGsbsudCg5SZpw3V530P9SWFm2cCfKX32BA87ePJntnp1H9Yuwg3gbUcPnmIvbfx79IQpCY/dvuA3b77/H3HT587xUYFDak1iLQ23NxRlKk7iFXt7d1ZCQOfR9mhUtbHr4t0DFVbws29ZXmsq0976Xiq1oabtNRaNk5tzo+dxXvXzPK4RdK+tflpykreu2YoUNySHcuau9Y+O9iacJNm8I4OHSodpybpXYzMCeMjyKGAe0BAT2n/mqRxtxam8hFqhma6bkpY/9zfOWvCTZqV28ZTfxBLvrvxb6z8WP3s3+vMINyEEAr2HjDcGFzSnrF0aBHtUfqb3/5BORRLnbFJ0tL9ggMXpeNA+4tw07Eg3IR6vbszk+0dO9L4ruSNGs5Oe3tUX9+uzIijcIv+886OTHbKy80YhpL540eze7t2SseFEH65RLgJrIFmmg3z76cJPvoFdGN5ZbvZxasX2e7SXDZUMsNsVfwyPooWmslH+xE2dpXPUjTXmnCT9vzs6NlKM8bYkGGs9HAJu3DlAsvIT2fdvLRBYvjOmmeq3bt/j63Yspi9vfEVTT9LrQk3b92+xRbEzNIVxloTbp69cJa9t0kMx2gJ+fLqn+FY1TF25kIVi9oZwT7aLC53puXr+4/WHGgdOFapeQbUZ33SGnby7Al2+vwpFpwRwD7cLM4QpD5VtcyOPVF1nI0I6i/0qUlrwk36ri3708xY/20+7MzFM+zo6SPMNWWT5mdq4d5I2V+2JqJ3Rgr1ZBO3N1n4jhB27vI55V8IfBq/UrMdQDuvj2rdlza3JId18dE3y9SacHPtllWa/hR2Jlc/S/qdKD9SruxDa1kzOKgPDht6Dgg3IYSCtO8oHWqkBpgy6fRz2vs1r+K8dAz4YkS46VgQbkJrfJSfx/YvnGc8ZIikmZm0r2Hu0IEsu/o/1ZmaitX/vWLJQvaoYK90PAjhl0+Em8Aayg+XaYK3bt7t2YOHD3iFgfjsOKGG/MDlDensTZqZ1jvwE009SbPbLAMha8LN5NxEoS85JmiIZh/FTYlrNXXtfZorexxacuHyBdauhuXH9Gws953UG27SsuOW7o2Evqr0DCxns1oTbi6PWSz0JTcnr+OtJkYFa/ehnBI+nrdqmRk2WVMfmOnHWw3QDMx+AV01dYti5vEKkfSCVNZo0z809aQsTLYm3OwX0F3oS99XZlEGbzVAQXsLT+33QAGoDHpHuviIe4G+teGvrKAyn1cYuH3nthJ4mteRcdkxvEJkc9qnNYbcsuegN9yk39UmruJ9NHF5k506d4pXGDhx5rjmXaY/F1UW8gogA+EmhFDj7rIzbOqcpcpBRa+98Q575e+vKwf6tOvYg81YsIpt23PAafZ//TKJcNOxINyE1kozNK8mxLGS2dPFINNM2mOzdM5Mdi0pXqmXjQMh/HKKcBNYw7JEcQkyBW500Is5FBx282kn1KlG74jkVSIzIrUhWRe/liy7dBfr5i8Gn9aEmyMjxLCOQiGapWgOzcijQ1PM61QLKwp4lQn6+Qb4a5cg9w/swooOFbBm7u8I1/WGm7QMvouX9nCXYcF9WP7BvcrepebX9YabtGS6uUVo+olXC2VPT3P2HynXBKgkzWyUzVq89+Ae+9BFnJHZw7eDZn/K3JJs6bhN3d6WLv0/f+kca2wx05NCtfnR01hqUbJwndQbbp66cEpzH5PCRvNWE6GZQUKNai+fTtJZi6VHSjS1C2Jm81YT7imbNXXksIB+vEJk577tmnCRZt+6p25kLunaLQb0hpvxe7T/4sF7qwdvNUHvrWUduTByLq8AMhBuQghrlUJMBJkNQ4SbjgXhJrTZinLlMJvLsVHKfoYn3F1YlY8XuxwXzR7m5+k/dAhC+KUS4SbQCwU7HTxbCEFHe6+PNIFP6h5tAKU6MXQMrxK5duua8XATOqV6c/IG46na3b06CGPoDTfpMBzLw3iGBw3krSY8UlyFGnPXxq/iVSIVx/cbZ8/RbDwKxGgGH836szXcJPIq9xgDOFoKTXtOUlh45+4dm8PNkoPFQj9yY8Ja3mpiXFjNhw1t27uVV5nYWbRDU0cHK5lD78bgoJpPD5eFx4TXdndjTRevNqygwjALsnB/gdCf1BtuBmz11fTdWbidtxqgsLWmQ4FoFuWlqxd5pYmNCes0tcUH9/FWA7THZbMaAnSa5fno8SNeaYK2gJgYO9pYNypkMDt9zrCU3yfJUxiD1BtuTgubIPR7p/o9vnz1Em81QAdqyWaHku08P5LOaAYGEG5CCKGTiHDTsSDchBBCaE8RbgK9XLx8QQlizIOOObHTeasBmtXY008MI81t6dW4xmAkcKc/Gx41gJ06Ky6PtTXclAVhHumuvNUALdH9yF0eOpEDI3vySi3Lkhex6XGTlNO3VeoabhIz4iezBQlzlEBTpS7hpk+yNgjLq8jjrQYOHj8gnV2pujJpKa80sTZ2tabu0KmDvNVAXvluTY257hbfhwo9x96RnZWQk2aeqtQl3JwYNEbo12jzP9jNOzd5q4GIHaFCjaWp+Sm80sRgX3F/2SZub2lmxXqmugk1luZV7OGVIhRYdgz7mKXtTRFOVq9LuNna7UOhX1e/trzFxNyoGUKNuTSb9PyV87wSWIJwE0IInUSEm44F4SaEEEJ7inAT6CWnOFsTdPgnizP10vPThHaahWn+Z5oNdvnaZV4tYh7emGNruBm8NVDoR+7MF2fqead5CO2W90uzSWtCtkTZHuGm5bJuoi7h5swQcck/7d959fpV3mpgUrhphiDNULQMsYf69+eVJkYHiKeO0wxA81CPns/QYNPhUzSm5R6Sk4PH8WotsudQl3Czg3dLoV9b1494iwH67mgmstpu+S6Q67d8yqsNUJjf0vN9oaanRyfeaoBmEJsH6LJx/VLl+3kSsudga7h5/eZ15Xsy7zclUNxTtep8lXCPsvvdUSD+HgETCDchhNBJRLjpWBBuQgghtKcIN4FewraHaEKO9Lw03moIenr7dza2fej6BluZqD3IpuxwKe+hD1vDzVVblgn9yCOnDvNWxh4/ecyae7xnbOvo05JNCxeX7JJ37plmUD4Pe4SbMuoSbg4IFvcHpftTl/wTdJK3+d6OU6LGsk4erYU+nfw/FsJn+u+dfcVDdNr5NhNm5eZX7BXaF8fPZc03mZ432S+oG6/Wh63hJr2b720UT4sfEtiHtxqIzooQ2jenr9PseTkjYhKvNkDLzS1rJoaIWy/4bBUDdBrXcpbs8thFvFoftoabFccqNP0+jVvJWw3Qaf1qG92ny7b1Qj0ZvC2AVwNLEG5CCKGTiHDTsSDchBBCaE8RbgK9uCRoDzEpPGDaMzGzYJvQtiF5DQvdGixcIzPztvEe+rA13JwROknoR167aZqx6JfuJbTFZkeyFRFLhWvk8dPHeY/n0xDDzQ5+4oxF2lPSPKicEjHW2EazKw+dPMj6eYqnitNSa/PgkvamtJyx2COoI281hJ8jQgYY2+ggnLMXz7CO7h8Lfdq4N+U99GFruEkzFi1P3Z8cZZo1St+b+czOFh6N2M3bN1hjl9eFPkO8xcN/aA9M83ZyYdwc3ioL0D9WTtu3nA052X8s76EPW8PNXUVZmn6+27x5K2NnLpxRviu1bUTIQHZAEoiui17NewBLEG5CCKGTiHDTsSDchBBCaE8RbgK9LA/XzsKsOLRfaaPgq29gV+N1Ws5949Z1tmVnrFBPxmXEKH30Ymu4OdpniNCPgrs7dwyzMGnmIgVYahudHv7s2TO2IW6t0Ics3i8eDlMbDTHctLyfTza15C2MHT51WAj9JoUbZh0O9zcFkyTVmO99+fjxY03w19fVNAuz6ECh0Dafnx5OJ46bX2+8vuZl/zJsDTerzlVpZ2H6TuGtjMVmRwtt3ukeSoBrHkyS3Td14D0M7D9cLrSTy0NM34vfNm+hLXpXJLt3/57m2Q1zG8B76MPWcDNpV4KmX0hKEG9lbFHsPKGtoDKfnTxzUrhGLgqcx3sASxBuQgihk4hw07Eg3IQQQmhPEW4CvSwMnqsJOQ4dO6S07dy3Xbi+Jn6Zcj0pRxumxOyKUtr0Ymu4OdSzv9CPZsvdu3dPaQvI9BPaInaGKNddEzcK18nCSvmJ3jIaYrhpGaR1cTUdIDM90jS7lfbDrDhmCKtHB4r7aZLPPnumtBGPHj0SZviRA91781bGRoUONl6n5376nOGQqH7+3YQ+jTb9o8a9VmXYGm4eP3VcsxR8buAMpY2+s84+pmX49P3RPpkU5rbyaiz06RVgmp1K7KvYJ7STq8NXKG00a7OVp6k/7edJe5LSIVa0ZYN5nxFh2j1Na8PWcDM2Qwxxycj0cKWN+tMhS+r1IUG9le+GZnOa15OLY+cqfYAWhJsQQugkItx0LAg3IYQQ2lOEm0Avi4LFWV0khZt04En/wB7GaxTCXb56SemTlK0NN6NzIpU2vdgabg7zFGcf0kEqFG4+efqEtfYynRjd1quZ8SAc6dL7g84dbtIsWvN+arh5rOqocsCTen1s6HDlOjEqUJz1Sn72+We81RBumgdh5AD3Xkpb2eES4fqcqGnKdaKvn0W4WT2Go8PNxN1bhOseqS7KdVm42SNUDDeLK4qFdlINN4MsAvSwHYYAXRZuDo2un3AzLjNG008NN5dvWShc312Wq1ynA4bMr5MLExFu1gTCTQghdBIRbjoWhJsQQgjtKcJNoJcVEUs0IQctS88u3SlcMz8cJWZHlNBGbsmI5a36sDXcHOM7TOhHS6tpWXrITn/hekhmIO/B2PrYNUIbWVpZwlufT0MMNy2XVnfgy9Jnx0w0XqPgz/ygp6F+plPOSVrSb74snZb1WwZ0fVwMy9LHRQwyXqNA+XjVMeU60d37E6HPBxvqZ1n62fNnNCe107J0Wnrezc90MBLtLUrLxgn6Ls1POSd7bhZPQq88ot2PclnwYiVAb+P1gfFaG88mxkOcZN/lMLeBSptebA03k7MTNf1oWfrFqxfY+5tfNV4bENBDOe2eOH76mFBPLg6ar7QBLQg3IYTQSUS46VgQbkIIIbSnCDeBXtySNmtCjoLDe1m/INPhM402v6ocmKISmCzOXiN35m/nrfqwNdycFT5F6EdWXT6tBE3qnz/2/FA4OXxxyHyhnqQ9B/XSEMNNOuncvF87n6bs6LkjSvCoXhsVIv7u93QT98akkM/8QCEKOj82C+/I3iEdWOmxEmFvy+kRE3kPA21dPhL6tPVoxlv0YWu4eevOLWFvUXJq9FiWuDdeuLYpaT3vYQhwLZfeD/cR98Y8e/Gs0E4uiZ/LgrIChGtBGf68B2NXr11VwmLz9ikB43mrPmwNN3OKd2n6+W/3YksTxVmbWft28h6MlVSKM3HJjbFreSuwBOEmhBA6iQg3HQvCTQghhPYU4SbQS/SOCE3IsThT3IdzcbR40MjGZO0BPQeOV/JWfdgabn4au1LoR1reb0C6D682MC3KNJtRlZYR66UhhptDAvoI/SionJw0RrhWfMB0aBJtM9DBr4XQ3jWwrWb5eDfvdkJNO99mbGScadYmhYlHTh7m1YZAtKnb20KfgSE9eas+bA036WdqtNE0M5EcGNGTdQ1ua/xzE7c32e07t3kPxm7cuiHUk3Oip/NWA48eP9LMCB0dO5i18TUF6K08GgsB+omzJ4R6ctWWpbxVH7aGm4dOHNQsz5+ZNoW972p6t/r6dVGel8r2okyhngznS+yBFoSbEELoJCLcdCwINyGEENpThJtAL3vL8jQhh3lQQrPczl44y6sNTA0dL9TT4TLXblzjrfqwNdyMyAwV+pHm99vCvZEQOhE9LU7zpqDSGhpiuDk3fLrQz9LhQeJsRApzLT9rlI/2fxvGB48QaixDsymhY3mlgcvXLgt7fJLTAyfxVn3YGm4SXf1MQSZpeb/r49fwSgPFB7X7abrEbeStBmg2axtvU5BJWo7rl+bNqw3sKBQP3yKDUgN4qz5sDTcpvKXfQfN+lvebWbCNVxvwS/MR2smcomzeCixBuAkhhE4iwk3HgnATQgihPUW4CfRy7fpVYSmzpQsiZ/FKE518xCXRbd2bGffy04ut4Wb54TKhn6XeKR680sDDhw+V2XvmNcMCrDvopSGGm8Hp4hJpSwv25/NKA/uP7NfUrN/yKW814ZKgPVlelWYzHjx+gFcayCnO1tRZBn/Poy7h5ozQyZq+qnToEs3UNCc4PVBTl5mfwVtNjArQHr6k2tz9PU2A7ip5bvsOFPFWfdgabhLtPZtr+qr28u0kbD9AzAwRnxstqb9y7TJvBZYg3IQQQicR4aZjQbgJIYTQniLcBNbQxct0+Iq57278Gzt97jSvMnD+8nntIS4hk3mrfmwNN58+faoJK1U/cntXOfHbnLzyPZo6l/gNvFUfDTHcpJDRvJ+5g/37aJabe6S4aepy9u3irSb2lO7W1KlOCB7Jq0ys2bJCU1d+qIy36qMu4WZ4Roimr+rq2OW8ysS4EHFmKs06vX7zOm814ZHkKtSZ65XsxqtMDAzoLdTQjGd6b6yhLuHm7NBpmr6qW/ek8ioD9C8iLE+M7+jxsdX/guJlAuEmhBA6iQg3HQvCTQghhPYU4SawhnXxq4SgQ3V22DReYWJz2npNXWpeMm/Vj63hJjE5VNxbUtUjyYVXmJgeM0lTZ+3+oA0x3KT9E9t6NRP6qu4uyeVVBmhfzE5BrYUaOkGc9pa05PHjx8rMRPNakpY5Vxyt4FUGqLa1z4dC3ceeHwh7O+qhLuHmpauXhMOOVBtvfp1duXaFVxm4fP2yZvn2oKDemiCYOHzysGZpN9nU9R3Nfq3HzhzTHCY0LnwEb9VPXcLNbfnpmr5kN+/27IsvvuBVBrJKdmjqVsdrg2BgAuEmhBA6iQg3HQvCTQghhPYU4SawhmNnjmrCGZqdeeCYGAIeP3ucfegqzpps7vaeNCR7HnUJN3eWaPc3pJly5gfHELv352r2g+zh00EaZtVGQww3iY1p2oOdunt9ogkXfTK1odmCqDm8VcuSBO3p8oP8+vBWA/QM16Wu1tSti1/NK/RTl3CTGB49QNN/bthM3mqAlmVPjR2nqYveGckrROgZ9gntoqlfE7OCVxigd2NU+GBNXUa+uMelHuoSbtKM5hYejTT9IzPDeYWB+w/us64+4j6ldEjUwRMHeQWQgXATQgidRISbjgXhJoQQQnuKcBNYy+Tw0ULgQQ7y782SshOVQ4d8t3qzFpIZfW6Jm/gIcob49pP67oa/C+O8v/k1Tc0I/4GavQ0JmonW2188JIicGDKabctLZ3mle9jGxHWa4JBMzq05NLt85bLmHshBPn00S/E/cnlXUzc5SDxsR+XE6eOaWnKAT0/NrMOWro01dXNDxaBO5frNa8q+kub9KaReFrOQZRftYtn7drF5kTM0n0GzF49XHeejaKk6f5q9t/kfmj5r41ex3H05bGfhDjYtdIJmZmOjza9qZkuak56bpvnZyG4e7YVxyE4erTV1vknyvTzzK/I099LE5S3mkezK9pTsZul5aWx4gDYAbefxkTL7tCbS81M1fVq4NFIO46HfiZTdSWygX09NTVevdprZkua4xW3W/GxkG1ftTNw+Pl01dVkFO/lIIt5b3TX9O3i2Ug7hovuNzYpmXX20W1CMDRxudeD/soFwE0IInUSEm44F4SaEEEJ7inATWMvZi2dq3MuyJjt7t6k1HKLARNZPrxTU3b9/n48mUnSgQDMr83mOCBmoOVjFnFNVp6T99Np8UyM+kkhpRYm0Xq+dNrXmI2kJ2eEv7VOb65PEE8RluKZqtx94nr7baj9IyD/eV9pPr3P8p/ORtMyOrvlgIZkUVm8r2Mp7y6HZmxPCh0n71yTNgty7P4+PIGeyp3YGqTVGpIXxkUSePXvGegaIszKf54cub7CTZ0/yEUBNINyEEEInEeGmY0G4CSGE0J4i3AS2sLNoh7K8WxaCWNrc5z127PQx3lPOiww3idDMICVMkvW1tFNwa3btxjXeU44zhpsUwM2PnCXtJ3Nc1EhdB93QPp2TQ/SHcDPjptQaHBMvMtykfTD7+XST9rOUZnluSluna7YinbbezUs7s1QmBab+2314z5p5UeEmcersKdbC9X1pP0vf3fw3lv6cgBcYQLgJIYROIsJNx4JwE0IIoT1FuAlspfjAPtZZsnTV3GHB/VnV+Sreo2ZedLhJbNu7lX3sIR5qYy4tyZ4aPl4JqZ6HM4abBIWK3mnurLHL69L+JC0rX5+4xqoTvCng3Ji4ttbAm5aie6a61roMW+VFhpvEw0cP2YKo2bUG3h+5vcNisqKsWoZNe7lOC5soPbhItaX7+yx1j76DtV5kuEmcu3hOugzf3I5eH7P8/Xt5D/A8EG5CCKGTiHDTsSDchBBCaE8RboK68Pnnn7PM/Ay2OGoeG+zRh/Xa1JkN9x7IVscuZ/sOFlh1GnZGbobNbt+T+dzZgAQtjU/YtUXZX3Kgey/We3MXNtpvKNsYv5YdOnlAd5BF+3vK7kOvOQXZfCSRe/fuSev1urdEXwhFM1OD0wPY1JDxrJ9Ld9bXpRubFDSG+aV5sQuXz/Mq67l05SLzT/NWxqIxaWz6jKB0P3b1es17bFpy9vxZ6c+n10NHD/GRaufkmRPMLWkzG+c/gvXZ3JX1d+3BZoVPYTE7w9m9+/d4lXXQO0QnqG9O3KC8W/SODXDryeZETGMJ2bFKsKqXysOV0p9PrxcvX+Qj1cx//vMf5V9UfLplJRtR/btLv8P0u7wocg7LyK/+/xnVv+NAPwg3IYTQSUS46VgQbkIIIbSnCDcBAAAA+4BwE0IInUSEm44F4SaEEEJ7inATAAAAsA8INyGE0ElEuOlYEG5CCCG0pwg3AQAAAPuAcBNCCJ1EhJuOBeEmhBBCe4pwEwAAALAPCDchhNBJRLjpWBBuQgghtKcINwEAAAD7gHATQgidRISbjgXhJoQQQnuKcBMAAACwDwg3IYTQSUS46VgQbkIIIbSnCDcBAAAA+4BwE0IInUSEm44F4SaEEEJ7inATAAAAsA8INyGE0ElEuOlYEG5CCCG0pwg3AQAAAPuAcBNCCJ1EhJuOBeEmhBBCe4pwEwAAALAPCDchhNBJRLjpWBBuQgghtKcINwEAAAD7gHATQgidRISbjgXhJoQQQnuKcBMAAACwDwg3IYTQSUS46VgQbkIIIbSnCDcBAAAA+4BwE0IInUSEm44F4SaEEEJ7inATAAAAsA8INyGE0ElEuOlYEG5CCCG0pwg3AQAAAPuAcBNCCJ1EhJuOBeEmhBBCe4pwEzR0/vWvf7HPP/+c/ec//+FXGjZffPGFcr///e9/+RX78M9//vOFjPsioHuk+yWB/aHfBXoX6HcDNCwQbkIIoZOIcNOxINyEEEJoTxFuAntRVFnAZkVPYdMjJyp+unWFzUHclWuXmXuCCxvs14e1823GPvb6gHXy+ZhNChvDEnLi2bNnz3ilbdB9ZRSmG++V9NvhxVut59SZk2xt7CrWz6c7a+tjuN+u3m3YzIgpbEdRphJ42sLhk4fZquhlrLd3F9bGpylr7f0h6+rVls2NnMF2l+Wyf//737zSNiggC8z0E55DRlE6b7UOeqbFB/axheFzWA/vjsq9tvFuwnpW//clMQtY2ZHSOgezDx89ZC6pG4T7LT1cwltt5+69u2xd0iph3KOnj/BW27lx6wZbmbBEGPfcpXO81To+++wzlpSdwCYGjq7+XWitvGP0uzHIpxdzS9nMLl29yCttp+p8FVu4ZY7xXmdETmJPnj7hrUAPCDchhNBJRLjpWBBuQvhy+FlFOQtauYJ1btGCzR05kj0sKZbW2duc4CDWu11bNqxbV3Y+a4e0Bn65RLgJ6srtu7fZwug57K0Nf2GvrfuD0S4Bra2ebUnhV+j2YPbBpjeEsSyl4LDyWAXvZR0XLp9nE0NGs9fX/VEYc0zoUF6hH5o5tzF+LXtn4yvCWJYO9OvJzld/rl4odFwevbj6mf5VOp7qyMBB7NqNq7yXdZQdLmW9fTtrxnRL3sQr9HPv/j02NXQCe2P9nzTjqb65/s9sVuRUJaC0Fnovdu7bwT7xbKEZN2V3Iq+yHno/U/emsNZuH2rGzS2x/f/nUOgclxPDmrs00oxry3t76MTB6ne+vWYscxu7vM6CMgNsCpApOPVO92CNN7+uGffeg3u8CugB4SaEEDqJCDcdC8JN+Gx/OWvb5EP2m1/+UmpFwhZpP+hchq5exb7yla+w//f//p9igssmaZ09PZSSxL7z7W8bP3P6kMHSOkf4WbVdW7aUvvNkQWS4tB98vgg3ga1QMJS0O4F97PGBJhAhbQk3PdJdNaFjTTZxfYvtP1rOez4fWiIduM2vut+b0vGsDTfpZ1uwZbZ0LJltPJqwi1cu8N41Q8HYpKgx0jFkdvZuza7fvM57Px8KIlfELGZv1xDIWhtuPnz4kA0I7iEdS+aQwL7s6dOnvPfzuXL9CpsWVnNwamu4efbiGTYueESN75ut4ebxqmNseEB/6ZikteHmwRMHWFO3t6VjyXRN3cB76mPfwSJldq1sLBLhpnUg3IQQQicR4aZjQbhZPya4blZmr6ke25oqrXOEl3Oy2Te/8Q1jAGXuD7/3Pfa4rETaD754T6RvFd4bcmCnjmz60CHKLMyzO7dL+8mkvur3SiFnVqC/tM6eus6bK7xPKyZNlNY5wruF+exb3/ymcH+q3/vOd9itgr3SfvD5ItwEtnDmfBUbEzy01iDS2nAzf/9eZXafbKya/MSjBbv/8D4foWb2Hylnff26ScdQtTbcjN4VqTuIVR3o3+u5S8l9072kfWtzXNiI5z5rmtGXvncra+PRTDqGqrXh5qKYudJxanNF8hLeu2ZoVmzEjjDWxOUt6Riq1oabNCvWL91bOkvRXGvDTQpsXZM2skabXpWOp2pNuPno8SPW2buNdJyapBA4p3wXH6FmaCn+4qj5z50djHDTOhBuQgihk4hw07Eg3Hzx3i7IZ7/+5S+E8GSbj7e01hEWRkWwFu+9Z/SPv/618T7bN2sq7fNlMN3bi3X7uBV75x//YKN69pTWOFqvRQuF98bS737722zmsKHsUenzl5gHrVzOvvbVrypO6N+PPdtfJq2zp+XxcewH3/uecq/0bl3P2yOtM/fK7hzWv0MH1uydt9mrf/5z9e/PiwkZ9ydsEd77P//2t8bn+tG77yjL+GX94PNFuAmsgYIhnzQP1til9gCHtCbcpLpu3u00Y4wKHqzMzrx156YSflI4aFnjmrKRj6LlwcMHbOWWpTXOUjTXmnCTZj+2cNUuOZ4TNZ0dP3OMXb91nW0vyGCdPbTBVOLueD6Klms3rmlCNwpQl8YtZKfPnWLXbl5jW/NSWVs3MaCkQGtX8U4+ipYLly+wiaGjdIWx1oSbFUf2a8Ix+rNb2mZ24coFdvHqRRa1M4I13SzOPKQtDE6ePcFH0UJ7jQ707yn0qUlrwk3DUvyaZymaa024mVe2R9kqQTaOpdaEmx7Jrpr+rTwas5Q9Scp+nserjrPVW1Zo/qVAF982Ne7zSiF36u5k1tpTPuPaUoSb1oFwE0IInUSEm44F4eaLd8GYUcbQRDVi7RppbUOQ9kZU73PNtKnSmvq2anuG9Hpd7NO+nfHn3DxntrTG0fb7pL3xHmtzVC994ezZHduV2Z72Cu6u7clldwsLpG2qVHNsaxp7Wl4qbbc0buMG489FASctH5fV2duJ/fsZP3fh2DHSGqhPhJtAL7Qv36AQ+exHCs0sQy5rws1dRVlCX3JIQB/lM83x3+qtqWvu0UiZ4WbJrTu32Cc+8lmKFAZZ7hFqTbgZuNVP6EvOiZym2e9wcfQ8TV13v09q3BdxU8J6Tf2q+KWa+qlh4zR1Q4L68VaR0sPF7AMX+R6mstDXmnBzWuhETf+wncG81QDNVO3jr93bc370LF4hkro3scY9TGXX9Yab0dlhmu9cVTau3nDTN9O9xhnHsnH1hptPnjxhrdwbC31pVuixqqO8wsD5S+fZe5v+LtSR2/LlB0MtTpxdY8gtu1+Em9aBcBNCCJ1EhJuOBeHmi/VkRjr7zre+ZQxNVGm5rqze0T4tLxNmsOVH1P++g49Li9nF7CyWFxbK1s2Yzt5//TX2+//7P/bUjjMNaan9r3/5S+PPWbYlVlrnSCmA/N+f/9x4j8nuruxybjY7Vf1OJbq6sHf+8Xdj21e/8hVWmRgvHcde0kzPm3v3sIqEeBayeiXr1baNMnOUvidZva2ah4wLxoyW1thb+tne+OtfjZ+7w99PWgf1iXATWMOq+OWa8KOj30csq3gnGxLST7huTbg5NW680JdCKDpExRw6Ib2Vpxj2qKbnpfEqExQIjg8dqantG9SJlR8rY228mwrX9YabNG7vIDGse9/lNeVgJXNof81Gm7UzXGmW5cHjB3iVCXpW7b2bC7Ut3d/XHMBz4sxxaUhHQeW5i9qTuGm5dDv3jzT1k8NHsX1HijRj6Q03796/yz5wFUPTXn6dNN951r6dQo0q7X1qGV4Tl65eYh9sFselZ7Y0bi7LKNkmXCf1hpunz5/WhHcUyH+asIzF740TrpN6w83yI+WaZ0if45q2noVkBQnXSb3h5vbiTE3fDUmf8lYTS2MXaOrIicGjeYVISl6yJtxs6vYGC9sRxFYna3+/EW5aB8JNCCF0EhFuOhaEmy9W830Of/srU5i2ePw4aX12UCDr0KyZYqLrZiXE6tW2Lfu/n/9cCUn/8tvfstXTpkiXFJ/ftZP5LFnM+rZvz/7+xz+yH37/+0ofCgaHd++ma59PmmH39a99TbnHH//gB+xhyT5pnaU0s3LWsGHs9b/8hf3gu99lP6r+7MZvvK7cz5NaZuxdz9vN1k6fxj588032ox98n331q181PiNzf/KjH7E7hfnSMfRKJ3V3+MjwbD9+/33hs9o1aWJ87mSmn490DJp9GLVurTLOL3/6UyXc+93//i8b3q0bO56eJu1jqweTE433+P3qZ2r581/KzlL2RFV/hrUzpgvtfsuWCj+TuZm+8p9PlYLk+M2bWNdWLdn//uxn7Btf/7rxcyxNcnMx9tsbESb9PHLT7FnCZ5g7sX9/Y91Pf/wj49hvvvKKMMbicWM1fS/l7GL+y5ey/h07KMvY6d37dvV7/7v//RUb3LkzO5ScpOljKb0b6r6z9KwpxJXVQX0i3ATWQMu8W3s3UUKPdza8wjYlr1NCR2KIr23hJu2tSIcDmfft49+Ft5oIyQwUasydFzmTV4mcvXSWvb/5NaWGwjQagz6PaONlW7h56cpFzYzHGRGTeKuJ5XGLhBpzvVLdeZWJo6eOaA7NWRqzkLeamBk5WagxN3JHOK8S2VFiCsraezZXTh4n6GexNdzcXqAN3wK3+fNWAzRrc0BgzcvL95bn8UoR/50+xpqePh2V5eRE4f4CoT9pzbL0jemfGvvRFge0/J3IyNOGptYsS1+cZJqhOyJ4EDt17pRyPWZ7lDAmqTfcXBSl3cu06kIVbzVQU4BOfujypvF305LhUQOUGnrfZlS/T7QdArE2ZrVmHISb1oFwE0IInUSEm44F4eaLc1dggDGcev2vf2XLJk4whjY0O03WZ+rgQcYada9CmbR/omXfHq1bS2tVKYx73vLu4FUrjPXtmz5/v02aXei/bKkSCJl/lrljeveSLoPe5u3FfvWzn0n7mEvB2l9//zt2o46BU/ina6TjW0rPnQIzy/7ndm5XlknL+pA/+58f6wrS9Oq9eJFx7BaN3pPWNH/vXWPNhH59hbZm77xjbDOX3knab9K81lwKyWkPSllfc2nvTgrAaUap2nfeqJHSWpL2DzX/HNXbtRzsY2nIqpWa/oO7dJbWqlIwfjQtRdPP3LhN5kvh35HWQP0i3ATWkpKfxIZH9Wcnzoh7Jtoabh4+cUgzk2xN4greaoBCmjZehlBVZufAmj/LI8OFTYubqJy6bY6t4ea2vK1CPzJylxgqXr56SZnNaVmnOiZ6GK80EZkZrqlLLxBnpJ6sfua17R86K24qrxSh2aZT4sexDWmfKsudVeoSbn4as1LoRx45bQgLVXJKsjU15rqlb+aVInSy/aDo3iwgy88YRhN1DTfpZ+8d1ZlF50YKBzvVNdykLRB6RXViSXmJwhYCdQk3u3qKe9B+7PUBbzGxIm6xUGMu/U5VnqjklSInz59k3cLas7yy3fyKAYSbdQfhJoQQOokINx0Lws0XIy17fu/VV5WwhE6mTvP0YJ4LFxgDlH4dPtH0oQDwnb+blhqTNIvygzffUJYAU0ijXqfZmZb96ZAYaqNwjma8tWzUiP31d79TPl/tt+g5ewmK+21OkdaY6zJ3jrIkmurpc+gworYffsh+Y7bkm67vrX7PzPvRzEiaXae2N3rtNTZ10EA2uncvZead2nfl5EnszI5Mu+wRScHbr3/xC0Xz0+HpuarXyXF9+2j6XsjOUp6l2odmbFLQSTNOzWc10kxHy7622u+TT4zjLqlhpm+Hjz4y1kwa0N94/VZ+Hvv9//0v+58f/lDRPHymkLum/S9pJu3f//RHYy3NGB7ZswebNmSwMitSvU5h65HUZM3MXprRqn4mBZ9qPQWhlUkJQq3qnrAQ47M3/+7pGZt/L6/84ffs/r5CTf/ZI4Yr9fQzvv7Xvyjv/d/+8AdhZu706vu37GeuI5bCf5lFuAmshcIb8wBHxdZwM3FXvNCP3LIjlrcaCNsRIrQ32vwP4c+05yDNKpUhu1fC1nBzc/wGoR9ZcqCEtxqgQ4zM2y3vt7VbE15pYmnEQqGGZtWdqBIDZNrXU22n8Mpyr8Xu3p/wSi2y76Iu4eYo/yFCv3c3/U1ZAq9Cnzc4qLexnZZqW+5NOTl4LK/WIrvfuoabhGzcuoabhGxcW8PNBw8eaJb8j/AZyFsNUIDe2MV0+JRsBmfszmherUV2vwg36w7CTQghdBIRbjoWhJsvRr+lS4yhYrumTZRDUcxnDrb58ANNn6t7ctnXzYIyCmpoP0P1QJVpZrM6+36iDTdpSTuFhnQ6u3qNlq8P7NTB2G9Il85CH3Np+fhfzAK8/AgxkLSUAkt1xh2FV3QoD4W61Ebh2j/MQjLz5cT39hUqwRtdp2e0eNw4YT/NjbNmGvvRoT/qdXtJJ4v/9le/Mn5GWVzt+23SM6TQTq2nPUBPmv2eeCyYb2z73ne+o+vk8udJz4MCPXVcmgUsq3vbLAxfM7XmMNpt/jxjHQXlshpyfL++xroP33qTXcvbbWyjZfdqKPztb33zuT9naVyM8XeAQlI9e6ZOHNDf+PkLRo+S1lhKvyN08j29c+o1CsNH9+ppHKtnm9ZCH3Pp+33zFfP9Nn2ldVC/CDeBvbA13HRL2Sz0Iwv25/NWw6zNdl6mg4FaezVmi2K1S3bpNHFrsDXcnBU5VehHXjWbFUr/3TyY6h/UjY0JHCrU06xOy700x4QNE2oouLx77y5vZcrPZ75n5OjwQWygj7jku6Xn+9J9LGvC1nCTAuNOvq2Ffu18mwmzLPeU7RbalyUuYM03iyfM9w3qyqv1YY9wU4Y9wk0ZtoabZy+e1cxmXhA5m7caWG2x/617xibhz+TmpPW8Wh8IN+sOwk0IIXQSEW46FoSb9vf6nlxjMPX1r3+NlcfHKddT3N2MAQrN0LTsR3sXqu20ZybNojNv///snQWYHEX6xrk7ODjssMPtgDsOtyDBQkgIIRASAiFIEiCBQIi7O3F3d924u9tu3GXjLhvfjQL513/f3u7ZlprZ7pme2Z6Z9/c87wOZru7Rrarv7a++KpY/M5MPGY36Y4GkZXRCyF6UtYFgXmn1Nm//562KCSlrB8GoevPFzCXayOwzt9EbZaU+y9zNe1irlr7Hn3nicZG2IsMQ1YTajNrxT3K9azjmhtaNzaxlefcdd4hzSYFNujHp34tm0iHLE/UZ9ceTp03xfW7Q4flzfcdWJ4xSlu3bkb5mJ14jDGNcDxmMsu8CNThvvTmzdMGELp0sbTTB0NTadapVU9rm+KKFvlII+HxgTuqPY3MsLUsVr+1M4jLDcbPa1ajme05ZprFZGSbjf33nZFUXNCtpGZ1Qua+/kraBkJWrvS+8f/PfHeVcNDeJWwRrbjYYasxYhPQ7Qg+ZOdBwrN/0XqLjKKshumz1UvUMewRrbpbq+63hPEhvKDYf3dhwbOby6aJqH6Mhio1s9h/cr56RAeqM6tugVqh+6XStYZUNx7EL+o/djYYosvdOn7ZvRgVrbl6+fFkxUvXnFe6TXz2aYX6W6PeF7xhe176De8VHnXIbzpFlsAYiXszNFeuTLOe1GvubelSII8cOG7I2i/UpLJJ3b7dkxtbubzREs4LmZujQ3KQoiooS0dzMXmhuuq9q32WaKnpTb26/Pr7HsXzbvCkQDELteNXvShqOQU88nLGLOYy2ef37WY5jifCc9Of4rWIFpc7lVx/lV5Y233vXnb7rBjLAUM9Qa5fvzZzSNprm9u/rMwixHPiQztDT9H3hQr7r6ZdMw2jSHi8vMZ2wrF073rR8OcOxBQP6K8v77chsQmrqVq+O7/oF33tP2kYTMgDfeSWz/qRsWT/qOeqX5uszZ4sX/MR3biDh/CSdmdhdX28z/fm1x/Wa26+vz3SFuYrMX1m78yuTfLVN0d5fvc356b8p7Tnvv/tuX8awph716/mOY6f2rEoFFMqd29e+S93a0jZ6oc6pZhLDZDzi5/2YhQzS+em/C2xM9dMXn/t+9/rSCDDUZedCo9q28bVDqQFZG8qZaG4StwjW3Kzc27hBDpZj79q7SzmGrM0Pu73rO/Zu5xwi7Xya6D2hh+EcaMaCaco5dgnW3CzataDhPGRTaibk0ZSjhqxNGJbIZqw3KHPDGQhZeduStyrnaOTvlMvQ5q22L6tHMnb61i9B/65fxhLlCv2Mu8zjszt2/JhyzA7BmptpaWkGcw0q2uFT9agQi9YsNByrN6Km8niR7gUMj7/a6lnlcbvEi7k5d5m1VmmH4ZnfS/Mxxnqn05dNE4eOHFJMc/3jv3b1v+xfBs3N0KG5SVEUFSWiuZm90Nx0VxvHj1WWJsMoQf1AbEKjHcPyZ81EQcagORtPv8R4UpfOhmM7pk1VskBxDMaPvvbgxTWrxMBmzcTjDz/kM7tkQgbgoXlzDNfVCzuqa22bBVjiDOmzQb/4QL50HPUotTZtq2fulI2altrjMKL05wz4ranPNMVO4LtmZH5+0Puvv+Y7N5DwWSEjT3+uJn0ty7bVq0nbaEK2orYU+y/pwm7y5jb6jNz7/nWXr54llvk//tCDvmOBhDqY+vqVxfJnlhLwV2+zconivjZYQi5rAyFzWJ+pajbVNc3s3ct3PdTMPLl0ie8Yskr1S/mRaao/1yyUJ8BzoS2M23V+6m3qpTcZc77wgrSNXjBXh7duJZ78978D/u5ROmHn9GnSa0Aw3rW2rLfpjmhuErcI1tws16OM4TyYbXv371WODZ9jNId6TO6iPN5/snXn9GlLJyvH7BKsuVmo44eG85CVqJmbyK7TH5u6JOM1NRpm3fhl845NyjGN99sbX0+u9q+qR4RlGf7StRnL9qsMsO6cfvjYYeWYHYI1N8+dO2ep9/l1p8/Vo0KUHJCxGzeEdrv2ZZjVX/b61HBOjrZP+a2JKiNezM1pC6Zazus6KmOH/WMmA/3zXgUUA/1YyjGLuVlhSBnlHLvQ3AwdmpsURVFRIpqb2QvNTfcEs0W/YzlMsfvv/pdPmtkD3fiPfyjL17VzsRP439SsNZkJOVhXrzP3a6/5Hsdz1vjhe1/mIISNXJBZ9/bLLxlqaGLTHn/ZdjDisCO51ta8AZBeMFOffuwxX9tejRpa2iDrTlviDC0ePMh3TL8sHZl6n+Z+T1QuUUJ8+Nabvsw9mFXd69czXBPLsGG6aecGEuqVykw8ZPk9fF9GvU/IvPTarAHNmvraPp7+Wco+vyolS/jafJIrc0MhPBd2CJdllZo1un0733n4LvRGoqzeJj4L/Ka0NqipaW6jqVPtzHqbn+XxX28Ty7H1G/q88OSTSjZxiU8LGjaz+uidt5VsUNk1NOFz1QxVZI36M1T10puMtbKot4nvodGvZX3PAeG1v/i/J5XfPTYU0h5/6vHHlN+s7DrmpfDTe7LephuiuUncIlhzs3wPY/ahZm5iqXeB7pl1Hd/u9LJITUtVzuk3ubfhHGjq8siYm4U75jecp5mbJ06miDd0plORngXE77//rpzTaKjE3NxpNDfztM+sKwpp5uaeA7vTnyNzQ6IS/b70GYKV+1vNzSPHw29upqamGl4T9FWnIsqx5euXGh6vOayq8jgo2tNkbqZfwwnxYm5OXzjNcl6XUR2VY23GNTc8Pnlxxo76R48ftZibv45g5makoblJURQVJaK5mb3Q3HRP2MxHq5OYlWDe7dZldY7r1MF3DCak/rqQfnMUmDra49N6dPM9J/7bvFJFxfjSjus3IYIJpz1uFjIUtevAyNJfwyyYYHrjUqspqpfewIRRp89KPLVsiZKpqB03C8vcsQTabCQeX7xQ9Gokr1dpFrIQ9edqWj9ujC/LD6/hbBZ1I6uWLOl7XbJNnJCh+OS/M400vD5zG6fCa9SMbuwoL6tticxa7TnvTP++8NmY22gqkjevr23HWjWkbTTpd8s3C5/bNwUKBPxtaMIu+tp5djeFeu4/mZv6TE3/XcvaaEJ5As0Ih8HZ4JefRcriRb7fTJ0fS/uuVeYL6+73mg6al8Kz3qYrorlJ3CJYc7Na38wdwCEsrd65Z6cYNX+Y4fHOEzqoZwjRfVxXwzFo1qIZ6lF7BGtuFutWyHDei+qy9HYTjKbThIXj1DOEqD2wuuEY3mPyzu3q0QwKdDZu0PNmmxeVxxskGLM2F6ycpzwOfu39o+EYai4eTzmuHs2aYM3N8+fPG4xc6Iv2GcvSSw0q5nsMS/aTdRs9YTd3/TlvtH5ePWKPeDE35y+fazmv/bA24sSpE4bPvVCPD30Guuy7rND9F+WYXWhuhg7NTYqiqCgRzc3sheamO0KWHrLGNEPlgXvuEY/cf79BD993ryHTDJvNaOdXClBvE7UP//vII77j8/r39R0r+F4u3+Oocamvk4hsNWRwascndA5Qb7NZZr3NvDnfkLbRBFNWM98gc5YplmW/9dJLvuN1f8rcKR1CnU3t2GvPPaeYWk899piSkdqo7C8G09dtddPVssRnJ2ujV8lPM5fqwyg2H4cprZmld912mzi+aIGljVMhY1V7zndeedlyHPUlb/zHDb427XRL/s2C+YqdyrW2a/zU24Rm9u7pW4KP5fQw2bGx1WvPPauUElB27veTAWlWofd19TbrZF1vEzVbtb8NmNtHFwQ2GVHOQLs+TGfz60LtTO14wHqb7XRL4V/Meik8ZU80N4lbBGtuNhle33AetHbHavGRbjfuNzu+KM6cPaOeIUSboS0N7aEV65LUo/YI1tz8qZ9xEx/o8AnjDumf9vhAXLlyRT3Dmp0KQxQ1EvV81aewoc1r7Z8Ruw/vMmRIft2niOEzLdnla9M5z4ozZzI/p6wI1tzEe3u/2xuG84r0zy+WbVpq2OW72pAK6hkZ5GlnzE79oPPb6hF7xIu5uWbTast5rcc1Fa0mGQ10/XvftmOrYprrj9cbWEs9ag+am6FDc5OiKCpKRHMze6G56Y6w/FgzSV599lnF7IS5qBdqbN59Z+bS9Fl9MrML9SbkRFO9TezGfZ1qOqGep5YFied44J6MXdkh/dJmCFmd2i7QWOqOLDX9cb1KFyniu05WO7HjOsgo1Nqbl3brdztHdqR+s6E9M2f4jNG7br9dJE+drGwkc2DObGVp/sXV9syzYKXf5Mj8PrEDvP7fkL626Ocf5DUcw4ZF/37wAd9xZM3qjwerr3T1NuuVyTSG8fr6N2tqWDqe+7VXRdrKjBqfMsFA10zDfwWotwm9rTOkh7Ro7vte8P3BJJWdIxN+l/rMXGSiytrpNaVbV197LIfXH4Nhr3/d+Bwefyhjcy1o4G9NDe3nD+jnM2nx353TpxqO66XfxKtmqR+kbSjnorlJ3CJYc7Pb+M6G86BaU6oY/t1+bGu1dQb1RtYyHIf2HdqnHrVHsOZm7cFVDedB5tc7Zm6C2jqDHwYbTUgYodgsSU/ZvqUMbV5u+6SoPOFXw2Ozl89SW2fw+YCPDcfzdMvpy+SzQ7DmJijULZ/hvLzd3xIlh2f+BrBEetvOzE2TYIjCpNaf803/jKXsdokXcxPfi9moLDf2R4OBXrB7HoOBvmydsRwA1GVixlJ2u9DcDB2amxRFUVEimpvZC83N0IX6kpqZg6XdetNSL9RSfOzBzA1mRrZprTyO8zUTEqbhEdPO44NbyOttYrmy3kTCDukbxo1Vluxi1+hr1WtCD997rzirWxpuFmpFam2R0YgsT9SbLP7JJ5bMN2Rm/k+3FPvlp54SCe3birEd24tvP/7Yl8mI5b7IjNOfu2TIIN95Mt11+22ibLEvxbEwLQ/+5uMCvudCdunoDu2UjWyqfV9S+W7MO3T3adzI1x7vB4botB7dlWXX+rqYyLA8tyLRcG4wgomorwmK76VSieLK96A3UqFXnn5aHDb9VpYOHazsMK8JS8K19o+nvz/9MXOG7EP3Zb4fs7ApD3bQXzZsqOEcaN/smYbrVilRwlcDFr9BfGbaMX+1XPHb0Z4LNWPxueM32KZaFSW7t1/TJr62qPep/4yKf/KxWDd2jHLtcl995TM2IRjo5o279NJv3JTvzTfF+M4dxcDfmimba/Vt0lh6DpW1aG4StwjW3Jy8cJLhPLNydnhBnDh5Qm2dQYlemUufIZg+WCrthGDNTZkZq9fH3d43mE4gTyfjc+Xv/J56JJPfRhh3wDbry56f+jYuAvhsc3Z83timayH1qD1CMTfL9i9tOM+sSgPLqi0zOHD4gJKxqm9TuU959ag94sXcxG/5rU4vWc7Va/ScUWrrDEbMNJZxgMbPGasetQfNzdChuUlRFBUlormZvdDcDF0Vv83M/iqc5/2AS3f1m5dgiTQec1Rvs+wvhmPYjEc7ZhZ299b/G8aP/ly96pb5ydBWL332oCYsNdZMTJlgMHWuU8tyHrJO9Zu9+FOOZ59RMgDN54eqvk0yzUqZYGzp2x9ftFApKSBrqwnm28G5/nehdyKY01nVbYXJCvMNNSbN55co+In0HLP+gUxeUzkBlEOQtdULS8aTRhgzdVHjVNZWpsnduhjO1YTPD1nJsnMgcwmBrwt8JG0n03eFChnO1QvZtrJzIOxGLzuHylo0N4lbBGtu7ty707CU2azWo35TW2aAzMRcXV41tCnSrYB61D7BmpvzEq31EPUaMWuY2jKDI8eOKLUn9W0qDLDWQhw7d4yhjVnTFk9VW2aAHcjNbeoNcbYMORRzs8OYtobz9MI1NycbN0yas3yWpV3vST3Uo/aIF3MTfNnDWNtVr4+6vicuX76stsyg4dA6hjbI/Nyqy5y1A83N0KG5SVEUFSWiuZm90NwMTevHjVWy2mCGYOn3hvFjpe00IcNPM0+0ZdEwUbTHzJv+wCjVm4H6epvQ9imTxdOPP+47runBe+8VHWrWUMxPmJD/vOVmZQm4/ly9sCT8nZdfthiW2GSlXY1qlvbI3sSO1v/QLU+HYMy98szTYnZf6w7fmvbOnilqly6tGFb53npTUZ7XXzdkQkLm5fluCJmRqKOpbSKjCf9+7dlnlSXN5nNWjByh1AQ1m8XIMKz5ww/KBknmc4JVjwaZ9TY1YVk5flv/fuABpfZl4vBh0nOxXPvfuszgQELWp/l8fDY9GtQXRfPlU3aux/fywZs5xQtP/tdQYxWbDunP+7pAZjZsIMG8PGzKjNVrcIvm4tabMzeqgvB7ROmFNlWrGG4aIOtUX+NW033/+pfS9sv8Hyrn4jk3BvibxOZIed543fK7h4nbrHw56TlU1qK5SdwiWHMTO3/n7vK64VxNb7R/XtkFWg/MIXM77EbulGDNzZQTKcoO6fpzNeXv8q7FdBo/f6ylXf8pfdWjmew9sMdiNGr6vPvH4o8//lBbZjBgWl9LOxikTgjF3Fy8apHhPL3K9bfu0t1kRANLu9WbVqtH7RFP5maz4Y0s52oaPnOo2ioD/J193D2Poc27HV61/GayguZm6NDcpCiKihLR3MxeaG6GJixjXjd2tKJtkydK2+i1Y9pUX3utBuauGdN8j2Encn171OqEYaodx9J2/XHozPKlYlLXLqJ9zepK7c85/fr4dgFHe2wUM6lr1kYhzK0ZvXoqpigyMyd362pZpm3WjmlTFFMKy7SxlHjlyBHS2pWoGwrjFhpgqpGoCa9ZX0txUPPfpO1CFUyyVaNGip4N6ot21asprx+fcaCMW2ScotwAPpdOtWqKiV06Wb4rN4Q6l9p3rWnTxPFKliV+C7JzNOH1rx87xnK+TLtnZCxJRy1LmOz4XmBWy2pr4rr67GQY5vrjMNhlz2HWpgnjDefJtH/2LDG0ZQvRNv17wfeDTYz87WiPMgvYVV37veL70Zag433N6dtHjO3YwXKeWfgbgRnfMf177Vy7lmKqH5pnXO5PORPNTeIWwZqboN6wmoZzNf02orHaIpO6pt3DoUWrF6pH7ROsuQm+621cFq9p6PRBaosMYNx+N9jYFrUo9xzYo7YwUqTHR4a2miYtmKC2yADX/WxgAUMbGK7HUo6pLewRirmJpdPvdsphOBdCxuCGrevVVhmcSz0ncnUzZtvm6ZrTsMzeDvFkbi5ba9ycSVO+zm+LS5cuqa0yWLp+iaVGZ63hVdWj9qG5GTo0NymKoqJENDezF5qbVCSE5d6aOVb1O2N2qqY1YxKUjDm0QabglkkTpO0o9wTzWvvMYSwjI9fcBpmp777yiu/7a1G5kqUNRelFc5O4RSjm5qotKw3nQqjPuGe/0QRM3LTcssQ7f5dclmxJO4Ribo5ZmGA4F3qzw0viwoULaosMxixKsJhO3/X5Sj1qpd/M3oa20Aed3rbU8Bww25q1WWHAz+pR+4RiboJGY+sazoW+7fWFejQD/AaajmtoaddmTAu1hX3iydxE+YVPehuzMSHUfNVz9txZ8UWfTwxtYIouX7tMbWEfmpuhQ3OToigqSkRzM3uhuUlFQt3r1fWZY9gM5rcKFZQNiwY1b6Zk3pUoWNCwCzhqKsquQ7mr/XNmGXYWL//N10oGLjaxQuYk6nD+55FHfN/LA3ffbdj9nqJkorlJnPJdj6/Fl90/tShHG+NSbZiTX3YvZGjzdc/PxNFjxmXmGt8PMO4oDhXvXVQkzBopZi2dKdqMaSlea/+spc2Q6QPVK1g5e/as4fn1Mpt6r7V7ztKmeG+jUaeBnc4L9MhtOB+G0q/9fxQT5o4T0xdPEw2G17ZsoIM2C1cuUK9iJTUtVeTq8prhnOdbPS6qDConJs2fKKYumiJqDaliee3IBl2z2b9plrh6ueW9QYW75jdcB8rV4TVLu3qDaqpXMrJ7/26Ro731e280oq6YtnCqmLhggvil3w+WDER8j+ZyA3rGzx5neQ1Qgc7vG64D5ev0tqVd59Ed1CsZGTJ5kKUt9GHHdy3XxaZP5nb9J/ZRr2Sk+5iulrZQng5vWa77SZc8lnYJM42bA2mMnGvdJChXh1dF9/FdxOxls8TQGYNEwa55LW2K9/pCye71R6NB9SyvAXqnvTUTF/Vsze0Wr1ikXomYoblJURQVJaK5mb3Q3KQioRUjh1vqXPrTBznfECeWWDfLodwXlqE/+5//SL8Hs2BsLh4s3+2covSiuUmc8lqL5ywGiF3BqNu7f696JSNbd23xW8vSn77uXSRg1uaJEyek59kVskT9MW/lbIvJmJUqDf1VPds/kxaPl54bSA1H1VXPljNjwXTpeXb1VYfP1CtZ6TqpvfScQOo7vbd6tpxeCT2k59lV9V6V1CsZaT2ohbS9XTUd0FC9kpE6veRlFeyq88iO6pWMIHvz+wFFpef40ytt/yc2JW9UryCnRHt5WQW7mjjHWCaBZEJzk6IoKkpEczN7oblJRUp9GzcSD95zj9Q4u+7aa8Ubzz8v+jdrIq37SIVPa0YniJwvvqBsXGT+Xv7yl2uUjYxQj9OtHeGp2BfNTeKUcJmbALUlzcvO/Slfn3fE/kP71TPlhNPcBD0mdrUsO/enooMLitTUVPXMwLQZbd+E+27o15bl8GbCaW7CgKs8sJz0PJlqja6aZa1NmpuZHDpySHzUxZgl7E/I4B27aLR6pn9oboYPmpsURVFRIpqb2QvNTSqSOrciUawdkyAmdO4khrduKRLatRULBvQXh+fPzXLDHCp8wgY82NhqRq8eYkSb1unfTSsxrWd3sX3qZJrNlGPR3CROCae5CRavXiQKdLcuP9aEJc7lB5URR44dUc/wT7jNTTBx4XiRq7Nxsxy9kN1Zf0QtkZaWpp6RNVhSPHzWEPFWp5ek14Sw/Lv5mCaWzWVkhNPcBNiVu/OEDgEzb7EUvdeU7rY2EaK5aeT4ieOiwsCfLcv79fqwyzsBSx7oobkZPmhuUhRFRYlobmYvNDcpiqIoN0VzkzhlUeIiMW/p3KA0f+k8W2YcNtCZsWS6aDyinvih67fi6/ZFxC89S4n2o1uLTckbAtYT1IOsQtnrsKsFy+arVwoMMifHzhkj6gytIUp2/kp80+FzUb5PGdF9fGex58ButZVzsFnMqFnDlTqbJToVE992+EJU7PeL6D2puzhwOHDWqh6YvLL3Z1er169WrxQY7NY+cFo/UWVAeVG8Y9H01/ylqDawohg6Y6A4ceqE2ipr9h/YL30ddrV1+xb1SkZ27dklbW9XO3fvUK9kZPuObdL2dpWV4a+xOXmT6DC2rSjbq7TyN/F9l29Eg2F1xIylUy2bTgVi7ca10tdhV8dTjqtXImZoblIURUWJaG5mLzQ3KYqiKDdFc5MQQghxB5qbFEVRUSKam9kLzU2KoijKTdHcJIQQQtwhIuYmAvJNBy5TFEVRIahDwkaam9kIzU2KoijKTdHcJIQQQtwhIuYmRVEU5a5obkYempsURVGUm6K5SQghhLgDzU2KoqgoFM3NyENzk3JTl9asElsnTxRd69YRv35VTHxfuJCoWPxb0bdJY2VHdNk5FEXFlmhuEkIIIe5Ac5OiKCoKRXMz8tDcpNzShvFjxae5c4u/X3eduOaaayy66/bbxMDfmknPpbLWmtEJomeD+qLuTz+KYa1aSttQlBdEc5MQQghxh7CZm+17j6EoiqLCpI59xqi9LYkUNDcpN9S/WRNx8403Sk1Nva7929/E/AH9pNegAitvzjd8n2P/pk2kbSjKC6K5SQghhLhD2MxNQgghJJaguUmFKixB/9vf/uYz3l55+mnlsWXDhoikEcNFjwb1xb8feED87a9/FS0rV1KWrsuuQ/nX6eVLxW233OIziLH0X9aOorwgmpuEEEKIO9DcJIQQQmxAc5MKRTN69fQtQ//LX/4iGv7ys0hbmWRpd2DOLDGqXRvL41DK4oXKcvWyxb4UxfJ/KH764nPl32cSl0nbH5w7R3SvX1d0r1dXLBkyWJxatkSMaNNaqfH55YcfivLffC3mD+hvOW96zx7KORnnDbIch86nv3bUB9XabZP8PZxNWi4S2rUVFdKfB6+3TNEvxPDWraTvG9qf/t6162lKnjpZOTavfz9R7fvvRNEP84nin3wimlUoJ3ZMm6oc2zdrpq99vTI/+czjf95yi+hcp5bhejunZ5wjU8riRWJAs6bi5y+LKq8Xn8+U7l3FRT8m88YJ4wzXho4unC8urFohJnbpnP6+vxFf5PtAqafaqkplcTz9+5Ndh4pf0dwkhBBC3IHmJiGEEGIDmptUsDq5dLF47KEHfaZb1e9KOsrKRFssr77nzjt919Dr+f/+R+ydNcNyXu9GDXxtkCX6r9tvN5wHXXvttWJ8546G82BCasdhoOqPaerdqKGvzRMPPyROLFlkOA5T8LEHM9+zXrly5BAn0j8TfXsIWazmtjBjP373XfHXv/zF8PitN90kDqkbL3WqXdNwzJ9QDuDoogWW58Xn269JY+nnCyP6m48LSA3ZSsW/NbSFeT21ezfxxgvPK+fpjz36wAOK6Wm+BhXforlJCCGEuAPNTUIIIcQGNDepYIWsPc3kevLRR0XqikRpO5lgvGFjHLNZZv73p7nfs5z7zccfG9pAOM+8kVGBd94xnNek3K++Y4Xez204Bh1btEDce9ddyvG//vWvYlzHDobjXerUNiy/h/6i+3+oSskShnOgL/LlM7SBbvrHPyyPQciI1M4rkjevtI1Z3xX61PB80MXVKxWz2fx5moWsTPO5Lz31P0MblBO44e9/NzymqfaPpS3nUxTNTUIIIcQdaG4SQgghNqC5SQUjGJmPP/SQz+Tq07iRtJ0/YZm0Zrxdf911ovGvZZUsTRiMNX743nfdG66/XlnWrZ0H0+6R++7zHUf9SSxH3zFtinK8uu7c159/3ncehCxR7VjOF14wHIMqlcjMWCyc531DFurYjh0Ukw/HkBVa7buSYsukieLQvLmiVulSvvMevOcecSH9Neqvi13kFw8eJO687TZfOwhGaYmCn4gPcub0PTa0VQvfeevGjlbqli4Y2F9cr5qLWkYqHtd0WM301Ktt9aq+ayKzE7VOd82Ylv4ZzxTffpJpDr/98suWc1eOGilm9uppMUb/ccMNypL2F558Uvk3ji8fPtRyPkXR3CSEEELcgeYmIYQQYgOam1QwQq1IzfxCFqJ5+XYgHZ4/T9ylLiXHNXo2qG84DuP0umuv9ZlqS4cO8R3bNGGcYmjicRifqAGpP1dfm/LrAh8Zjs3s3dN37ImHHzaYlxvGjfVlfv7z5pt9NTGhIwvmifv/9S/lGJaRox6odgw6m7jMtzQe7web/+iPQ2vHjlayQbXnx2c2qWtn5TXkfPEF5bFbbrpJalQuSv8b1c57/KEHLeapWRvHj/Nlht54ww1iTr8+huP7Zs/0fXcP3XuvtPYmsla154Tu+9ddYvmwoeL8qhXp/5/xWTxy//2Gz5CiNNHcJIQQQtyB5iYhhBBiA5qbVDCqXbq0z/j68K03pW38CVma2rmvP/+ctGbjP66/3tdGv/mPviZm/rffMpwDfZIrl+84al3qj22eON537O477vCZkDDoPky/lnYMWY768xrpXq9sOTteP8w/HEd2J8xOcxt93U0YpMPUDE3ULb33rjvFP2+5WXyWJ4/lPKhZhfK+c0t+WlDaRi9sTKS1R4ap+TiyY7Van/4MSn3dTWRsLhw4QHkcJvAd/7xVeb1Y9m4+j6IgmpuEEEKIO9DcJIQQQmxAc5MKRu+/8brP/IJZKWsjE7IEsVGPdi42BzK3QWahdhwZnNt1WZT6JdUtKlU0nAdTUcsqRC1MGHH64zD1rv97RnYmzFNkZOLxcZ06+jIZn//vf8W5pOW+c7B7un4DIdTkfObxxw3632P/9i1Zf+i+e6WZldgNXbvGVx/l9xmK+C+eD0JWpPk86IM3M5etY4MgWRtNeE9Yhq61f/i++yyv9z+PPOw7/m6OV6TXeempp3xtUBtVexxlAbTXm1UGKRW/orlJCCGEuAPNTUIIIcQGNDcpp4Ih9+8HH/CZXyPbtpG2kwnLyrXzUEcSdSDNbRLat/W1uf/uu32mHzIksTu3dmzpkMGG81aOGmFYbp1q2gkchpy2vBzC0vMzy5eKJx99RPk3amDONS3hXpUw0rCcPCsVyWvNvsQy+4fTX4/WZsXI4ZY2/oTdzG9RzUrU29wyaYK0nabR7dv5nseOUN/UfA2YwNrGSVjWfmDubEsbigokmpvE61y5ckVcuHBB/Pnnn+oj3uby5cvK67169ar6iLe5dOmSuHjxovi///s/9RHvgteI14rX7Cb4rvCduX3dcIG/Bbxe/G0Qb0FzkxBCCLEBzU3KqWDWabuKQ9N79pC2k2lwi9985/3nkUekS6K/L1zI1waZmtrjmyaO99XbxLJo8+7s7WtU952HTEn9MejSmtVKZqbWBsvdm1eq4Pu3bNfx/s0yNyG6/Z+3ijeefz6gEtq1tVxj3bgxvmXg9955pziblJkZmpUWD86st/nvBx9UMidl7TQhy1JrjyxW2WvUS1/PVNP4Th1918jxzDOW4xSVlWhuErdYsHKeKD+0jCg7qJSiJhPqBW2Y7dm/R7Qa2VwU7V5QvNf1NfF2p5dFni5vih/7lxBDZw4WaWlpasvggJk1buEY8eug0r7X23V6B/WoczZt3yQaDasnCnfNL97tkkO80/kVka/z2+LXgT+KCQvHKYZnKMDE6ju9l+H1jpg/TD3qDHwny9cuEzUHVRWfdMkj3u2c8Xrzd35PVB1cQcxdMSdkIxnfT7vxrXyvFZq7crZ61Bl4LbOWzRAV+5UV+bvkUl4rXnPBznlE3WE1xYqNSWpLZ+Aznbxwkvi174/iwy7vZlw3/bsr2PkD0WhkPbF+23q1ZfAcOnJQ1B1Zw/A57D6wWz3qDJiZw6YPEaV6FRd5u7yl/E3gb+Pzbh+L1mObi137dqktg2frzi2i6vDyvteK39v5C+fVo8QONDcJIYQQG9DcpJwKS8sfvf9+nwGW1VJpvZpXqug7L9+bOS3Hjy6cL2675RblOLIwp/fs7jvWR19v8y1rvU3Uw9SOm+ttavronbd9bTrXriVuu/VW5f+xk/nBeXMs7bH0XWv/7ceZRqsT6ettfpr7PWkbf/pNV2+zRMGs622WKvKZr33Dsr9I22SlyiWK+65RpWQJaRuKCiSamyRUjh4/KqoNqSieb/W4eKbloz590vt9x9mLMN56Te4ucrR92nAts/J3fVes2BCcqbVz305Rum8J8WzLfxuu+eOAEmoL+8AgazaikXih9X8M1zLr8+4fi517d6hnOWPV5lWiaI+Clms2GVlfbWGfs+fOikr9fxXPtXrMcj1N+Fx+TP98jqUcU89yxuzEWenfTy7LdQdM66u2sM/hY4dFyd7FLNfSC7+7mkOrKOafXXbv3yWK9SgsvZ4mfKeNR9UPKpvzjz/+EANn9hc5271gue7aLWvUVvZZvTl9TtQ1t+VaeuVo95ToPrlLUBnD+Ozaj28tcrSx/t2dPntabUXsQHOTEEIIsQHNTSoYFXjnHZ8BlueN16UZhVhOjp3Qt+t+U3qz8L1XXzW0h8oW+9J3POcLLxiuW1xXbxMmqf481NvUlpzDFF03dozhuKafvvjcdw0Ymtr/m3ds16TPBn33FXl9yh3TpyrLx2XHIH29zXbVq0nb+JP+c+7d0Fqf1Cz95/fDZ4WlbbZOmih9XNPLT2fW25zQpZO0DUUFEs1NEiwwUYbPHire6fSKxRCBgjE3201sZTEd/en19s+JpPWJ6plZA5Oq64SO4rV2z0qv59TcREZh1RHlpdeSKVfnV8Xu/faz9mBENhlRX7zY5r/S6zk1N2FgFe9fVHotmQp1/1CcPHVSPTtrYERWHujfOHVqbh4/cVwU6Pm+9Foyle5f3FaG7L6De0Werm9JryFTxcG/KGalXTZsXy++7vGZ9FqQU3MT5vYbHZ6TXkumlmObqmfaY+HqBUoGr+xaEM1NZ9DcJIQQQmxAc5MKRgOaNfUZYBA2yVk8ZJDYM3O62DB+rOjbpLF45emnFaMRGY+X1POwbFs7B7twT+vRXVmajk2EKnzzta++JTb8SRqRWZsSRql+Yx/9DuoQamNqx5R6m6Yl65r0O7VrevPFF6Q7tkOzevfytcPScmRhnlq2RKnfmTh8mPjly6Lipn/8Q4zt2MFwHt4TNkLCDu14Pdo1xnZsrzx+0GYdy5d1G/vAGIaJmrJ4oZjSvauoVbqUxVTuUb+erz02FsLnjdd6Ov01z+vfT3yZ/0Pls12dMMpwHq6L14XHr7suY9Olv6f/d9nQIcrjyKjVt6eoQKK5SYJh++5tomSfwBl1Ts3N+SvnBswolClvp7dsmS+J65aJwj0+kl5Dk1Nzc/CMAdLrBNKXPQvaWvI9bckUZemx7BqanJqbv41uLL1OIFUe/muWpQXwfobOHCTe6vCy9BqanJibeM6yA0tJrxNIbSa1UK8gB6+1RF/7Bq+m3jN6qFfwT9r5NNEyoZl4uc2T0mtocmJunks9J/J3s2bBBhJuDsxImq5ewT8pJ1NE9UGVLBnXZtHcdAbNTUIIIcQGNDepYHQuKVHJrNSMNAhGJmpimjfg+dftt/vMsZNLF4u70v+tHUNbmIPYFV17DNcY0qK54fm2TJzgq7d5+623Kpma+uMdatbwnf9Fvg8Mx/TCEnqtHQQDT2+imgWT9JknnjCcg42QIK2OJoSsTizX187bOGGcsimPtjGPJuyqjseqf/+d4Xn86esCH/nOxed7Q/rz4jVrn7U+KxY6PH+u4fNFO+314v+1x7831Red0LlTxus1fXfae/CX2UpRMtHcJE5A9mP7cW3EK23/JzVC9HJibsJ0+rirNXvs54E/iM07NolzaeeUZeiyJcptx7VUr2Ll9JnTot7wmuKF1k9YzjPLibmJjMa321vNvLojaijZmWfOnRHzV8wTBbt+YGkzas4I9SpWDh4+IH4dWNpW9qoTc3Pbrm2WDFCYWu3GtxZHjh0RJ0+fFJMWThTvtX/N0AZm8/J1y9SrWNmcvEl82/tzwzn+5MTcnLN8luUzyNHuaTFwRj+RcipFHD1+RKm9+no7Y0YjlmbvPbhXvYqVsXNHG9pDyIocMXuYOHXmlDh87JDoN7W35ff9ZscXlUxSf8xJnC0+7PKO4Rx/cmJudhjTxnJ+ni45xfSlU8XZ1LNiz4E9os3oFhaD8qPuucXvv/+uXsUIjONRs0eIdzoFNqM10dx0Bs1NQgghxAY0N6lghV2033s1h8EM0wum2Ocf5BXJ06YYzpvUtbNiaMrOQZbj1B6ZdTY19WmcWW/zw7fetBwv/P77vuNd6ta2HNc0o1dPXzuoUvFvpe30Wp0wUjxwzz2G8zTBMHznlZfF4sHGTNJu9epK22uaaHO5N7JgsZGR7Br4DPF+zOfg88OGS7JzYCZ/mju3smu9/hzU1pS1h2B4rh8nX+ZPUTLR3CR2gbFZtJ88+xEm2Esm88yJuTl9yTTDudD3fb6yGDTdJ3axtHur88tKhpsZmFF5ur1qaQ/B7DQbnk7MzZ4TuhnOheoMr6YezaT20OqWdgV75ZVmQ25K3ihe7yBfMo/P1pzV6sTcrDPY+jp6TO6iHs0Ar6lk3y8t7X4e8IPawsjspBmW71yTzPx2Ym6aTWy89ylLJqlHM8AS9A+7WQ3FZqMaqS2sFO6Z39AWdTUXrV6gHs3g/PnzymY9+nZQlwkd1RZGukxp59eMln0Ods1NbMr0bqcchnNfbfeMSN6TrLbIABsJvdzWmi06adEEtYWRWgkVLW01yV4vzU1n0NwkhBBCbEBzkwpFyFac3K2LKFP0C5Hn9deVOppF8+UTv1WsIDZNGC89B9o6eaKoWeoHkf/tt0Tu115TdkXv17SJOLN8qbT9tJ7dRdPy5RTN6tPLcAxLwLvVq+M7vnvmdMNxvbAcXGuHzXqwxFvWzqxjixaIttWric/yvC9y5cghCr6XS9Qr85NIHD5U2h7LxrXnkenEkkXS82TaOW2qqPHD98oGTPh8v/m4gGLgyjZA0oTPAEvwP8mVS3m9RfLmSf9Oyvv9Toa0bC59nVCbalUD1hSlKLNobhIntBzzm8X8+LTX+0rdvuL9jcaYE3Oz3MifDOfCdNqyY7N6NAOYTtglW99O04T549VWmcCsKzfQeF3o236FxYbk9SJPtzcNj9s1N3Hdwn2MJtlr7Z+1mEDY8R2ZhPp2EIy6NZusBhfqOmLjIX1bmGa/DvperN2+Rrza/hnDMbvmJkxpZB7qz/242/vKZkh6lq1damijCcaZLGsRWbG5O75haIsMwrojqoqlG5cYHofsmpv7Du21ZJminqaZEbOHGtpoer9jTst7A5t3bbK0rTKknHo0k56TrMY19Gm3fNKSAuu2rrW8XpiQ3Sd3FAPn9Dc8Dtk1N6cun2w5F5v+mKk7rIalHVSm7/dqCyNTFk+ymLHvdnpFjJwzVDQf18TwOERz0xk0NwkhhBAb0NykKIqi3BTNTeKE1LRUkVfdjAU7K3ee2MG3m3TxHsGZm8jOfKO9cXlx0d6fqkcz6TWlu6GNXtUGV1RbGdl3eK+y8RDavN3hZWUps2ZQ5ekanLm5/9A+xXzVnyszyeoPr2Voo1fncR3UVkZWbE7yLTH+oPPbyvJjgGXwwZqbS9dYjcYO49qqRzP5vv83lnaaJi6wmsdg9KJRvjafdftIJKobPG1J3mw4H7Jrbg6bOcRy7rj5Y9SjGSBrE0uvze0gGHdrt6xVW2bSfUJnS9t5SXPUoxlkGOjybF+Y0lgGLqPRuHpKGzx3mf7fK8Y2GD7dasDaNTdrD6lmOde8IZU/Ax3C7/6Cnx3kSw8rrrRB9nKtYVVFyokU5fEWw5tZrkNz0xk0NwkhhBAb0NykKIqi3BTNTeKUycsmip+Gl1SWw+oJ1tzcsHW9JZOs+Rjjjs8wnXJ3NtaD1KtA39x+n6vnjG6i+qhK4ujxo+ojGQRrbk5aMMFwHjRszhD1aAb7Du5TakSa22kqNcz/c9UfV0u0mNBUpKamqo+EZm52HtPRcB60ZN1i9WgGKzYkWtro1WhMPbWlERjFZUeVFr1mdDdkS4ZibtYYWNlwHszeg0cOqEczSJgzwtDGrP4zrc/1c58fDG3w/aDWqJ6+U3oa2pg1dpHRZNXAdb4a9pmYsnSyoeRAsOYmrvFJl7yG8/J0y6kezaTBiNqGNmat3rpabWlk5/6d4ovBBS31VGluhg7NTUIIIcQGNDcpiqIoN0Vzk7hFsObm6FmZ2X+aRs0YqR7NoN+0PobjWAau/zeWTp89d1ZtbURvNukJ1txsN6q14Txoxbok9WgGDUfUNRw3G5NYzu0P2WcWirlZqV9Zw3nIOsUmQnqw7Ft/3FxLs3ivL9WWVmSvNxRz8/NuxqX5Ods9rx7JAFmbn3TP3HzK/LlAtQdb65+a63Pm6/C2eiQDGOjvd8lcZm/+jUEtRzZTW1uRfQ7Bmptnzp4Rr3cwZjN/3+1r9WgG+w/tNxjostc7fOZQtbUV2euluRk6NDcJIYQQG9DcpCiKotwUzU3iFsGamx3HtzWcB2EptQZMpzxdMo3IvN1yinojrEu+k3dvV8+wR7DmZpUh5Q3nQUeOHVaPCnHg8H6D4fZ1v8Lixz4lDe1xXLYJkj9CMTeL9S9kOA+b5eiXK6/ctMKwWVG1EeXFx52MO9fn75nLr0ksI1hzE3VH3zFtovNZ7/zq0QzGzjfueN5palvxYmujGftD/2/U1hkgq/TlNsZNd7B5kp7+JgO92/SOll3IKw4qq7a2R7Dm5q79uyzn1RlaXT2aQaORRgO9+/ROhn9Dbce0VFvbg+Zm6NDcJIQQQmxAc5OiKIpyUzQ3iVsEa242GFrHcB60ZWfmZkIDZ/Q1HMO/O41qb3gMWroq0xC1Q7Dm5g99rLUpkU2o0TShgeHYnBWzRdU+FQyPITty34F96hlZE4q5+WFPY8Zinq5vGYzKMgMzjVdsjLNt11ZRrGthwzk5Oz6vGI92CdbclGUslhhYTD2aYVIW6vGB79ibnV4Sp86cshiin3bOp56RATJVzbvjlxvys3rUaqDjt3Hi1AnLa/m2a1H1DHsEa26uWJ9kOQ+beWlgmb7+9/BN389F8u5kixlbu781gzUQNDdDh+YmIYQQYgOamxRFUZSborlJ3CJYc7Ny73KG85BFuGtvRj1PZBhqGxhB73V5XXms94QehnOgGQumKefYJVhz84suBQ3nYQm3tknR4aOHDKZTsd6FlGP1BtU0nIMao9uStyrn2CEUc/OtTi8Zzsvf7j31iBCrN68yGGKVh/yqPP59r68N56CNbAdyfwRrbh49dlQpMaA/r3SXzO9l/MJxhmPtx7dRHv+gW+ZvBHq/tbE+5c49Ow3ZqVCVnhXUozDQjbua95vWWzGszbvzF2przCLNimDNzTlLZ1vO6zA8cxOopgkNDcdmJ84Sh44cUkxz/eO/dv1JPcMeNDdDh+YmIYQQYgOamxRFUZSborlJ3CJYc7NcjzKG85Bht3f/XuXYkFkDDcd6T+2uPN5/snEJMTRt6RTlmF2CNTcLdfzQcB5MR83cbD62ieHYzGUZhmujYRm7aeu1eccm5ZgdQjE3zbUYC3bIqx4Rouyg0r7H8blrr6l0nxKGc6CLly4qx+wQrLl58PBBi0H3c7cflGPYVb9wr/y+x5FNmnIyY5fv/D3eM5yTp4vR3NyyfYtl06oafaoox2CW5+uamd2aq0sO5TGYue91NW5iVaTvR8o5dgnW3Jy2YKrlvK6jOinHkIVqNNALKlm1x1KOWT67CkPLKOfYheZm6NDcJIQQQmxAc5OiKIpyUzQ3iVsEa26W7/Gz4TzN3Lx48aL4sNu7vseRRYflw6Df5N6Gc6CpyyYrx+wSrLn5WaePDOdhUxeYm8dSjhpMp897f+xbyt1oqNXc3LIrc+l9VoRibpqXVn+impvrtq5RPmvt8fKDM42wUn0yNxjSdOnyJfVo1gRrbiL7EEvj9eeV6fq9cmzKkomGx1uPaa48DvL3yGU4lrubccOmbTu2SczNysqx4XMGGx7vOaWb8jjMzVxdXjUcK9QvMpmbMxZNt5zXZVRH5VhLk4E+belU5fGjx49azM1fR9DcjDQ0NwkhhBAb0NykKIqi3BTNTeIWwZqb1fpWNJyH5cNYRjx8rtF06j6ps3qGEN3HdTUcg2YvnqketUew5maxbsYNemAowdxsOa6x4fEpiyepZwhRe2A1wzG8x+Sd9jdACsXcNC+t/rDNu8rj5YeU8j2G17Nx+wblcWD+LmE4RmJZ+rHjx8Qrbf9nOO+HTsWVz/fzPplZm290eE4x8zT0u5xDedsad0LfvXeXpR5lpR7lFAM9f/fMrM13Or8i0tLSlHMuXbpkWdJfpP3HyjG7BGtuzl8+13Je+2FtxPGTxw2/gyK9CvgM9AOH9hvMaqhC91+UY3ahuRk6NDcJIYQQG9DcpCiKotwUzU3iFsGam01HGDfggVYnrzRkbWKHb/3u4q2HtjC0h1asS1KP2iNYc/On/sadz6GDKcYNXgr3zG/YgMe89B51OpGlaJdQzE18D/rz8vbIKdbuMGZt/jKwlNo6g8IdjNmpMP0isaFQamqqstxcf973w74Uk5dPMjz226jG6hkZvNbOmJ36eTejCYnNgSxLtkf8KIbONxroXSdkZEcCZAmb639+3+Nr9ag9gjU3125eYzmv9YRmovkkY9bm5EUT1TOE2Jq8xVJXtP6g2upRe9DcDB2am4QQQogNaG5SFEVRbormJnGLYM3NHuOtWZjVJhl3F+80rp3aOoO6I40b9ED7D+1Xj9ojWHOz9iBjFiZkfr0TFoxTW2fw3aCvDMexVByZgXYJxdws0auo4TxkI5YelbnsHMu1YaZpIEsyn2mH9UJ9PjDssJ4VwZqbeI48HXMazivYJ48oMrCA79+vtXtW2bhJ4/yF85aszLKDMup0auB3mKPt04Y2Xw76VOTvlbmc/e2OLyu7tWscOX7E0B6qOTRjKbtdgjU3Dx4+YDEqfxnzg6F+aqHuHyp1SDWWrltiaA91nZhp1tqB5mbo0NwkhBBCbEBzk6IoinJTNDeJWwRrbk5dPMVwnllvdnhJnDp9Sm2dQfFexudCtp9Wj9MuwZqb3cd3MZxnVsHueS1LuPN0Mhp2Bbq8rx6xRyjmZu0h1Q3nmfVTv5Jqywxg8OVo95ShzY89jG2yIlhzE5ToY/xuzWo8vJ7aMoPNOzZb6mk2HtJAPZpJ4d6Zy9pl6jjWaKAvW7vU2iahvXrUHsGam/gtI1vZfK5e4+aNUVtnMHym9bkmzDWa7FlBczN0aG4SQgghNqC5SVEURbkpmpvELYI1N3fv223JUtOr3ehWassMYBy+28VYR/Lz7s5qIYJgzc35SfMM55k1evZItWUGh48etmySU2lAWfWoPUIxNwdO7Wc4Ty+YgivWG5fz49/mdm0SWqpH7RGKudlkuLVMgaZX2z0j9h/cp7bMICH98za3S5g9Sj2aSbWBxtquer3Z4UXlM9bTe2IPS7tZy5zVdQ3W3ATFehhru+r1cdc8FgO9/pDahjbIZt22a5t61B40N0OH5iYhhBBiA5qbFEVRlJuiuUncIlhzU1mK3NWY2agpZ4cXRMqJFLVlBqs2rbS0azLMmqmXFcGamydOnrAYjZo+6pLbYjqNmTva0m7g1P7qUXuEYm5uTt5kOE+vH3p/Y1lu3n5sa0u7BSvmq0ftEYq5OXXRZMu5muoPqaW2yqTy4HKGNqglumvvLvVoJkOnG+tr6tVWYt6W7mfcMR71N82/xawIxdxsPrKp5VxNCbNHqK0ywN/ZR91yG9q81/F1pcSAE2huhg7NTUIIIcQGNDcpiqIoN0Vzk7hFsOYmaDDcmHWmqeXI39QWmdQaVdXSbsnaxepR+wRrboIf+nxjOFfTiJnD1BYZwDgsPsj4uWBjm32HjNmHWRGKuYnvIL9ucyZNyNpcumaJ2ioD1AHN19tYb/PtTq+ICxcuqC3sEYq5iRIEr7c3bhAE5Wj7lNizf7faKgNl9/AOmXUoIewgLqsPihqa5t3EoZztnhfHUo6prTLYc2C3Jdu2ZL+v1KP2CcXcTFy/3LLcHsrfJZfFQF+0ZoEl+7nuiBrqUfvQ3AwdmpuEEEKIDWhuUhRFUW6K5iZxi1DMzXXb1xrOhWAu7T2wV22RweJ1iyy7Xn/c9X2L2WOHUMzNCYvHGc6FUBv04sWLaosMhs8fajGdfujj/O8sFHMTdJrSznAu9Fm3jwzfDwzB1hObW9o1HF5HbWGfUMxNUC3BuoS8bL8f1aMZYDOdyiONWZtQ3ym91BZWfhpu3em+9uBq6tEMLl++LH4cWsLSbszcBLWFfUIxN7E7/ae9P7Ccj5qvemAGf2aqJ4rfXNL6RLWFfWhuhg7NTUIIIcQGNDcpiqIoN0Vzkzjlm+6fi8Ld8lv0cuv/GUwRmJCFuhrboDbmkaNH1CsZKT3IuAwYKtazsBg8daCYNH+i+G1UI8tGNxA2UvHHmTNnDM+vl3mHbeymbW5TtGdB9UpGYIAV7JnHcD6y7H7sW0KMnDFcTJg3XtQaWtVixMJ0Wrraf5bppq2bLK8B+qRLHksWX872L1ja/drXaABqnDh1QtklXX8+3n+VweXE2Nmjxdi5o8Uv/UpZniNHu6eVmqj+mLlohuU1QPk7Z+5CrilXh1ct7ZpINv4BW3ZutmROvtzmSSXDF5vkjJg1THzT8wvDcSh359fF2XNn1atYSdqYaH2PbZ8Rv41sJCbOmyCGzRwiinb/xHAc+qhrbotxrafzqI6W9wbl6vCa5Vofdn7X0m7ENGPGr8bo+dZ6om93eFm0H91GTF4wSfSd3Fvk7/Kepc13vb+SZq9q1B1Q0/IaoLfaG38j0Cdd81jaLUh0VqYgnqC5SQghhNiA5iZFURTlpmhuEqe81sK6ZNiuYKjt3W/MxtTYsSdZvNbeuMQ4KxXvW1TJ4PPHiRMnpOfZ1Utt/qteycqi1Quky5wDqdqwSurZclassW7m40QF2vrfhX3E3CHScwKp88TAu4OPnDJCep5dlenyvXolK23GW7MIAwmm5fiFY9Wz/VN/VODd483Cdzx3xWz1bDl1etWUnmtXnUd2VK9kBNmbpQZ8JT3Hn3ADYOuureoV5JRoX0x6rl1NnDNBvRIxQ3OTEEIIsQHNTYqiKMpN0dwkTgmXuQmmL5mmbNwiO9esj/rlVnYiD0Q4zU3Qf2rfgDu96/X10M+yrF0ZTnMTS9CbjWwoPU+mygnlFHMtEOE0N2FaI5tUdp5MbSbb29Ed30HJXvbMPXy3PWd0V8/0T7jMTYB6oAW7GLOE/QnZrpOXTVLP9A/NzfBBc5MQQgixAc1NiqIoyk3R3CROCae5CVZsSBKf9swnPR+C4VRlSDll1/KsCLe5CWYsnSbydDPW79QLS9ObJjQIuKxZI5zmJsBS5aEzB4k3O74oPR9Cbc8ek7tmaWyCcJqbALt9dxjfRrzS1ljyQK93Or8iEuaOVM+wBzZOap7QRPl+ZdeEcnd5XUxZPFk9IzDhNDfB6TOnRdXBFQIa6Z90yyOWr12mnhEYmpvhg+YmIYQQYgOamxRFUZSborlJnAIDbtnKpUFp+aplSr3KrECW4YIV80WLhKbi524/iO87fiMq9ikruo/vLHbsTVZbZQ0MOtnrsKvE1cvVKwUGGxpNXThZNB5RX/zU9TvxfadvRbX+FUW/yb3FoaMH1VZZk5qaKn0ddrV241r1SoFJTUsVo+eMEvWG1BSlOpcQP3QqLmoNqiqGzxgiTp4+qbbKmuMpx6Wvw662JQdePq2RcjJFDJk+UNQYUEV5raW7lBD1h9YW4+ePcbyTu54jxw6LAVP7Kt8VvrMfu5QUjYbXE1MWTbT1O9XYtWeX9P3Z1cFD9n4jO/fuFD0mdlX+FvA3gb+N5iMbi3lJcxQj2C5btm2Wvg67OnnS/m8k3qC5SQghhNiA5iZFURTlpmhuEkIIIe5Ac5MQQgixAc1NiqIoyk3R3CSEEELcgeYmIYQQYgOamxRFUZSborlJCCGEuAPNTUIIIcQGNDcpiqIoN0VzkxBCCHEHmpuEEEKIDWhuUhRFUW6K5iYhhBDiDjQ3CSGEEBvQ3KQoiqLcFM1NQgghxB1obhJCCCE2oLlJURRFuSmam4QQQog70NwkhBBCbEBzk6IoinJTNDcJIYQQd6C5SQghhNiA5iZFURTlpmhuEkIIIe5Ac5MQQgixAc1NiqIoyk3R3CSEEELcgeYmIYQQYgOamxRFUZSborlJCCGEuAPNTUIIIcQGNDcpiqIoN0VzkxBCCHEHmpuEEEKIDWhuUhRFUW6K5iYhhBDiDjQ3CSGEEBvQ3KQoiqLcFM1NQgghxB1obhJCCCE2oLlJURRFuSmam4QQQog70NwkhBBCbEBzk6IoinJTNDcJIYQQd6C5SQghhNjAbG6uqF5FrG1Ql6IoiqKC0ryS39DcJIQQQlyA5iYhhBBiA7O5SVEURVFuieYmIYQQEjw0NwkhhBAb0NykKIqiwiWam4QQQkjw0NwkhBBCbEBzk6IoigqXaG4SQgghwUNzkxBCCCGEEEIIIYQQEpXQ3CSEEEIIIYQQQgghhEQlNDcJIYQQQgghhBBCCCFRCc1NQgghhBBCCCGEEEJIVEJzkxBCCCGEEEIIIYQQEpXQ3CSEEEIIIYQQQgghhEQlNDcJIYQQQgghhBBCCCFRCc1NQgghhBBCCCGEEEJIVEJzkxBCCCGEEEIIIYQQEpXElbl56tRFMWHCDttateqoeqY9rlz5U3qdQDp79rJ6tj02bz4hvY4/LV16UD3TPrLrBFJKygX1THvs3Hlaeh1/mjdvn3qmfaZP3y29lj8dOHBOPdMeBw+mSq/jT9Om7VbPtA/et+xa/oTP1Qn43mTXCSSn4Pcnu44/4ffthHPnLkuvE0j4O3UC+gHZdfxp9Wpn/cbly39IrxNIqalX1LPtsXFjivQ6/rRs2SH1TPvIrhNIJ0446zd27HDWb2zfflI90z0mT94pfS5/+uOPq+qZ9lix4oj0Ov60bt0x9Ux7XLjwu/Q6gXT+vLPf2vr1x6XX8aekpMPqmfa4evX/pNcJJIz9Tti+/ZT0Ov60cOEB9Uz7OP0tHT6cpp5pj717z0qv40+zZu1Rz7QPzpFdy5/wmpyA9yy7jj/hM3UKvjvZtfwJvw0nOJ13QviNOwF/Q7Lr+NOGDcfVM+2BPkB2nUC6ePF39Wx7oC+TXcef0Fc6AX2x7Dr+NGWK899SVmBMkj2XP2HMcwLGVNl1AskpmBvIruNPmHs4AXMb2XUCCXMoJ2COJruOP0UiFsRc1gnxGAvOn79fPdM+iL1k1/InxHZOQOwou44/ITZ1yty5zmLBXbuc9RvHj5+XXieQnLJkSXhjQXgpsusE0u+/hzcWdDrvJO4RV+bmokUHRK5cI8Q117SxpW++maKeaQ9MLGTXCSSnwWnNmgul1/GnvHkT1DPt89e/yq/lT06DovbtV0qv40/PPz9QPdM+997bXXotfxoyZLN6pj2GDt0svY4/3XNPN/VM++B9y67lT+3arVTPtAe+N9l1AskpH3yQIL2OP+H37QQYKbLrBJJTU+3bb6dIr+NP3303TT3THkeOpEmvE0hOB/4qVeZJr+NPH300Rj3THgjGZdcJJKcT1VatkqTXkemdd4aLhg2XqGe6A97jI4/0EvfdZ79vcWpCf/HFROl1/KlMmZnqmfaAuSS7TiA5vWny66+zpdfxp8KFx6tn2gOmiew6geTUrG/SZJn0Ov705pvD1DPtc/PNHaXX8qfx45PVM+3Rs+c66XX86fHH+6hn2uexx3pLr+VPvXqtU8+0B96z7Dr+dMstHdUz7ZMz5zDptfypadNl6pn2gKkgu04gXbrkzKwpVGi89Dr+VK7cHPVMe8Bkk10nkPbtc2Zk//TTTOl1/Klo0UnqmfaAeSS7jkzo49HXOzWZs6JevcXi7beHS59Tptatk9Qz7YEb4rLrBNL//Z+z95g//xjpdfypatX56pn22LQpRXqdQDp61NmNn5Ilp0mv40/Fi09Vz7QHTD7ZdQLJ6Q2HGjUWSK/jT/nyjVbPtI/sOoE0e/Ze9Ux7tG27Qnodf3rhBeex4N13d5Ney5+GDduinmmPwYM3Sa/jT+hbnPLccwOk1/KnDh1WqWfaY+ZMZ7EgPAKn5MkzSnotf6pVy1ksuHbtMel1AunkSWfm49dfT5ZeR6ZcuUYqhi7JHuLO3Mz40dkzOGlu2hPNzaxFc9OeaG7aE81N/4KxiT6sfv3F6pnuoL1HJwYnzc2sRXPTnmhuZi2am/ZEc9O/NGMT/x8OcxPXtWtw0ty0J5qbWYvmpj3R3MxaNDcDC8Ym/ktzM/uIS3Mz48eXtcFJc9OeaG5mLZqb9kRz055obsqlGZv4/3CZmxCC3/vvz7qPobmZtWhu2hPNzaxFc9OeaG7KhT5dMzahcJmbkB2Dk+amPdHczFo0N+2J5mbWornpX5qxCdHczD7i1tyEDh1KVWq1+JPTemlAdp1AcjqxwGuSXcefnNaUALLrBJLT9/Dnn87eg9MaiQDnyK7lT04nsWgvu44/ReI94HN1Ar432XUCySn4/cmu409O/+Yi8R6c/s2x37Ant/uNtLTLhhsz4TQ3ocaNl0lfh15OCfffC5BdJ5CcEg+/NbMi8R5iYYwK93uAnOL0by4ex1kgu04gOcUL/UajRksNfbzT32tW6M1NCGOW7HVo4pzOnpzi9LcWib8Xp2OUF/5ezAr3OBsLY1Qk3gP7DXtySlbvAZ6Svn+nuZl9xLW5mZbmLKuGEEKIN8HkRt+/h9vcbNEiUT1CCCEk2mnePNHQx4fb3HRqBhFCCPEmWKml799pbmYfNDcJIYREPTQ3CSGEBAvNTUIIIcFAc9M70NwkhBAS9dDcJIQQEiw0NwkhhAQDzU3vQHOTEEJI1ENzkxBCSLDQ3CSEEBIMNDe9A81NQgghUQ/NTUIIIcFCc5MQQkgw0Nz0DjQ3CSGERD00NwkhhAQLzU1CCCHBQHPTO9DcJIQQEvXQ3CSEEBIsNDcJIYQEA81N7xBX5uaWLSfE559P9OnSpT/UI4QQQqIZBIr6/n3kyK3qEXcwX3/cuGT1CCGEkGgHfbq+j3fbfBwxYmtYr08IISR7gKek79+3bj2pHiGRJq7MTUIIIYQQQgghhBBCSOxAc5MQQgghhBBCCCGEEBKV0NwkhBBCCCGEEEIIIYREJTQ3CSGEEEIIIYQQQgghUQnNTWKLy5eviDHzksWv7ReL4s3miW+bzrUttK/SdZmYuXyXuHLld/WK3uTPP/8UB5KWi7Utm4qlVcuLpVV+daSkutXFrvFjxMXz59UrEkJIfHP16lUxb+UeZRwIZvwo226RGDZrmziX6v1+9eT+fWJr3x4isWZl6RgRSMurVxAbu7QXx3fvUq9GCCGEMYg9MQYhhMQ7NDdJlmBHx9ajk8VzZeaIp0rPDlrP/zxHlO2yVmzacciTu0Qe37tbbGvdVCQWyiuWffRu8Pr4PZHcrrn443dvT6IIISQSJCzYJV4uO1c6LtjVMz/OFp83TRTzVu0Vv3uwbz1/7pzYmTBcrPymsHxccKDV330pUjNJz6oAAKqdSURBVHbtVK9MCCHxC2MQh2IMQgiJY2hukizZufeweL3CfOlkIRi9UXG+6Dw+WZw8fU59huzlfGqq2J0wzJWgVBMmJ3vXrVGfgRBC4pOz59JEgXpLpWNBMHrh57mieu/1YveBFPUZshdk2uxPXCY2Vv5ZLCuQSzoeBKMdnduoz0AIIfELYxDnYgxCCIlXaG6SLFmYuEE8/aN8khCscL2CDZaJ6Yl7sm2ZyB9//CEOJi0XGyqWUe50yiYIoWjlhHHqMxFCSHxy+MhxxZCUjQOh6J0qC0WfKduzdal6yr59Ykfb5iKx8AfSMSAUra38i/oshBASvzAGCU6MQQgh8QjNTZIl85aul04O3NDzZeaI8l1Xiy27j6rPFhlO7N8ntrT5TSz/NMTlHwGUODZBfTZCCIlPDh05FvJyQn9CgPpF0yQxf/U+JVCMFEqmzegRrmbamLWmwo/qsxFCSPzCGCQ4MQYhhMQjNDdJloRzYqEpZ6UFotPYzeLUmVT1WcPDhfSgNBl10b79TDoZcFOcWBBC4p1wmpuaXvxlrqjeZ4PYtf9YWGupwUDdj0wbLEEPQ6aNXjQ3CSGEMUiwYgxCCIlHaG6SLAk0sfi8aZIo2WaVX5VI1ztVF0rPNQtZOJ82XK7saOh2Fg52692bHpSur/yL7aB0RdGPxcYaFcSmmpX8akOVsn7rrHFiQQiJdwKZm/nrLpWOG3p9lN5Gdq5MWKref1p4lqqf2LdPbG7XwvZmD8s/yS3WVywjHTf0WlGsoPR8mpuEEMIYRDZuaGIMQgghRmhukiwJNLFYvznrHV33Hz4p6vZfL16yuVsudjSs2H292L7XnSycEwf2i+3tW4rEwvmkEwCzlhfMI7Y2rSuOJm/P8vlTjhxWgljZdTixIITEO4HMzaGTlqmt/HP6bJroPmGrklkju4ZZ2FX9i6aJYuHa/a4EqMi02eEk0yY90FxbpoTYO3eWuHL5snoV/yTVrSa9Ds1NQghhDBIIxiCEEGIkrszNpUsPihtv7OBTWtoV9QgJRKgTC4AdZZesPyC+ap6oBJ+ya5mFYLb7xO1KcBsMF9JSxd5xo8Wq4kWkA79F6UHpmp9LiH3pQenvV+z9NjixIMQbIAjQ9+9Nm2ZtnDnh6lXj9du2XaEeIYEI1dwE+G6T9x0XlbqvUQJP2bXMwiZGtfpuCHpXdWUXdGUJurNMm139e4lzJ0+qV8kampuEeINWrZIMfTz6fDdp3Hip4fpuGGfxAGMQ/zAGIcQbwFPS9+/Llh1Sj5BIE1fm5qJFB8Q117TxieamPdyYWGikpp0XA2Yki3erLpJezywsE/ms8XIxe8Ve21k4mMQcWLlCbKz2q+2gNKloAbFzQG9HQSngxIIQb4BAUd+/16+/WD3iDgh09ddv0SJRPUIC4Ya5qYFdbWet2CMKNVqmjA2ya5qFJYn9pu9IH3suqFfJmpQD+0Vyuxa2d0HHGLClUS1xZNtWx4YFzU1CvEHz5omGPt5tc7NevcWG69PctAdjEP8wBiHEG6SmXjH070uWHFSPkEhDc5NkiZsTC419h06IGn02KBtByK5rFrJwKvdYLQ4dP61eQU7q6dNiS8dWDpZ/vJ8elNYWR7Y7D0oBJxaEeAOam97ETXNT4/TZVNFt0g7xRkX7S9WLNksSKzYfUK8gB8HrrgljHG32gCXoe+bMtLUEXQbNTUK8Ac1Nb8IYxD+MQQjxBjQ3vQPNTZIl4ZhYAASSC9fsE583tb9MpFT71eLSJXkQiettb9VUOshbhLpoPxUXe+cGH5QCTiwI8QY0N71JOMxNgO97y87DomKP9eJ5P9c3673qi8TOfcfUK1jZM22yUu9M1p+blfRFAbGjfy9x9sQJ9ezgoLlJiDeguelNGIP4hzEIId6A5qZ3oLlJsiRcEwsN7Gzbc+IW8XaVrHc0xN3TleuT1TONHNq9WyR9/pF0kNcLddGS+3QX506GFpQCTiwI8QY0N71JuMxNDSxVn7p0pyjYYJn0OczqOkr+vWE3W6W+pqQv1wuZNlsb1hRHt25RzgkVmpuEeAOam96EMYh/GIMQ4g1obnoHmpskS8I9sdDYse+YqNFnfcANI3B3dc6SteoZRnZt2iSWfSwf5CFMADY1qCmObNmknhE6nFgQ4g1obnqTcJubGifPnBNdxm0Vb1ScL30uTY16zVPPMII6aWtKfS3tyxVhs4cfvxX758wIKdPGDM1NQrwBzU1vwhjEP4xBCPEGNDe9A81NkiWRmliA33//XSxYc8BvFs5LZeeKtZt3qa2NHN2/T7kjKhvkV5X8QhyY7W5QCjixIMQb0Nz0JpEyNwF+A9v3HhNlu6z1u+FQ73Er1dZGcO6mWpWkffnyT/OKPf16hrwEXQbNTUK8Ac1Nb8IYxD+MQQjxBjQ3vQPNTZIlkZxYaHQYuUr6fNhA4sjxU2orI+fPnfObebOuzW9qK3fhxIIQb0Bz05tE0tzUWLw62e9zzly2Q21lZUeHltK+fFXxIuLi+fNqK3ehuUmIN6C56U0Yg/iHMQgh3oDmpneguUmyJNITC0z4avTZKH2+fLUXK3dWZeC8jVXLSgf5zXWqiD/8nBcKnFgQ4g1obnqT7DA3Ry/YLX0+bDy0cft+tZWVzUMHyPvyzz4Upw8fUlu5C81NQrwBzU1vwhjEP4xBCPEGNDe9A81NkiWRnlhgx8FvWq6QPl+pdqvTJ5z+N3HY0fY36SCPXQkvpKWqrdyDEwtCvAHNTW+SHeZmu4RN0ufDhhEHj6Soraxsnz1DLPv4PUtfjh3U966WL2cPFZqbhHgDmpvehDGIfxiDEOINaG56B5qbJEsiPbG4eOmyeK/6IunzNRq8RW0l5+DwgdJBPqlIfnHmhP+gNlg4sSDEG9Dc9CbZYW5W7r5G+nyf1F8mzl+4pLaycmzrZvmGEB+/J5KnT1VbuQvNTUK8Ac1Nb8IYxD+MQQjxBjQ3vQPNTZIlkZ5Y7D98QuQoN0/6fL3Hr1ZbydmSHoDKM2/eF0fSA1e34cSCEG9Ac9ObRNrcvJQemH7dIkn6fN+3Xq62knPq2DElCJX153uH9FdbuQvNTUK8Ac1Nb8IYxD+MQQjxBjQ3vUNcmZtHj6aJPn3W+/THH/6XFpBMIj2xWL4mWbzw81zLc2H322mLAk8Odq9ZpSwhtAz06ZONLbNnqq3cgxMLQryDvn9fvfqo+qh76K+/fv1x9VESiEibm6dOnxV5ai6WPl/DAevUVnLSsCHEj99K+/OtLRurrdyF5iYh3mDdumOGPt5tVq06GtbrxyqMQfzDGIQQb/D7738a+nd4TiR7iCtzkwRHpCcW4xdsUyYR5ud69qc5YvPOI2orOaePHlE2f5AN9Mkjhqit3IMTC0II8U+kzU1k3bz4izUwhfpNTVZbyUGttc21K0n78/WVfwlLphXNTUII8Q9jEP8wBiGEECM0N0mWLEzaKF75dZ5FWLaxcdtutZV7dJ240zKpgF6vMF8cSzmltpJz6cIFsarkF9KBfmfn1mor9zhx7KhYUfRjkVjkQ4tWTRqvtiKEkPjkyNEU8UbF+dIxZNS0JLWVeyRu2C+e8ROYTl20SW3ln01+NoRY/cNXIu3sGbWVe6xqUk86fqyrUV5tQQgh8QtjEP8wBiGEECM0N0mW/PnnnyI1NU2qQLsGBkuNPhukE4uCDZaJ1LQLais5v//+u9iUHhTKJhabalVyPfMG10tLTZUKr4UQQuIZ9JGpafLxIxx95KhZG6RZNy+VnSvWb9uvtvLPjuGDpONHUtEC4ui+vWor97h08aJ0/LiYHiQTQki8wxjEP4xBCCHECM1N4ikwUfG3GUSpdquUSU4gMNAnt20unVgg8+b3K9xEihBCYpX2ozdJx4/Xys8XKafOqa38c3DBHOn4gZpph9YHrtlJCCEkemEMQggh0Q3NTeIpzpxNFR/WWSKdWNTtY2934tX9ekknFiuKFRQnjxxWWxFCCIklEFhW7SWvz5a/7lJx+fJltaV/dq5dI5Z/mlc6huyYMUVtRQghJNZgDEIIIdENzU3iKfYdPCpeKz9POrHoPTHremkgecZU6cQisVBesYuZN4QQEpMgq6Zos0Tp+PFjhzXKhkFZkXLooBKEysaQ1X17qq0IIYTEGoxBCCEkuqG5STzF2m2HpPXS8Nj05bvUVoE5tHG9soRQNrnYv3C+2ooQQkgskXbhkni36iLL+AE1HLRRbRWYK5cuidXffykdP5Lb/uZ6zTRCCCHegDEIIYRENzQ3iaeYuDDZMqmAsBnEmk32dkU8un+fsvmDbGKxc+QQtRUhhJBYYuc+ZN3Ml44hfcavVVsFBualvw0hNlYvz5pphBASozAGIYSQ6IbmJvEUnUatlk4s3qy0QBw6ekptFZi0s2fEmlJfSycWGzu0VFsRQgiJJRav2i6eLzNHOobMSrQXmIKd6eOEbPxYVfILcSEtTW1FCCEklmAMQggh0Q3NTeIZkDFTq+9G6cQiX+0l4rLNjBnsdri+8i/SicXmulVt1V0jhBASXYxZsEs6fjz70xyxeaf9jRyShw+Sjh+JhfOJ09wQghBCYg7GIIQQEv3Q3CSe4ffffxclWq2UTiy+b7vKUa2zTa0aSycWa8uUEOdTU9VWhBBCYoV2I9dJx4+3Ki8Qh44cV1tlzaaZ06Q105YXzCP2rF6ltiKEEBIrMAYhhJDoJ67MzXPnLoslSw76dPUqNwbwEhcvXhLv15BvBtFg0Ba1lT12D+knnVigDs7plBS1FSGxzZkzZ8Tx4/ZNnWhH37/v339OfdQ99Nc/eJABiteo1GW5dPwo2GCZSDt/QW2VNYc2bRTLP8ltHUM+fk9snDpZbUVI7HP06NH0ubP7fakXQZ+u7+PdZt++s2G9PgkNxiCEuEs8xSB//nnV0L+nprI+e3YRV+bmokUHxDXXtPEpLY0/PC9x6Nhp8cqv86QTi14T7e10q7FjxlSxrEAu6+Ti49ziePI2tRUhsYmyKcqmTaJIkSIiISFBfTS2wXvW9+/16y9Wj7gDbobpr9+iRaJ6hHiBK1d+F181T5KOHz84zLo5k3JcJBb50Dp+pOvAsAFqK0JiFyytXbZsmcidO7dYsWKF+mhs07x5oqGPdzsBol69xYbrO+mTSPhhDEKIO8RjDAIzU9+/8wZW9kFzk3iGpPW7xQs/z7VMKp75cbaYutjZZGD3qhXKEkLrxOI9sWPeHLUVIbHHxYsXxYgRI8RTTz0l/vKXv4jBgwerR2IbmpvxzanTZ0WemvKsm4YOs27Op54Ta3781jp+pCu5dVO1FSGxCTI1u3btKh566CFlDFm6dKl6JLahuRnfMAYhJHTiNQahuekdaG4SzzBx7lplEmGeWGAziKSNB9RW9ji+e6dI/EySeVMgl1g1bJDaipDY4vDhw6JSpUrilltuUSYV11xzDc1Nl6C56W0OHD4mXi5rDUyhrhN3qq3scfnSJbGxalnr+JGujdV+VVsRElugD01OThbffvutuOGGG3xjCM1Nd6C56W0YgxASGvEcg9Dc9A40N4lnmLpgvTKJME8snk6fbPSalKy2ssfe6ZOVO6SyicXahOFqK0JiAwRJCxcuFG+//ba47rrr0vu3a3yiuekONDe9zaEjKeLV8vMt4wf0Q9vV4vff7e9Qe/LQQbGi6MfW8SNdm2pVUlsREjtgM5Vx48aJZ599Vvztb39L7+MyxxCam+5Ac9PbMAYhJDgYg9Dc9BI0N4lnOHT0pHij4gLLxAIq1Gi5UuzbDn/88YfYULuKdVKRrsRCecXh7VvVloREPyjY3a5dO/Hggw/67pTG48SC5mZ8c/nyFVGiVaJ0/EAdta07D6kts2ZbevAprZeWruShA9VWhMQGR44cETVr1hR33nmndAyhuekONDe9DWMQQpzDGCQDmpvegeYm8QwoYF+l1wbpxAJ1cJau36e2DMzRHckiqUh+6cRiU40K4srly2pLQqIX/L1s3bpVFCtWTFx//fXSSUU8TSxobpIhM7crWTayMaTzOHsB5e9XrogNlcpIxw9sMnRs9y61JSHRzZ9//imWL18u8ubNq2Rr+htDaG66A81Nb8MYhBD7MAYxQnPTO9DcJJ5idtJuv8Fpg/5rbE0Gtw7uJ51UIBNn76RxaitCohcsIRw9erR4+umnLUsIzaK56Q40N73PgSMnxZuV5Jk3n9RfJs5fuKi29M+BDetEYuEPpGPI5vo1lL89QqKd8+fPi27duvnNttGL5qY70Nz0PoxBCMkaxiBWaG56B5qbxFOcPpMq8tdZIp1Y5K6+SKScPKO2lHPpwgWxruz30onFyq8+FScP21+aSIgXwRLCqlWrittvvz3LoBSiuekONDe9D34DVXutl44fz5eZI+avzDrrcnuPztLxA4HpzhlT1VaERC/apkE33XSTrTGE5qY70Nz0PoxBCAkMYxA5NDe9A81N4jlaJyRLJxa4mzppUeCi3vtWJInlBd+XTiy2t2yktiIk+sASwiVLlojcuXOLa6+9Nr0Pk08kzJJNLFATKtaguUnA3BW7pDveQrX7rlNbyUk7e0as/uEr6fixqvjn4kzKcbUlIdHH5cuXxfjx48ULL7wg/vrXv6b3Y/IxwyyzuYm+FuNRrEFzkwDGIIRYYQwSGJqb3oHmJvEca7buFy+VnSudXPzcaW36hPOq2tLKzo6tpJOKZR/nFnsWL1RbERJdpKWliS5duthaQmiWeWKB4t+//PKLaN++vTJROXXqVEwstaW5ScCZs6nio7pLpeNHrmqLxOFjJ9WWVvYsmCvf4TZdyeljCyHRyvHjx0XdunVtZ9voZTY39+7dK8qUKSO6du0qVq5cqYwpsWB20twkgDEIIUYYg2QNzU3vQHOTeI4rV34XxZonSScWr5afL3bsPay2NHI6ffKO7BrZxGLNj9+I8+fOqS0JiR6whPDrr78WN954o+NJBWSeWGBJya233iquu+46cfPNNytZPFWqVBGzZ89W6rBFKzQ3iUbrUZul4wcyb0bN3qS2MoLfz7bf6kvHj+UF84j9K5PUloRED/hdJyYmijx58ih9fjBjiNncXLdunZK5g+thLHn11VdFnTp1xOLFi8WlS/Z2lPYiNDcJYAxCSCaMQexBc9M70NwknmTglE1+i3r3mrxdbWVkz8xpSl002cRiS+9uaitCooMrV66IsWPHimeffTbLgt2BJJtY3HLLLYY2WKJ42223KbvmJiQkiLNnz6qtoweam0Rj7db94pVf50nHj1LtVkuzBE4c2C9WFCsoHT9QQw211AiJJpBtg+zKRx55xNEydLNk5qZ5TML177zzTvHpp5+KKVOmRGWQSnOTaDAGIfEOYxBn0Nz0DnFlbl658qfYv/+cT5xYeJf9h0+INyrKd739vGmiZddb1O/Y0qCGdFKRWDifOLxpo9qSEO9z7NgxUbt2bXHHHXcEdadULzsTC72wycSHH36o3EVFjbZoQt+/nz3r/mvXX//cuej6bOIJjAdft5Bn3rxcdq7YtueI2jKT3WNH+Q1MdwwdqLYixPtgbrtjxw7x3XffKf25rJ93Ijvmpl7Iyvnss8+U86JpuSH6dH0f7zYYk8J5feIejEFIPMMYxDkYd/X9Ozwnkj3ElblJogfUtKnQdY10YoFdb1duOqC2zOD47l0iqUh+6cRiY9Wy4o8YqOdBYh/ULUtKSgppCaFZ5okFaq899thjyhIT3C2VPQceQ2027Ih46BB39yTRx6AZ2/xm3nSZsFNtlcHlS5fExmq/SscPjCtHd+5QWxLibZBtM2nSJN+mQW6MIWZzc8uWLeLee+8V//jHP/xmhOJ577nnHtGoUSNlzCEkmmAMQuIRxiAkFqC5STzLtOU7xXPpkwjZ5KLRwLWGzNvkoQPkWTfpj+0Yl6C2IsS7YBlft27dxEMPPeTKhEKTeWKBvxtMFhAAV6pUSTz//PN+JzGoq/bOO++I5cuXK5N9QqKFQ8dOiZyV5Jk3BRssE2nnM5eZH9q0UamraRk/0rW5XrWY3NmTxB4pKSmuZdvoZTY3MRZgU6HRo0eLn3/+WTz55JPKWGF+TvwbY0v+/PnF+vXruVqKRBWMQUg8wRiExAo0N4lnOXMuTeSttVg6schdfZE4dSZVaXfp4gWxrlwp66QiXSuKfixOHuZdH+Jtdu7c6VtC6OakAjJPLPTAtDl8+LAYOnSocqcWmTjm58ed1UcffVSMGTOGJg+JGjARrtxjrXT8QMC6eO0+taUQu3p3lY4f2Dl957TJaitCvAl+69g06IMPPhB///vfDf23GzKbm3qw7Hz//v2iV69e4s0335Q+P8aQ//3vf2LGjBkxsas6iQ8Yg5B4gTEIiSVobhJP03zkFunE4tmf5ojJS3YpbfavXuk362Zri0acTBPPgnoy2HzhxRdfDKlgdyAFmljoOXPmjNL25ZdfVu6W6q+Bycbdd98t+vXrF1U11Eh8M2vFHr+ZN3X6rVNMIexgu/qHYtLxY+U3hcW5kyfUqxHiPbBpUM+ePZVNg9wOSjUFMjf1IHO0e/fu4qmnnrKMZ3htDz74oLJZBOdkJFpgDEJiGcYgJBahuUk8zZrN+8TzP8uD0186r1E6uS2d2kgnFcs+zi12LJirXokQb3HixAlRv359pa5MuIJSyO7EQuPAgQOifPnySsFv/evC/2O5I67HyTqJBs6cSxX56yyVjh/vVFkojp04I3anjxHLP8ktHUM2t2vJpbTEk+B3uXv3blGyZElptoubsmtuAryu5ORkJQsINdXMYwhqdY4fP55LDElUwBiExCqMQUisQnOTeJqLly6Lr5qvkE4sXis/X+zcuk+sKv65dGKxptTXIu3sGfVKhHgDBHUrV65UdgMMxxJCs5xOLMClS5dE3759xQMPPCANTidPnkzTh0QFrUdvl44fz/w4W0yau11sblZfOn7A8DywMkm9CiHeAYYK6pWFM9tGLyfmpgYyStu3by/uuusuyxiCLNP58+erLQnxLoxBSKzBGITEOjQ3iefpN2WL311vO9fuq9RFk00sdvfuql6BEG+Agt19+vRR6sf422XWbQUzsQC4M4oaaU888YRlcoH6aRs2bFBbEuJd1m07IF78Za50/ChdY7JI+vIT6fix7tcfxIW0NPUqhHgD7DRbr149i2kYTgVjbgKYsKNGjVKWo5vHECw93LFjh9qSEO/CGITECoxBSDxAc5N4nt0HU8QbFedbJhXPlJ4l+hX8TjqpSCyUVxzexI6PeIc9e/aI0qVLKwW79QN/uBXsxALgzui8efOUiZB+coFJUcGCBcXJkyfVloR4k0uXLotvW660jB9Q5S+aSccPaM/QAeoVCMl+EOgh2yZfvnzKzrL6Pj7cCtbcBMgSmjBhgpJtox9DkHH6zTffiHPnzqktCfEmjEFILMAYhMQLNDeJ50HnVr7rOsvEIm+JEWL+R3mlE4sNVcqKK5cvq1cgJPtA9sr06dNFjhw5IrKE0KxQJhYAwenEiROVYt7662I5S7t27Vg7jXieQdM2W8aP50rNECM/kW8klFQkvzi8I1k9m5DsBdk22I0cy7kjlW2jVyjmJoAxO2TIEPHPf/7TcN0bbrhBWXrI5YXEyzAGIdEMYxASb9DcJFHBtGW7lBpp+olFzc8bSicV0K6xo9QzCXGH7du3K4GYU1WvXj2iSwjNCnViAf744w/Rtm1by8YVuJu6fv16tRUh3mT/4RPircoLDONHwW8HiEUf+dlIqG5VFqwnroMMFNkYkZW+/fZbJdsmu8aQUM1NgF15sZz++uuv910X7wfLC7EBESFehjEIyW4YgzAGIfaguUmigpOnz4m8tRb7JhUv/jBNjP64qHRSsaJYQZGyf596JiHu0Lt3b8OAHS0yTywuXLggpk2bJlJSUtRH7JGamiqKFi1qyBzC///yyy/iypUraitCvEmlHusNgWmzz6pLx49lBXKJndOnqGcR4h7oP/V9c7TIbG5iKeCsWbPEmTPONkvBeVhWr782Molq1qzJmwnE0zAGIdkNYxDGIMQecWVu7t17VtSrt9inK1c4mYommg3d6JtYfPZNX7HkI3kR723N6nOZE3GdWJlYHDlyRLmL+84774jRo0eLixcvqkeyZs2aNeLhhx823DnFUpFVq1apLbIXff8+d667wQX6FP31Fy06oB4h0cDMxJ3iuTJzlPHj1e8nickFPpWOH6uKFxFnUo6rZxHiHrFibq5bt07ceuutilE5c+ZMJSvTLgsXLhT33HOPYQx56KGHxObNm9UW2cfChQcMfbzb88jZs/cark+iC8YgJDthDOLtGASekr5/37fvrHqERJq4MjcRjF5zTRuf0tLo9EcTSRv3KbvePp0+sWhduJJ0UrH8k9xi9/w56hmEuEcsTSxuueUWZXKA/+Ku59GjR9WjgUF2TcOGDQ0bWiDzpmrVqsqykewEwYS+f69f393g8epV4/VbtEhUj5Bo4GzqeZGv9hIlMC1RrItY+lEu6RiyuV0LBqYkLMSSuYl+H2PIHXfcIerUqSNOnz6tHg0M6r9VqFDBUPvt2muvFY0bN8727M3mzRPTX09mH48+300Q8Oqvz34mumAMQrITxiDejkFSU6+kv57M/n3JkoPqERJpaG6SqOHy5Svi86aJ4vXvJ4rpHxWQTixWf/elOH+Od0uI+8TaxEI7jknCJ598ouykaIe9e/eKxx9/3PAc+PeBA9mbyUhzk2RFqxEblR1uu3/6k3T8WF4wj9iftFxtTYi7xJq5qR1HHc3ixYuLY8eOqS0Cs2nTJnH//fcbnuPZZ58Vx49nb8Y0zU0SCMYgJDthDJKBV2MQmpvegeYmiSr6TNooSn/VwW/WzaZuHThhJGEhVicWEALVzz77zFZwibujqJGmD24xORkxYoTaInuguUmyYu3W/SLvj+PFvPwfSMePtT+XFJcuXFBbE+IusWpuQhgDSpcuLc6ezdrYwTL2n376yVA7DRtFTJ48WW2RPdDcJFnBGIRkF4xBMvBqDEJz0zvQ3CSeBxMFdGYoGJy857Do/0UZsTh9YmHRJ++L/atXKhNntOcEg7hJrEwssAlE7ty5lcmA1gbLQ7A0sFq1araWdixfvlypmaOdjyAVO/raOTdc0Nwk/sBSJowf51LPi041esjHj3Rt699LXL50SVk6e/XqVfVsQtwhVszN/fv3i5dfftkQXGIMQQZn69atbf3toFYn6nZq52MM+fXXX7N1aTrNTSKDMQjxAoxBMvFiDEJz0zvQ3CSe4vz588rEGcXlUXh+zJgxYtCgQaJ79+6ibdu2oknjxqLaTz+Kaj+WFpXT/1uxzE/Kf6um/7t6+n8b1m8g2rRpI7p166acN2rUKDFv3jyxYcMGJeUddaE44SDBECsTC4Dlg8icQTCKSYXW9l//+peYMyfrelEoAP7GG28Ynuf5558XBw9m32BOc5MgqERWwPbt28WyZcvEhAkTlN9/r169RIcOHcRvv/0mapYrp4wfVdTxo1L6f6uk/7ta6VKiTrXqomXLlqJz586iX79+YtiwYWL69Oli9erVYseOHUpWAYxPQoIhVsxN9LWYTxUpUsQSoGKzB/y9ZAUCXCxF15/7+uuvZ+vSdJqbhDEI8SqMQTLxYgxCc9M70Nwk2QaCRExkk5KSxLhx40SXLl2UovJVqlRRCgy7rYoVK4r69euLTp06KRMWTNhRowN3YwnJiliaWAAElz/88INhaSAmGQULFhSXLl1SW8nB5Bx/S/pJCbJwcDc1u6C5GV/gDj1+w2vXrhXTpk1T/j5hXtaoUUOULVtWOgaEImSV1apVSzE/hwwZogSsCIARDDPLk9ghVsxNDWwCgVpp+nEA/1+qVKksMzDx91uuXDnDudicaOPGjWqLyENzM75gDEKiCcYgmXgxBqG56R1obpKIgc7oxIkTyh3M0aNHixYtWojKlSsrQaNsIhBuIQCuVKmSaNq0qVKrY8WKFcpEh4EqkRFrEwuATIJXXnnFMEG48847bU0QJk6cqNx11c7DNQYMGKAejTw0N2Ofc+fOieTkZKU2X8eOHZUlTOXLl5f27+EWxg/s+oydovv06aNkG6DQPbJHCZERa+YmQP3NJ554wjCGIHtzy5Ytagv/DBw40JD5iWXuMJmyC5qbsQ1jEBLNMAYx4rUYhOamd6C5ScIKJhMoMI9BGxNZBILhyKpxQ3hdKFLcs2fP9E5pCScZxEAsTiwAjBn9BAEBZqNGjbIMvBDUmne8xd93dkFzMza5cOGCks2VkJCgZNUg20vWf3tBCFSxJHHq1Kli586dXMJODMSiuQmaNGli2dyhR48e6lH/LF682FI3rVWrVurRyENzM/ZgDEJiBcYgRrwWg9Dc9A40N0lYQPbKtm3blLuR6Gyy685osNImGaiZg7u8CLBJfBOrE4vDhw+Lxx9/3Ncedz+xLCQtLU1tIQe1bZ5++mnDcxUrVkw9GnlobsYOWLKKume4Mw9DM7uyM0MRjE7U+cTydWQL0cggsWpuojzD3Xff7WuPMeT777/Pcrkt6tg++uijhvPKlCmjHo08NDdjB8YgJNZgDGLEazEIzU3vQHOTuEpqamr657xIKbwdjQGpTJgUYfkKlh2eOnVKfack3ojViQUKc2NCoD/nP//5j1LwOxD4W8cGEPrz8uTJox6NPDQ3ox+YIWvWrFE2b8ByQVl/HG1CkIpancOHDxe7du1iJk4cE6vmJjZJef/99w3nYKlhVsEpztMHpwhqsUlRdkFzM/phDEJiFcYgRrwWg9Dc9A40N4krIDNlxowZSpZNtN0htSsEqXXr1lWyibAjL4kvYnViAbOldu3ahnNuv/12pdB9ILDk9p133jGch4lGdkFzM3qBCYIlqljSHSsBqUwwbNGPINONS9bjj1g1N5FpXbJkScM5Dz74oLIcOBAIarHDrXYOzM18+fKpRyMPzc3ohTEIiXUYgxjxWgxCc9M7xJW5uWrVUfG///Xz6cIFBhehgt3Opk+fLrBrGQZe2YAci8JykbFjxyo1cUh8EKsTC4CaafpzbrrpJrFv3z71qBwEZu+9957hvBdffFE9GnnwevT9e+fOq9Uj7mC+fu/e69UjJFhgbqC2GLJS4mn8gIGL7NRNmzZluas0iR1i1dxE34jl5Ppz/vWvfynzw0DAFMWYoZ0DczNXrlzq0cjTs+c6Qx/vtvnYseOqsF4/HmEMwhgkXmAMYgT9p5diEHhK+v599eqj6hESaeLK3CTugaAUSz8aNmwYVxMKs1DLZ9asWcouviS2idWJBcwV7DqtPwebPGR11xRLiN9++23DeTlz5lSPEuIf3HFHMfjWrVvHbJaNHVWsWFH0799f2TGURkfsE6vmJsaCb775xnAOamlmlbmJOoLPPfec7xyYm/nz51ePEuIfxiAZYgwSPzAGMcIYhPiD5iZxBNLH169fL9q1axfXQalemFg1b95crFy5kksNY5hYnVicP39eKd6tP+fZZ58VKSkpags5CFxfffVVw3kffPCBepQQObt37xa9evWK6eXnToWJ/bhx41hPLcaJVXMTS4LffPNNwzlvvfWWMrYEAmPM//73P985MDfxGRHiD8YgVjEGiQ8YgxhhDEL8QXOT2AYTWOw8iGwT2QAb70Kw3q9fP2XnNxJ7xOrEApuc3Hfffb72CDBR3BuZEYHYu3evePLJJw3PhbprhMjABHbq1KmKkSfrP+NdCFCxNAsBKpbrktgjVs3NFStWiH/+85++9hhDMB/K6ne8detW8fDDDxvOq1ChgnqUECOMQQKLMUhswxjECGMQ4g+amyRLkDKOyWujRo3ievmHXWGZyMKFC5WUeRI7xOLEAlkQv/32m7juuut87fH/2Gk0K2DC3H333YbngjlDiB4st962bZuyWRDHj6yFAHXAgAFZZi2Q6CMWzU0YmMig++tf/+prf8MNN2QZ0IK5c+cqG0do5+EaHTt2VI8SkgFjEGdiDBKbMAYxwhiE+IPmJgkIinUnJCQod9NlgyglFyb7qKXGYt+xQyxOLNasWSP+/e9/K3dKtfa4g4qMmqxABsW1117rOw+B6ahRo9SjhAhx6dIlZQfbqlWrSvtJyr8QyOPvkxsOxQ6xaG7Onj1b3HPPPYYx5L///W+W9dIANtX629/+5jsP4wk2hyFEgzFIcGIMEnswBjHCGIT4g+Ym8cv27dtFy5Yteac0BCFARX0gbhYR/cTaxAJLOt5//31Dxg3+v3Tp0lne8cfdVgQb+udBAXBMVAgBWBrXpUsX1kULQVh+OXr06CxrF5LoINbMzY0bN4qXXnrJEJjCrETmGMaIQGCMwRJC/fPcf//9yryTEMAYJHQxBokdGINkwhiEBILmJrGATmPx4sWiRo0a0sGScqbKlSsr2QhcIhLdxMrEApNc7FSdJ08eQ9YMhDuoa9euVVv6B4W8zbvcorA3swQIfl8bNmxQdrGV9YeUMyGw79q1qzhy5Ij6CZNoJVbMTWQTY46YI0cOQ2CKceD5558XO3fuVFv659ixY+Kxxx4znPvee++J06dPqy1IvMIYxF0xBokNGINkwhiEBILmJjFw4cIFMXbsWC4BcVnIXho6dKg4d+6c+kmTaCNWJhYnT55Udqg1B6X/+Mc/RKdOnWzd4cdEWb+BBK4FE4bZAfEN6u/NmzePy9DDIGTgoHYpiV5ixdzcsWOHkmWJcUNrg//HmDB8+HC1VWBGjhwpbrzxRt/5CHJr167NMSTOYQwSHjEGiX4Yg2TCGIQEguYm8YE75thpzwtLQPAaMBhXqlRJVK9eXVnm1KBBA6VYMIoPt2jRQlmu0qpVK+W/+Dcex3FkDKE9zsMdS1zHK+8JyzSRsUCij1iZWCAD7JZbbvEdx6QCBbyrVKlia/nr5cuXlWUj+sD273//u5g2bZragsQj2Nly3Lhxoly5ctL+L9JCf4tl3didvVatWqJ+/fqicePGolmzZobxA8K/mzdvLpo2baqYiPXq1RM1a9ZU/iawwY8Xxg8ImUxJSUmcwEcpsWJuIutGn3GjBab4G8L4kBUYZ7744gvDGHLTTTeJRYsWqS1IPMIYJLzCa2AMEr0wBsmAMQjJCpqbRAGDXfv27bNtAMbz4k4tgjcEoJgwYNfMzp07K4MxluU5Fc7D+bhO69atlUkHMgMwWcFkQ/Y6IiEEAPv27VM/eRItxOrEAtkzmFScOnVKbREYBLbYQEL/HC+//DInzHEMskGyMyjF88KEhJGJABSBJsYzZAEEO35AGD9wDezcicAVpif+VrLTwMX4hU1ckCVLootYNTeRQYMbA3Zrwy5ZskTcdttthud4++23lc1jSHzCGCRyYgwSnTAGyYAxCMkKmptE2fgBwaBsEAynMJlAh4a7nBj4MQmQTRDcFp6nTZs2SoYOguHsmGQgAN+9e7f6DZBoINYmFljG8cgjjygTb7tBKe6Y/vzzz4bAFndcYfxktYEEiU1gSGDX40gHpXg+BIkwHDF+4Xcs6+/dFgJWBOHIAEVGKExV2esLp/CcU6dOpcEZZcSauQlheeHAgQNtZWwCLDsuVqyYYUni9ddfr/xtMSM5PmEMwhiEZA1jEMYgxB40N+Oc/fv3K0GabPALhzCZwFJBDKzIhonUZMKfEKi2a9dOmWRg+UgkA3QE5dwZNHqIlYnF0aNHlY0csKwDOws6CShnzZol7rjjDsNykEcffdTWBhIk9kDtJGQ2RrLfhLGHJX/IrMnu8QPCxBwTa2T8RDKjE881YcIE26YSyX5ixdzEhmEISnFzAXMYJ2NIQkKCEtjqx5Cnn35aHDx4UG1B4gnGIIxBiD0YgzAGIfaIK3Nz7dpjIkeOwT5duPC7eiQ+wWQSS4lkg57bwoCN+jNYDuGFgFQmvC7UzkGttUjdSa1bty475SihT58+vmwVJ8LdSf1AHGmZJxa///67MqF1aorgbus777xjeC+4Y4qlVtg9N7vBBEnfv/fsuU494g7m6w8YsFE9Ep9gCRGMPVm/Fg4h8MNvLVIZmsEIQSpqe0ZqMwyMUzA4mcEZHSBjUTZGZKXsHkPM5iaybDBvcbr78p49e8SLL75ouDZqpeFv2kmAGy76999o6OPdfk09eqwN6/WjDcYgRjEGIYFgDOLtGASekr5/X7eOy+Szi7gyNxctOpD+x9DGp7Q0ZxOzWAK1KSKxDAQTCgzUWPIRbN2aSAuvE3d0kR0UiQkG7iCz/o33QZYa7jI61ZAhQ8RTTz1lWIYXSZknFsGAzWJg2GAiob82AlWv/HYRKOr79/r1F6tH3OHqVeP1W7RIVI/EH6ixiaXosv7MTWH8wLJBLwekMsGsQd02ZAjJ3peb4hL16AHmnmyMyEqYq913333ZFqCazc1gQJ9RokQJJdjWrov389ZbbymZPF6gefPE9NeV2cejz3eTevUWG64fz+YmYxD/YgxCZDAG8XYMkpp6Jf01ZfbvS5ZwNUJ2QXMzDkEHiXovskHOLWFCgWV6WDoYLRMKmTDBQF01vB/Z+3RLCIQPHTqkfkMklkAAs3nzZmV3WOwoqx+YI6FQJxbIzsHS45tvvtlwXfx75MiRaqvsh+ZmZEDNPGQQhLtPRKYmlntHk6lpFkxO1HMLd11OXH/OnDlxnwkWqyArZe7cueLNN9+0BHeRUKjmJgJTZNfccMMNhuvefvvtijHvFWhuRgbGIPbFGISECmOQyEBz0zvQ3IwzsJyoZ8+e0sHNLaEOE4LSaJ5Q6IX3gaUiyCCSvV+3hCWNdneLI9EHMlcwUY10Bk4oEwssHxkwYIAShOpf87XXXqtMtmF0eQWam+EHk0xMJsMZaMGoQ6CFyaysP45GYQOicGfhwAxOTIzfbOJ4AOYD/j5uvfXWiI4hoZibWHrYoUMHJRDVv2YsR4dp46WasTQ3ww9jEOdiDELcgDFIeKG56R1obsYR6CRGjBgRtsAUgRsKVHu5JlooQgYRsnDCtWkEvhdkRCHLgcQmWDq6YMECJQMHy/MiMcEIdmJx6dIl5Xd/5513Gl4nlra8++67ntsAguZmeMHnO3PmzLD2f1g+iADL3PfGgrQAFSak7P27IWQqcYOI2Ab98tChQ8V///vfiAWowZqbMLKwWYzZjMUYUqBAAZGSkqK29AY0N8MLY5DQxBiEhApjkPBBc9M70NyMI7CsKVyDIu6UInAzD8axKNz5qlq1qvRzCFWYXEyaNCl9Un1V/dZILIJBGfVj/vnPf6b3RdbJgJsKZmJx/PhxUa1aNcuutvj/Z555RqxevVpt6R1oboaXVatWKf28rN8KVchGgwkSK5k2gYSMVATg4criRNYr6tmR2AV9HXYsL1KkiGWpdzgUjLl54MAB8eOPP4obb7zRcC2MITly5BBbt25VW3oHmpvhhTGIO2IMQkKFMYj70Nz0DjQ344RNmzaFZTDEQFi7du2YvVPqT1qAGo470BhwuLww9sFyPGTgPPnkk2Et9O1kYoHMiuXLl4t8+fIptd3Mk4onnnhCzJ8/35NBGc3N8IGC7VhWLeuvQhUmsLGarelPMHGxSRL6etlnEqp69OjhqeVaJDycOXNGMXTuvfdeQ1/ttpyYmxjXUP8VGwXpNw+C8Bqfe+45sWLFCrW1t6C5GT4Yg7grxiAkVBiDuAvNTe9AczMOQBZHo0aNpINYKELmCbJE4iHbRia8b2QbhWOzCEzWuHth7IMBeuPGjaJQoULi+uuvD0uAamdigQ0rdu7cqSxrRaBsnujg308//bRnJxWA5mZ4SE1NVcxHWT8VihCU1a1bN6ZqazoVPleYu7LPJxThs50wYQKzb+IA9N0wE9944w2lDlk4xhA75iaWO8LAwm/PvIwQwhjyyiuviKSkJM+OITQ3wwNjkPCIMQgJFcYg7kFz0zvQ3IxxsAFE//79pYNXKMJgGi9LQLJS69atw7JcE0E/s2/iA2TgYFfPe+65x/XJRaCJBWor4Q49JhSPPvqoNDhG9g3q82BZspeDMbw2ff9OczN0YI6NHz/e9ewQBKXYPTleg1K90M8jkHT7M8aYtH79evWbJLEOloFjXmbeUdYNBTI3cfMDNdzwN/3AAw9YsjUhjCt58+YVW7Zs8fQYQnPTfRiDhF+MQUioMAYJHZqb3oHmZoyzaNEi12vcYBBt06aNdJCNV2E3XLeX3CDYnTJlSlxMgElG5gsycDCIY4DXD+6hyDyxwPMsXrxYWRabO3duZTJjvkuqCYFyqVKlouIOPs1N94E55nbQhKAUvz1ZPxqvgsnboEED1w1OGMgnTpxQv00S6yBQHDJkiOvLDM3mJjZ6wFiF3yyWn8syNSE8hppu6EOOHj2qnu1daG66D2OQyIgxCAkVxiChQXPTO9DcjGFQMBi7z8oGrWCFnV7jrT6aXXXo0MH1JYZVqlQR27ZtU79REg/s379f/Pzzz5YdZoOVeWKBIPOOO+5Qru3v+pjYYDfevn37KjveRgM0N93l9OnTijkm65eCFWp5ITtA1n/Gu2BwYumm2wYnzC4s+SLxw7p168Snn36qbDbkxhhiNjexmZF2bX/XR720559/XowcOVIxQ6MBmpvuwhgksmIMQtyAMUhw0Nz0DjQ3YxQU5e3du7d0sApWGORwd1A2qFIZQlFztycX+My5NCS+QDA4aNAg8fjjj4ecgWOeWBw5ckTZgVDWFs+FejcIIFD/Jppq9tHcdA987wkJCa4abTA2sXxO1m9SmUINObc/97Vr16rfLIkXsMywRYsW4u677w45QDWbmzBPZcvP8Tx4/OGHH1Y2O8FS+Wgy8GhuugdjkOwRYxDiBoxBnENz0zvElbm5a9dpUanSXJ8uX/5DPRJ7YDLqZpFpLAPJrklFt27dlN1fe/XqJfr16ycGDhyoZKNgl7dhw4Yp/8W/0RGjtg/aoT3Ok10v3MLkws3lIahlNX36dPWbJfECBnUsC0ahb2TByCYCdmRnYoGAFEsZ8btFVg7qZEUj+v59+vTd6qPugEBUf/3Zs/eqR2IPbAzi5nJ0jEXZlbGJcaB79+6iZ8+eShYAxg/8TejHDwjjx4ABA0SfPn2U8QPnyK4XbiGDs2HDhq4anNh0AmYXiS9gMM2dO1dZZigzI+3KjrmJTBtkatavX19s375dWXoYbaBP1/fxbpuPU6fuMlw/lmEMwhiERDeMQZwBT0nfv+/ezTlXdhFX5ma8cOrUKVd3JqxYsWLEl4EgEMUEYsSIEWLcuHFi0qRJYtq0abY1efJk5TwsicJ1MNmQPU+4hOUhuPMk+zyDUa1atcShQ4fUb5jEE6iZh+XBwRb6lk0sUAcNeuKJJ0TRokWVNrt3746qu6QkPKBun5u7o6PeGjLIZP1kuITAEkEoAs+xY8eKiRMniqlTp0rHCplQZwy7jSN7FUErDM9IBqpu1+DEdfB+YjlTjPhn7969yu8g2GWGMnPz73//u7j99tuVgLREiRLK30q0ZWqS8MAYhDEIiR0Yg5Bog+ZmDIIB1a2gCIFppDJuMJnAnc8xY8YoEwPZhCFYIVjF54JAFc8je3631bZtW2VJoOxzDUbo/Fk7LT7B94475zly5HBc6Ns8sUhLS1PMn5kzZyq1dTiZIHqQ6YVMDVkf5FQYh5o2bSrtH90WMi2RNTNq1CglEHViZmYlXAsGKQLdSBmdnTt3VnZRl32uwQi7keLvncQnoSwzNJubx44dU8YQ9BUIVDmGED2MQaxiDEKiGcYgJJqguRlj4M45ghjZwORUmJxgOZts0HRTCBZxd9PtyYQ/YZKBABhLFGWvx00hY8ktowDLcljYO35BRgx2DCxTpoy48cYbbd9BNU8sALNriIyTJ08qS6Jl/U8wQvYhshBlfaNbQqCIZYEwH2X9vduC0YlsUGTjhHvpeqdOnVxdXojXzEAifsF3jyV/2jJDu2OI2dwkxB+MQbIWYxASjTAGIdECzc0YAhNX3BWUDUrBCLWTwhmYotg4ljJhoJdNAMItBKm4Q4sJRjgzcdzcARd3u3jnNL7BXU/8ZpGBY2dyIZtYECIDfbFbfRUCXGQfyvpENwRTc/jw4RELSGXCUm9k+oRz/MByTLeybxCcJicnq982iVdwE+O3336zvcyQ5iaxA2MQZ2IMQqIRxiDE69DcjCFQVwm7CcoGJKfCbnvhCkwxOGJ5X3ZNKMzCBAN3bcO1VASTs5o1a0o/Z6dCkIvNPkh8g7ueq1atEh999JG4/vrrpRMKTZxYEDugrlKdOnWk/Y5ToUYaan7J+sNQhSAQv2mnNdDCKSw3RI1P2et1Q82bN3ctOEVAH42bvRB3wW9g1qxZ4rXXXstymSHNTWIHxiDBiTEIiTYYgxAvQ3MzRkBHg80TZIORU6HGDWq1yAbJUIXdaCO1fNCpECxj2V447qAi0EfAL/u8nQpLIbELKiHaMuI77rjD7x1UTiyIHRBguWGgYQlcuDYQgjGHJeGy/ju7pQWoCJxlrz1U1atXT/p5OxWCU+xmTQhAzTP8Lm666Sa/YwjNTZIVjEFCF2MQEm0wBiFehOZmjHDw4EFXanMhuG3cuLF0cAxFGAxxpxQBoGxQ94rw+lALJxwBqlvZNwxOiZ4rV64ov9tXXnlF2SjCPMHgxIJkBXa3dcs8q1u3rrT/C0VatmZ2LkG3KyxVD0ctNdTfdGv3W2y8xJpXROPChQuKqYKda2WbDdHcJFnBGMQdMQYh0QZjEOI1aG7GCKjbIhuEnKp69equLwXp1auXZ7Nt/Gn8+PFKlpDs/QQrLA2pVauW9HN3KgQiDE6Jnl27dokffvhB3HzzzZxYEEdgeaobQQ9qOnbs2FHa/wUrBKUI9rwelOqF5Y74u3M7A6dly5aubA4BEwJLSAnRQL3EdevWiYIFC1qWGdLcJFnBGMRdMQYh0QZjEOIVaG7GAKiVhmwZ2QDkRAia2rRpIx0UgxV2IUQmi2zw9rqwRMTtOmrt27cX5cuXl37+ToR6RNiVkhA958+fVybyjzzyiC8DhxMLEghkbWFzEVk/40QwR3EdWb8XrFCDDEGzrH/2umDGYsMjNw1OBKdu1UUdPXq0+gsgJBNkcWOH6rvvvtuXgUNzkwSCMUh4xBiERBuMQYgXoLkZA8yfP9+VrBssS5QNhsEKS/O8tOlDMEIGDmr0yN5fsMLOhbLP36nw2RJiBhk4K1asEB988IG47rrrOLEgAVmzZo0r2YDIuIH5JuvzghGMTWzUI+uXo0lYCummwelWcAozAkYWIWaw2dDMmTPFq6++qmw2RHOTBIIxSPjEGIREG4xBSHZDczPKQVFnBDuygceJUEPFzd1tY2FSoQmTC9Qok73PYITaaVi+KfsenKhp06bKXTJCZKSkpChZXiieT4gMLCtDZoisf3EimKOtW7eW9nfBCMYmluXJ+uNoFDYactPgRAF/2ffgRDAjlixZov4SCLGCzYZ+/PFH5QYIITIYg4RfjEFINMIYhGQXcWVu/vnnVXHq1EWfYgEUdXZjBzwES7JBMBihTkysTCo0YSMLNzeJwKQg1DvdMBRWrVql/hIIsXL58mVl2XG8oO/fL150fzdP/fUvX/5DfTR6OXz4sJJxKetfnKh27dquZW2ixma01UezIzeXqKOuKcwA2XfhRAhy//zzT/XXQIgVjB/YMCIeQJ+u7+PdBmNSOK+fHTAGiYwYg5BoJJ5jEHhOJHuIK3Nz0aID4ppr2viUlhb9EzbUkpENOk6EIMmtTSCww18sZdzohbtPqCUie99OhYLpbtw5Zbo/IRkgC1Hfv9evv1g94g5Xrxqv36JFonokepkzZ460X3EiN+ukwfxLSEiQ9r/RLtTgHDRokPR9ByM3lhZi93Vk5xFChGjePNHQx6PPd5N69RYbrh8LG7IwBomcGIMQ4l1SU68Y+vclSw6qR0ikobkZxbi1EUSDBg2kg59TxXJgqgkZRcgskr1/p2rSpIn0+3AipPyfOXNG/UUQEr/Q3HQGlhMiwJH1K05Us2ZNaf8WjIYOHSrtd2NFWF7oVvYNlnC6kb05ffp09RdBSHxDc9MZjEEiL8YghHgTmpvegeZmFJOcnBzyxgI4H/VyZAOfUw0ZMkQ6GMeasLxQ9v6dyo2lhciaSkpKUn8RhMQvNDedceTIESVzT9av2BWWtbVq1UravzkVan/C/JP1ubEkZDohu0j2GThV/fr1pd+LE2H8h9FNSLxDc9MZjEGyR4xBCPEeNDe9A83NKAY7ycoGGyeqVauWdNBzKtS4iURgiiyTuXPnisWLF4tly5aJxMRE5b/YGAGP47jsPDeF94lAXPY5OBV2h5R9L06EpY6ExDs0N52BJemh1tyqUqWKK7U2YfbB9JP1t25r1qxZYuHChb7xY/ny5cpu0AsWLFB2iJad47awwZDsc3Cqtm3bKsGl7LuxKxjcBw9yEk4IzU1nMAZhDAIxBiGE5qaXoLkZpfzxxx9KYCMbaOwKgW3Lli2lA54TYSnImDFjpIOwG0IwunLlSrFnzx5l+cOlS5eU969NDPFfbIqAwsWpqalKDTHs7jl79mzp9dwQavq4sTQEtepCDU4bN27MHQtJ3ENz0xkIBmX9iRNhWZusX3MqZKLI+lk3NGPGDMW8RJbRiRMnxMWLF5Xx4+rVq8pvRhs/sGkK+tGjR4+KTZs2ifnz54ctUEX9TbeC0xo1aki/GyfCeyUk3qG5aR/GIIxBNDEGIYTmppeguRmlIAALdUkhikmj5ppswHOigQMHKsGabAAORfPmzRPbtm1TBk2nk0C0RxC7a9cuJSNHdv1QhSUwss/DiZD1VLVqVen3Y1flypVT3ich8Qz+5vX9O81N/5w9e1aplSXrT+wKywlR91HWrzlRnz59wpJxg4B07dq14tSpU4qR6RQs1cbSfWTmhMPkRNaTG8GpGzXvMIYH8xkREkvQ3LQPY5DAMAYhJL6guekdaG5GGAQQuLuHQtxpaWlBC5kWod5tQ70u2WDnRAjO3F5OiKWByJzBxMAN8HkjawfBruz5gtWkSZNEz549pZ+LE+Gup+z7sSvc/Z48ebL0d2JXmLzhbjTuPhMSjcSDuenW+LFq1SolIJH1J3blxkZCyLgZPXq0tH8NVjAiV6xYoWTYuGEeoE88fPiwspRd9nyhyI3d01E3LdS6d1iaePLkSelvxY4wfuA3CUM4mg0bEt/Eg7nJGCRrMQZxJsYghNDc9BI0NyMAJvwY2EaNGqVkWWBC8M0334giRYqIzz77LCh999130kHGrjAYYTmCbKBzosGDB0sH3WCFO5wpKSmuT/pwPQS7qIsje95gNWzYMOnn4kQoph7qJPGHH36Q/k7sCL/Dr7/+WrkOlplix+LNmze7NrEjJBLgb1zfv8eKuYnlbzt37lRMwBYtWiim5Lfffis+//xz6d+zHZUoUcLShzgVxjJZf+ZE2DnczYwbLAPE0sFwBEgIUDds2OBqFieCcjeyN1G3TvYd2dXPP/8svvzyS+lvxY6KFi0qSpYsKapVq6aYrfgekNlFo5NEE7FqbjIGsS/GIMGJMQiJd2huegeam2EEd6FwdxMZLoUKFRIffvihK8qfP78ykJgHFydyYzmI23dMsfwPd5PDCQLU1atXS58/GOHOaag737qxLOTHH39Ufhey30sw+uSTT5TfCOrV4a4qIV4n1sxN9FXYtADLxxEAyP5OgxWMKFk/YlcwWN1Ykp6QkCDtV4MRlhAi+zCcIOtp9+7drm48hCWVss/GiZo1ayb9npzoiy++kP5WghHGoq+++koJmrdv3658boR4nVgzNxmDOBNjEPl3ZUeMQUi8Q3PTO9DcDBO461S7dm3x8ccfSzvuUFSgQAHx008/SQcYu8Jrkw1yTjRgwADpYBuMsIwQg34kwF3sdevWSV9HMMKdY9nn40QNGjSQfk92VaZMGVGwYEHp7yUUffTRR6JixYrKMlYGqMTLxJK5iTpfWCqMCb7s7zIU4W+6dOnS0n7ErhAIhbpLupu72yLbBnVEIwF+Z9gwwi2DE7U3sTxf9hnZFUzEUMsMIBtY9nsJVTDmYUKE23gmJFRiydxkDOJMjEEYgxASCjQ3vQPNTZfBcjjcScMyLVlH7YY+/fRT6eDiRG4sKXSrVtqyZcsiNqnQwFJP7H4oez1O5UZw2qpVK2WZjuy7siu3s7v0Kly4sLL8BTsKE+JFYsHcxOQdy56LFSsm/Tt0Qwh2sQxZ1ofYVcOGDaX9mBOhP5H1p041d+5ccfr0afUTjAz4rWH5uxtL1LEsH5sqyT4ju4LRXKVKFel3ZVfIxJL9XtwSzNetW7eqnyAh3iMWzE3GIM7FGIQxCCGhQnPTO9DcdBHcjcPudeHIttELy8dkA4tdobZKu3btpAOcXaGItRtZNwhMz507p36CkQX1XNzYJALBKbKQZJ+TXbmxKUQ4DREId+sxgWIdHOJFot3cRLAzYsSIsGQ/6IUARNZ/OFHLli2l/ZhdoR9xYzkhlqwdOnRI/QQjC4zojRs3Sl+XU+F7l31OTlS3bl3pd2VXWFaIPl72m3FLyA7FkkxCvEi0m5uMQZyLMUiGGIMQEho0N71DXJmbp09fEtOn7/bpzz/dS3HHJAXFusOxBMQsrfBysEKKf6i1btwo4o2slwMHDqifYPZw/PhxJUCWvT4ncqOod6g1b7BJiOz34qawRKRXr16KEUOI19D37zt2uJ/Np7/+7t1n1EdDB+PH2LFjwx6UQtg4RtZ/2JUb9Tbd2kgI5mI4sp/sgmyfRYsWSV+bE8HoDTXzJtS6m8jmDbexDmH+gp2ICfEau3adNvTxboMxKVzXZwziXIxBjGIMQkjwwFPS9+9nzlxSj5BIE1fmZjhBgONmwW5/QsHmUDeDQHHxUOuljRkzRjrAOhFq3IRjV1snYEK4fv166etzIiwLkX1OThRq5s3333/vakFvf4IBM3nyZPUTJISECpbFhXNJl17InpP1H3ZVuXLlkANTN5akY6MML2RwYFfwUJenu7E0vW3btiEvK8TSP9lvxm2hPtuxY8fUT5DEE6hXi1qJWg3WDRs2KPPJSNXMjVUYgzgXYxCjGIMQr3PkyBElO/3gwYysyOTkZDFy5EjW9CYGaG66ACbp4a5XpQkDR6lSpaQDi12hcLRsYLMr7MyHmj6yAdaucKfy1KlT6ieYvaSmpopZs2ZJX6ddYXkMlsnIPi+7atKkifT7sissK8RdTdnvxm1hJ9xdu3apnyAhJFhSUlKUDX5kf2fh0HfffSftP+wKgams/7IrZCgiS1XWjzqRV/ofLE9HkCx7jU40dOhQ6edlV506dQp5WWE46/SZhU2QsttYIJEHWd/XXHON+Pzzz5Waic8884zyb9QfJMHBGMS5GINYxRiEeB3MkzBe5MuXT5lHvvbaa8q/8fdDiAbNzRDBXTcssZN1vuEQBo5QdykMtZA3MkxCXVKIYNArO9/hO0T2gOx1OlH//v2ln5ddhVrQG9kwkViSpKlNmzYMTgkJEWQxRSLbQVOoO6W7EZgi60LWh9rVvHnzIr4BRCBgLoS6tBBGj+zzsitkQoW6rBDLTWW/mXAIm5Kw/mb8ceLECfH4448rAakmZBxiHkacwxgkODEGsYoxCPE658+fFy+88IJh/MidOzfLFBADNDdDBKnRqGEm63jDITd2um3durV0YLOrUGvdYAlfdm0C4Q9MuENdWhhqzRtksoS6rDASNdM0ITiNxt1vMTheuuROLRRMSjG5sjNJRru9e/eK3bt3G4wZXAPnZyWtLV6/P8kmehj08Zzoq3C+GZyDNuZztcdl5+D14Lj2usygjhQMHwiZif4+b+3z86dY5/DhwxE1lNwITFHbUdZ/2ZUb9Ta9VrMRfyehbgyBupvdu3eXfmZ2haxa2XdmV5GomaYXjPJo+TvHd7xlyxaxatUqVzO+supL9aAf3blzp1InUN/eyRiC55KNHZpk/b32vOjPZeCzgbTn0NAeN3PmzBnFjMfvNSEhwfIbwGswjyH+bmbgtcneBxQPG48wBnEuxiByMQYJL+j3tm3bpnzXbqHNoc19rwy0i4UYBM+Duqs1atRQMjmxkZoZuzEIPgfze9DEjauiF5qbIYJaD7JON1zCwBHKxAK7FGIAkw1sdoX3LBtY7WrOnDmeyroB6EBDDU5DzbxxY1lhpGqmacIymGgBtVny5Mmj3OlDzR43wNK666+/Xtx8881+A14MkHXq1BF33nmn707jjTfeqCwjw8Bbr1495fxAuuWWW5TrI7jWriHTxIkT1WfNAHe29c/7xBNPKMuX9Nx3333KsYceesg3gQH//e9/lccXLzbuOo42//73v5X3jTuoZvC3dN111/meE/rb3/4mnnvuOWVJsv45kO3217/+1a+yu9h/uEHdMNnfVbiEwBTZFbK+w44Q+CC7Q9Z/2dWgQYOk/addIQD0Yn0lBFmy12tXbiwrRF8i+97sCiULIplFjIw99MteB0bcv/71L19/du211yr15S5cuKC2CA4EZeh/0Ze+8cYb6qNWYMQUL15c/OMf//C9BrwemMMI2nDTQjZu6PXkk08q14KZqF1DJgTfGleuXBHVqlUTN910k3LsL3/5i3jppZfE8uXL1RYZ45vW32OJoB6MW3jc/B1j/of3jdeF5YVmYAKg/9deE4TP/MUXX1Sy9vTBLubE+nZ65ciRQ20VuzAGcS7GIHIxBgkPyMrNmzevMg9Gv4S+7e2333blJm28xiAYz/C6Xn31VfXRTJzEIF988YWhnV6vvPKK2opEGzQ3QwCTSmyuIOtwwyUEA6FMLDBwdezYUTqw2RE6hlALeWM5iOzuTXYTalHv8ePHh7TjLTbpqFSpkvR7s6siRYpIfzfhEgZH1AvyMpjEIttMHxi6YW7ifWtBH4RsAjOYVGASg+MIDB999FFlUNYGXmRK4e6j3tBDOxzTP3bbbbcpAzKyZ3AN6J///KfSDq9Be2z27NnqMwvRuHFj5VoQJhTaBAJBIkxFDe1xaO7cueqj/icWCGy19ri2+c65fmKB58WEAs+hvRb0mRowqtAO7/H222836P7775fekY0V8LuEcSD7uwqXEJiGYm4iMMXGNbL+y66GDx8u7T/tymtL0jWQKRBq5g2yWmWfmV01atRI+r3ZFfrzSJqb0IgRI9RP0JvUr19f6bcQHL3++uvKEri///3vSr8FgzMUYLJofSn6QGTVmEHGC/pCtEHfjfEDfT3a43Vh3vD+++/7xgrtce2amt566y3lesia1sYLBLhoh/FFe0xfxw6GKo7jvf/vf//zBakYczBfAnpzE8+rHw/8mZt4DdprxHvCplx69OYm3i/GkHvuuUc5B0KgroE6f3jdDz/8sO+aDzzwgPIYMrtiGcYgwYkxiFyMQdwHG+Bo/SCSAvCa7733XuXfd999tzJvCJZ4jUGSkpJ8rxH/3b59u3okAycxCOa0eN2y8QPzZRKd0NwMAaRYO93htkCBAoqxIpOsvVl4PtmAYlcVK1ZU7s7JBjY7wsCJAVQ2sNrVjh071E/QW2AXT9nrtSsUOEc9OdnnZkeYWFSpUkX6vdkV7kLJfjdmIYNL9ht0Wi8H52zevFn9BL0J/mYwYGGwe/rpp5X/x+sOFdwlx7Uw8OO/mPSbqV27tnIMkxj9AI0gFgECdohFdkxaWppPGIxxDiYq2mOyDCEs6UM7vD8z+/btU+7mYrDGsg2AJR4wtnAOJg3a3Uv9oI9dUDX8TSwwEcLj2vtu3ry5eiQD/cRC2yQCgQTu4OIxGAMIXoFmbuLziTcQ0Ed6/ECwH0pgWq5cuZCzbpA5Jus/7QoTWy8CoyHUTSEGDhwo/czsCjdxZN+bXaEeqx1zE5mCst8g5NQcRR+pz6TwGriZgz4Z34+Glv2Ifu706dPqo85BJjSuo/Wl2GxHD/rNd999VzmGLEQYnRqJiYnKfAGfHQJYbaxAqQstQ2jt2rW+x2XL8vB9oZ3eLNTA7tsYE9Bf4/8Bngd9EM7BKgjtMXwO2hiiv5Y/cxOGBB7X3jeWGOrRm5taJineJ4JlPAZTFssG9eB7wPPjeDSWywkGxiDBiTGIXIxBwkO7du2Uvktbdg1T8j//+Y/SV+FvIVjiNQbRnld73y1atFCPZOAkBtE4d+6cb9zcuHGj+iiJVmhuhsCyZcscT+RRSBu1tczCH7+da+GumGxAsSvcscASK9nAZkeoCRbqLoWYfHuRUGveYJOMUJYV4nupXr269HuzK7u73SKYkP0OcUdd1j6QkIXhZXAnMGfOnGLdunVK1hkGL0yIQgW1EnEtZI5gUMbdS/0dZARft956q9LGSXaSNukZNWqU+oicQBML1LTCMfOyCvzGMbDj9WomkTaxeOqpp5TXi4kMkE0sMEHAxAft8b5lzyGbWABMpvAYhGU6IJ7NTXz+MIlkf1P+1LBhQ+nfLZbp2QkK3Mi6CSUwhULdKd1r9TY18LsPdVkhggnZZ2ZXmOTLvje7wt+0nXkITFDZ7xDC0nbZOf6EYCYUgzAS4LvVg35UC6ywTC8YENhpfa/WlyLDRg+MVRxHf4qMGTsgWNWCNHNGixmMg2gnMze114R6jnqQXYbXhOfAcnnN3IQwZjzyyCO+IF5mbiIb/6677jK87w8++EA9moHM3AT6JZFmwzQezU3GIMGJMYhcjEEiB3Z7R1+FHeqDJV5jELw+tMc8BMfN5UecxCAaNDdjC5qbIYA/fKcTi5YtW0oHJbvXQn0N2YBiV7grF+rEAvUyZO/BrrwayGAgCGXHWwywGLBln5tdIStO9r3Zld3C8thVUfYe8Bpk7QPJnHXhZdwyN5EFgyUZCMCwjE+bDOBOqgZMVTyG5fBOltG6MbFA3SMcwxIjM1iigWO4Sw8wscC/EeDiv0OGDFEel00sYBBjUgEzEpmHmEDgM9izZ4/awv/EYubMmcpjmECgzg+IZ3MTS+ucjh+YCMv+bseNG2fL3MTvQtZv2BXMTfxuzP2WE4WadaNfNuslYFYhm072mu0q1A0hML+QfW92hc2m7Pwm0U72+iEs1Zad40/ov/T9RzSg9YNYXhfsfGbp0qXKNbD8DRlb6EdxPb3xgr939I/aknI7uGVuPvPMM8oxzBf1ILjUliPCjNDMTTxnrVq1lPeE0hFAZm5qS/GxzB2Poz2CXX0dXX/mJvoOPIbnM3/u8WhuMgYJToxB/IsxSPhBn4aayeivcIMiGOI9BkGZEjdiEA2am7EFzc0QQGFzWUcbSKFOLJDyLxtQ7AoTC/Ng5kRY8hDqxMKr9VEwWIQysYBCnVhgsJB9b3ZVrFgx6e/GLDcnFrhDFy24ZW7ibwDXefbZZ5V/V61aVfk37sZq9O7dW3kMA7QT3JhY4G4pjsm+G3xnOIY79ECbWCDYxp1fLYtGNrFA5iAeK1WqlPJvrZaPfjmlfmKB/gbHUFsS2Tp4TP8ZaeYmglssv9QLRlEsM2DAAMvfUlYK1dzEb0XWb9gVzM1QAlMIhojsPdgVjCAvAtMHE2nZa7Yr1COVfWZ2hc2eZN+bXWHJmJ1sYjfNTfxuvb6s0Aw+K/Rb2CQiWNA34hr4mwJan405lgayWvGYk9qebpmbmjGJTGszqNmGY/jNaeYmAszVq1crz43sXSAzN7XPDuMX0ExU9IcaenMTyyoxhuDzQi1mPCb7POLR3GQMEpwYg/gXY5DwUbduXWXTHNzEQj+FDeGCJV5jEHxmeAxZm+Cdd95R/o1ySRpOYhANmpuxBc3NEMAga+5ks1IsTCxwd1D2HuxKSzn3Gqg7Eu0TC3Tast+NWW5OLMw1F72MW+amVjMMkxWwYMECJbDCnVStthlMILTBXUonuDGxwIQHx7DEx4y2u2yFChWUf2sTC9wRxe8HEy/U8tICWP3EQruutiOitvREv5xSP7HQC58PltHo//41c1OmaFxq5IRgAtNYMDfx25G9B7vy8g76q1atkr5mu8LSMdlnZlf4e5R9b3aVHeYmns+rpQZkYMMEBEHoJ7ExSTDACMfmEujnkMkItHqSesMUWVB4DKUk7OKWuYkbTjiGINqMlnmDWnL6mptYcohgU1taqC2J1MxNLFfXxhstY0mrCacfk/Xmpl54DL8vPKeZeDQ3GYMEJ8Yg/sUYJHygb0cfpvVTMACD3VAoXmMQ7WYYSlMALabTr25wEoNo0NyMLeLK3ExJuZAePGz16Y8/QitiP2jQIGlHG0hcEjJNmXx7EUyYo31JSHbcNZUNXl7FDXMTA6d2BxCZjMhsgSlhDgZRPw//xi58TnBjYvHGG28ox1Bfywx21sWxevXqKf/WJhbYfAK/Afw/TBJtEqFNLBAoY3KACQDeG943MsXQBo9pO97qJxZYkqJld6IujlZAXEMzN++44w6xZs0agzDZcIq+f9+4MUV91D3019+y5YT6aHCgxpns7ymQYmFZeqiZm7Idpb0ADCuYXbLXbFfZnbkJ0zLS5iY2ucrKhPMKMGHRV6HPwlwuWJDhiGugn8R3jr60adOmymMYR2ASAm3zBYzrdnHL3NR2RpeNQ4899phyDJlBenMzJSVFuWmDY+jftM9KMzexMRH+jY0msPQQZRi0cQxLJ7W5od7cxPHXXntN+X9zTVI9bpib6NP1fbzbbNhw3NXrMwYJToxB/IsxSPjBEuo333xT6atgUjolXmMQ9OtaDIKxB+OHNm5ivMDO9MBJDKLhhrkJT0nfv8NzItlDXJmbixYdSP/hYresDKWlXVGPBAf+CO1MBvQKdWLhhWLeKFotew92hQmwF8GEJ5SJBQaU7C7mnR31bhCcRQtumJuoY6MFUTJpkxUYdPg3Bkwnd2fdmFh8++23hteiBzXecAw7MwP9xAKbPdx7773KXVdtWYk2sUDfhX/7E377QD+xwDJdTORuvvlm5d9ajR0NN2tuwlzS9+/162fe7XWDq1eN12/RIrRl89hZ2+n4Eaq56YUNhfBaZe/BrvRLXL0EstKwrEr2mu0KhpDsM7Mr/I3Kvje7wsYEdn6TbpqbyNTw6gYferDD8gMPPKD0/U4yKWUg20brN2XSlmhrmTdOlhW6ZW5qhqI5Kwq122644Qbl2Pz58y3mJkxGGJVYWojPC+20v1nslI1/+5M2lzDX3ERQqz1n3759lTZm3DA3mzdPTD8/s49Hn+8m9eotNlwfY1Yo4O+NMYhzMQaRizFI5MBrRl+FDH6nxGsMAqMU//Yn9A3ASQyi4Ya5mZp6Jf38zP59yZKD6hESaWhuhgAmUE53u8WkGHdazEIh9khMLHAXI5TMG3QeoS4r3Ldvn/oJegvc9YHZInvNdoQJF5bMyD43O8LEAnVTZN+bXdndqRDPI/sdYpmArL0/4TeLgD5acMPc/PXXX5VrvPDCC6JEiRI+4fPA47ijisEVdwgff/xx5TFZ8IjJhiy4cWNigQAQxxBc6guJI/MIQSMGce3vUD+xAAhAMXHSsm60icWrr76q/DtPnjyG9427oXhcq5NjnlgAfO64JiYY+g1h4tnchFlSoEABy99UIMF8kv3dwiyxMxaFam6WK1dOqV8k67/sChspyfpPu9J+p14Dk3IEHbLXbFfIxJJ9ZnaFyb/se7Mru+YmAljZ7xDCslXZOf6E55UtM/YS2KkctdLQh6GepL/sD7tgMx30e3j/+r70pZdeUh7XxidkKWvGIeYXZrRseT1umZva+PL666+rj2QAAwWPo57mhQsXLOYmwG8Ar+G2225T2sLcRP+MzxD/xjwW/ZAmLYjF48BsbgJt2T6uKStNEY/mJmOQ4MQYRC7GIOEBc17MD/Tge0JfhbHAKfEag7z88svKvzFv1o8fWhYsMkKBkxhEg+ZmbEFzMwQwmULBd3NnG05hWSH+mGWDih1h4EAKv2xgs6Nu3bqFnHnj1XoWmIDLXq9dYbklJl6yz82OMOHDXW3Z92ZXWDIk+92ES5jIoDaKl0FWEHbJgxC8Y/BCwKY95qT+EiYLWjYK7rDrweCIjBUcg8kBsFQEAyoGTUzmsGx1/fr1yiQSuyW2aNFCaacn0MQCrxVLjyB812iXM2dO32PaDoB4Lbg+jiMzCn9zmABqwTOWgmqYJxaYDGhBIoSJhbabLyYM5l0GcV20w5KYU6dOSScWeEybmLz33nu+CZVmbiJg1d6DXk4yLKLN3IQJ4TTLLVThew9l/MCkGnX2ZP2XXY0cOVLaf9rVkiVLlCxJr4G/uVCybiBks8g+M7tCZq/se7OrUqVK2TI43JR+IwAvgnnBgw8+mP43f41SAwz9Mgx6TU6NNGyehP4VS7Pxm9Gj7W6LLEVt0xNkS+Mx1K/EjQWMH+hXUavyxhtvVMYwPVmZmzBQtP5Vy86EWa09hh2bAW6+4DXiOJYSw2REtrmWdaPVS5OZmzCf0EYTPsOkpCSlDd6HVhNOQxsHEHji+WXmJgLkp59+WnkMhp42hqDOLV43vhdt3EL2Gh5DX+GEaDM3GYMEJ8YgcjEGcR/0z6iDideK+T/6SNRt1sYUlAFwQrzGIMi+xGP6si0a2HwU7TAO4fN1EoMguxWvG7vMa+Mm+hg85nT8oLnpHWhuhgD+OFAXwtzZhlOhBqduZN4kJCRIB1a7Qt2lUDMf3AbfJTpI2eu1K9Q9kX1edoXlnpj4yb43u8IdNNnvJlxCgOVFo0EPanthwPInJ5tZYBMEnKMv2q0HdxRxHCaQRqNGjXyBml4YqJHhYibQxGLLli2W6+ilbfQDkGGjBad6PfLII4bJoHligb+Fp556ytceEwsEI/h/Wc0zfP9YRoLjyDyTTSwA/l8LgjF5AFpQ60/4u7ILXre+f/e6uYnXC2NH9ncVLiFTC3X8ZH2HHZUtW1a0adNG2n/ZFZZem/tOJ4LB4sUNIZBlJ3u9doXJNOpIyT4zu0Lmi+x7syuY7ZE0N2FSYWmzl2nWrFn637u8f4JgSDtBqxGGz9kMNhTRslUQlAKYepj36YM9TQjGsMxYT1bmJuZv5uvopZmJAP20bOxCgKoZszJzE+9DC2whmDYI4vH/MCPM4D1iTMVxGMYycxMg2MTjeC7tc9c2p5AJqwqcEG3mJs5nDOJcjEHkYgziPogvNCMT/Za+H8dqKKc798drDKKtuoMxaUZv+Pbr189RDIL3rz2PWVhR4ASam96B5maILF++3FatM7eE4DSUiQWCU3QSsoHNrlDEVzaw2hXuZGHy6iWQLYC7abLXa1fISJJ9XnYFAwkDkux7sytMPGW/m3AIgSkCcq+DyQCCdn86dOiQ2jJrMKnGsiwEvDKwgx+OYwKvB68BGRbPP/+8UksG2Q+YiMqCGywPw+uS7cSLLFTz69dLmxxoYOOKb775RnlO3LXEnVtz7R3cqce5yM7UwG9ZuyYCUyx3xfuSTXYAsvlwHL9hTDTwPFh+Zl4+iM0m8Hj9+vWVCSnu5mrPI9OGDRvUM7MGn6W+f/e6uQnwHaNPl/19hUOY+KJeoqzvsCvU4JP1X3blr9aWE3ltWSF+e5g4y16rXaHvCGVJIYSlZ7LvzK60pW2REvpEmHFeBt+LrG/ShGDPCdhEAX2lPgjUA7MSx7XgC+D3hcwSlJVA9uKLL76ofHaYf5qB2ViqVCnltcmWreN3an4PepnPwW7uGK/wvFjxgEBZf3MByy1Lly6t1FbTB+rIntSuiWwenIf/nzdvntrCCMYQHMcmGHgPGJcwVpjHK2Sm4XFcD2MNDBntecxCJrMTos3cBIxBnIsxiFyMQcLDyZMnlb7o3XffVZahw6DDjW2ZOZkV8RqD4PPC//sbN7XxBhtqOYlBMJ5oz2MWSqE4geamd6C5GSLonPCHKet4wyEEp6Fk3kBIQ5cNbHaFYveygdWJ9HfjvUCoWTcQJuWyz8uukBGFiZ/sO7OrSBolCGi8HphGIwh+MRHAZITYJxrNTWQsVatWTfr3FQ4hWwylGWR9h11hwifrv+wKk08EJLI+1K6Q4eKlzBuYPaEGplhqCUNL9pnZkRubQWATANnvJhzCbzEaN4LwOshaQXYkdqv1eskYrxGN5iZjkODEGMQqxiAEMAYJDpqb3oHmpgvgzmmkOnQEBOjQZYOKXbkRnCLdXDa42hWWogVz1yocIBjAcifZ67QrBOu4IyT7vOwq1M0gkJGFiafsd+O28DzRcMc0Grn99tvT+6drlKLaxD7RaG4C3B3H0krZ31k4hAwrWf9hV9i8SNZ/2ZUbG0Kg1hSyIbwClv/KXqcTYRmy7POyK9RLQ0aC7Duzq2LFikl/M+EQTHZz7SwSOlptMowh2q7rxB7RaG4CxiDOxRjEKsYgBDAGCQ6am96B5qYLYFkOashg0Jd1wm4Kz4HdOmUDi11h6ZpsYLMrZJegcLVsgHUi2Y5l2QGyG0LZoRDCUoBQCnlDDRo0kH5fdlWqVCnHO2cGKywJw9Ix4j74fBGcynbHJf6JVnMTgQ2MqUiMH1Dx4sWl/YddIdMUWYKyPsyuUN5A1o86ETYS8UL2JnaMDnWXdGjgwIHSz8quMAcJdUlhpDaDgJm/YMEC9RMkboJ+8O6771ZqiyEbjNgnWs1NxiDBiTGIUYxBCMDnyxjEOTQ3vQPNTZdABgLucpg74HAo1OAUtShCDU6RZSIbYJ0IAaG2M2d2gWWhCxculL4+J0IdFNnn5EQ1a9aUfl92hQlnJCa3uGvP5W7hAcHOXXfdJZ555hlPGDfRRLSamwC73mJHYtnfm9v6+uuvpf2HXWGcQ507WR9mVzDyZP2oEyF7U1ZTMJLgN4cNA2Svz4kQRKBmlOyzsqtWrVqFvKQwEvXSEPyi6L/XN6KLVpC5ic0jsEMtcUa0mpuAMYhzMQYxijEIYQwSPDQ3vQPNTRfBJgdIy5d1xm7qyy+/lA4sdoVCw6EGpwhOQq2bBqHYcHYFOW4FplCoWTfI3MLEVPZ92RWKNst+L24Kk9rNmzernyBxm1OnTikTf2ziQJwRzeYmwGQdf8eyvzs3hew8c9/hRDDQsPmHrB+zKxh5MPRkfakTISjMzuwNbJSCzSlkr82JsEO07HNyImSyyL4vu0IdvXBvTAJjE5uJMOMmfGCTNowhW7duVR8hdolmcxMwBnEuxiAZYgxCAGOQ4KG56R1obroMJhfhvnv62WefSQcWu0JwiiwP2QBnV1j+4MayECzFwNIQtyd5doCZgOwf2etyIjd2uUXAF+qSwi+++EL6e3FLmDQ73RmWkEgR7eYmQJ+EiWU4sx+QnSfrP5wIO3XK+jEnwu7Psv7UqdasWZMtwSk2EULdNtlrcqpBgwZJPyMnqlGjhvS7sitkw4Tzd4eagFhOimX8hHiRaDc3AWMQZ2IMkiHGIISEBs1N70BzMwxgowPUvwlXgW9c9+eff5YOLnbVsGFD6QDnRMOGDZMOtE6FzJdILzE4fvx4yLvbakL9ONnn40RNmzaVfk92hd9DoUKFpL+XUIXC3Xh9hw4dUj89QrxHLJibAEvUsWQvXJsM4e851N1ua9euLe3HnMiNHW8hBKfI5IjkEipsRIGdRGWvx6ncCEyRBVWhQgXpd2VXJUuWlP5e3BBKISBTF7UBCfEqsWBuAsYgzsQYhDEIIaFCc9M7xJW5CTBZ0RROsEkEdjBEHTW3JxhY2hXqboXYFEI2wDlR7969Q96xUNOsWbOUyUUk7p5iUoGUe9nrcCosi+nbt6/083GiWrVqSb8nuwrHLoX4nWH5EOoSoS4QIV4n3P17uK+vgfEDu6hXr17d9fED2Xmh7piOzCAsY5P1ZXblxq7pmmBwIqMjEhmcWFKNsV32OoLRyJEjpZ+PE7lRbzMcO6WjBAJKGHBjGxIthLuPD/f1NRiDOBNjEMYghIRKpPp3Epi4MzcjDTI8MMHABP/7779XOn83ln6VKFFCOsDYFQYM3NmVDXJOhCLWsgE3GOHu6Y4dO8IWoCKzB0t2MImRPX8wGjt2rPRzcSI3sm7w25L9TpwIv0tMJlDTpnnz5sqSSy4hJCT7uHLlimJyduzYUTEkURPRjfEDtbFk/YhdwUhr3bq1tD9zoiFDhkj71WAEg3Pt2rXKmBsukFW7ePFi6fMHIwTmCNBln40ThbrLLbJuChcuLP2tOBHGD5Q9wHiGzFyM59mx3JMQkgFjEPtiDGL9nuyKMQghxCvQ3IwQmOCfOXNGbN++XVmKgGwNFMRGYBOMMCmQDTBO5EbdtD59+rh25xRCgLpq1SqRmpqqfnLugAFy/fr1yvVlzxuMcMcU36Hsc3Gili1bSr8fJ4LRgO9C9lvJSngPw4cP92U/oaA0d8kjxDtg/Dh79qwSeCHjA+NH//79pX/PdoRl76Fm+sFQk/VnToTl2G5lb2qC+YjMGDdNNWRBYRdqt5YRanJjOSEyaJGdJfuO7AqZuNiQQvZbyUoYd3AuNkVaunSpOHDgAANSQjwGYxB7YgwSnBiDEEK8As3NKAU7YpYvX146yNgVNiBAkCsb7JwIAZps4A1FCOCTk5NDDpKwlGH37t1i3rx50ucJRQjmsEGC7DNxojp16ki/H7uCSYE784QQYgcsEw7VEKtcuXLIS9MhN7M3NWGThnXr1inBfCgmJzJ4jh49qtTXdDMohdzK2mzTpk3IRjWyulgPkxBiF8Yg9mAMQgghkYXmZpSCAbdu3brSgcausCykffv20sHOiXr16qVsFiAbfEMVaq1s2rRJKZCO4MtOoIosGwS1uAPo1m62ZiEwxV1K2efhRFhuGupyENQuwudDCCF2QB/ZokULaX9iV24tTUftzfHjx0v72VCFZYbIwjly5IgSZNrJBoGhef78eSUgRSaiG7vZyoRMFdnn4VT169eXfj9OhF2HCSHELoxB/MMYhBBCsg+am1EKBljUtJINNE7UuHFj6YDnVOHIvtELWTO487l69Wrlbip2zcPSQwyo+C/+jSWbyNZZuHBh2AJSTW4FpliWI/tenAjZU5hMEUKIXWAoyvoTJ0LGh6xfcyosS8MSO1lf64YwfmApZlJSkhJw7t+/Xxw7dkycOHFCpKSkKOYnlp0jGwlZmjBFZddxSzATQ90hHUKtNCwpl303dvXrr78qu80TQohdGIMwBtHEGIQQ4iVobkYxixYtCnk5mltLC7E0AoWtZYNwrAmmgBuBKZbjYDdk2ffiRHhNhBDiBARhMLZkfYpdYVkiMj9k/ZtTjRgxwtLXxqJg4qJequwzcCpsuiD7XpwItVORZUQIIU5gDJI9YgxCCCH+obkZxSDzBDVrZIONXWFiguWJsoHPqbA0ZNKkSZaBOJaEpSB9+/aVvn+nwpJONyaGu3btUn8RhBBiD2yY0LBhQ2m/4kSNGjWS9m9OheXp48aNk/a7sSS3Mm4QmGI5oOw7caJBgwapvwhCCLEPY5DIizEIIYQEhuZmFINlIRjMZQOOE+HOnRtFvSEsUwnn8sLsFN7X4MGDpe87GNWqVUv6fTgRNpPgchBCSDBgx1xZv+JElSpVUpZHy/o4p8IGO7EcnGIDCJi4svfuVK1atQo5MEXNOyyzJIQQpzAGiawYgxBCSNbQ3IxylixZEvLSQgRILVu2lA5+wWjo0KExObnAskk3diaE2rZt68r3hs+ZEEKCYcOGDSHveAs1adJE2s8FIwSnyE6R9cHRLNTZ7Nmzp/Q9OxWMgFAzpiBsRpSWlqb+GgghxBmMQSInxiCEEJI1NDejnNOnTyubOsgGHidy884pBl9kBMkG52hVQkKCa5MKqHbt2tLvwYmqVq2qFDEnhJBguHjxovjtt9+k/YsTuZm9CSE7JZaCU2SjIitV9l6DEbI2Qw1ModGjR6u/BEIIcQ5jkMiIMQghhNiD5maUg2UhuJsnG3icCHfgsDmBbBAMRrE0uUAA6NZSQgh1btwITPv06SP+/PNP9ZdACCHOQR+H/l/WxziRW7U3NcWKwQljE3217D0GI2y+4cYmEBUqVBC7d+9WfwWEEOIcxiDhF2MQQgixT1yZm8nJp8R3303z6fLl2KgTsn37diVQkQ0+ToTC0G5m32BygUlPNAeouFvq5qQCd6bd2AQCE5OVK1eqvwBCCND37+PGJauPugOCOP31p0yJjSL6hw8fVjIwZP2ME2F5e/v27aX9XrCCwRnNS9QnTpzoqrEJIdPWDTMaY/2VK1fUXwEhZPLknYY+Hn2+m4wdu91w/ViBMUj4xBiEkOjg0qU/DP07PCeSPcSVublo0QFxzTVtfEpLi42JPQKUjh07Sgcgp3I7+waTi2isf4PXi0mRm5MKqFmzZq4EpghwL1y4oP4CCCEIRPX9e/36i9Uj7nD1qvH6LVokqkeim6tXr4p+/fpJ+xmnwvJEt5YWakINzsmTJ0v7aS8LO79jsw3ZewpWGOdRAkD22TsRAlPUyiOEZNK8eaKhj0ef7yb16i02XN9t8zS7YAzivhiDEBJdpKZeMfTvS5YcVI+QSENzM0bAHTTsfCobhJwI2TcoNC0bFENRNAWoeJ1u7kioqUOHDq7c3cbEZP78+eo3TwgBNDeDB5k3FStWlPY3ToS+qUWLFtL+LxQh+3H8+PHS/tprQlA6atQo0aNHD+l7CUX16tWTfu5O1bRpUwamhJiguRk8jEHcE2MQQqIPmpvegeZmjICNIVCvRjYQORV2YUVdL9ngGIqwocLYsWOlg7lXhADa7WWEELKZ3CjgDSHAPXPmjPrNE0IAzc3g+eOPP5R+StbfOBWWFiKLx9wHhiqYhaih5uUMHC0oRbaQ7D2EIuwm7EadNASms2fPVr95QogGzc3gYQzijhiDEBKd0Nz0DjQ3YwgsM3NjuQHk9tIQTQj6hgwZ4rk7qKjrNmzYMNeXgGhyaykINH36dPUbJ4Ro0NwMjQ0bNihZM7I+x6nCsTxdEzJwJkyYIO3Hs0swXMeMGePqjuh6ubUcHWrYsCEDU0Ik0NwMDcYgwYsxCCHRDc1N70BzM4Y4f/68siRQNhg5FZaXtGrVSjpIuiHUIsPSvezeLAJBKXYiDFdQCmGJjVumQf369cWpUyxSTIgZmpuh8fvvvyuBlazfcSoEUQimZP2hG0IWJ+qoeSFAhdEKwzUc2ZqQmxk3+F7mzp2rfuOEED00N0ODMYhzMQYhJDaguekdaG7GGLhz6sbSNQiZIqjRIhss3RKWX2THBEObUPTt2zdsQSmEnR/d2IkYQmA6Y8YM9ZsmhOihuRk6GzdudKUmF4TgtE2bNtJ+0S317NlTDB8+XEyaNEnaz4dTWD6IJejhyrTR1LhxY9cybnCtc+fOqd82IUQPzc3QYQxiT4xBCIktaG56B5qbMcalS5dE+/btpQNTMApX7RuzcNcSSzImTpyoDPqyyUCownURBGMHQjxfOCcUkJsZNxAyoRiYEiKH5mbooPamWzunQ6i/Ge7gFILJCaMRO5SHa/yAEAAjIO3fv3/YTU0IWVBuGQW4zrJly9RvmhBihuZm6DAG8S/GIITELjQ3vQPNzRhk8+bNrmXfQOGsn2YWBnsE18jGQWZMqHdTcT6WDWIyEamAVFODBg2kn2cwQhZUUlKS+g0TQszQ3HSH/fv3i2rVqkn7oWCEayF7RNZHui2MHwgasWQdG0eEumwdwSiCXRiagwYNUkxU2fOGQ8h6dWspIQSTGcYDIUQOzU13YAySKcYghMQHNDe9A83NGOTPP/9UAjHZABWMsBQBg2SkJheaMMlAMIkJAYJVLB1BwIqJAu5+InDFxAH/hfA4MncSEhKUO7Cog4a6OuG+OypTkyZNXFtKCOE9XL58Wf2GCSFmaG66Az5HGHpu9l+1atWKSPaNXugzUZsTy/6Q1Ymd1rHpj3n80MYQvGcEszAyEdgOHDhQMUojGYxqateunWsbCEG41qZNm9RvmBAig+amOzAGYQxCSLxBc9M70NyMUY4cOaLc7ZQNUsEIgyR2L4z05MIsDLCaEHRq0j8uOy+SwtINt5YSQsh82rVrl/rNEkJk0Nx0j7Nnz6YH+s2l/VGwwngUaYPTLP04oR8/9GOI7LxICks6sZxf9hkGI4zdCMpj1UghxC1obroHY5DsE2MQQiIPzU3vQHMzhnGzsDfklcmFl+X2pAKfOZZGMjAlJDA0N91lw4YNomLFitJ+KVh5weD0smBsVqlSRfrZBSuM2dzdlpCsobnpLoxBIi/GIIRkDzQ3vUNcmZsbN6aIDz5I8Onixd/VI7EJlhBgWZ5swApWGOgaNmzIyYVJ+DywDMTNSQWEumupqanqN0oI8Qcm3/r+fdAgd5fhmq8/cuRW9UhscvXqVWUpN/p8Wd8UrLBEPVI1OKNJbi9Fh1D3buXKleo3SggJxIgRWw19vNuGzsCBG8N6fa/BGCRyYgxCSPYCT0nfv2/alKIeIZEmrszNeOTQoUOibt260kErWGFywQycTGFSgXpAbpsAWAqyY8cO9ZskhJDIcvr0adGyZUtp/xSKqlevHpFd1KNFrVq1cj1LFuMRzGnUvyOEkOyAMUj4xRiEEEIyobkZB2CHOzd3XdVUo0aNuA9QkYGESZbbkwrcfZ0zZ476DRJCSPawdetW15dKQ7hm27Ztpf1qvAhB6W+//absRCv7jEIRTOkzZ86o3yIhhGQPjEHCJ8YghBBihOZmHPDHH38ou/e5PfhBWEbXunVr6aAb68IywqpVq0o/l1DVr18/7kxICPEEs2fPdn25G4SAF+ZePC4xRNZR/fr1wzIuI+hPTk5Wvz1CCMk+GIOER4xBCCHECs3NOCEtLU25wycbxEIVsk4aN24cNwGqlm2DemayzyNUYZfikydPqt8cIYRkLwhyBgwYEJbgFNesV69eXNXhRFCKJX+yzyNUYVxavNjdzbQIISQUGIO4J8YghBDiH5qbcQRq36Aui2wwc0M1a9ZUgjbZYBwrwhKYcCwB0YTPkDVuCCFeA0uckSEj67fcEJapo/akrN+NFSEobdq0aViWaEIYl0aPHs06m4QQz8EYJHQxBiGEkMDQ3IwztmzZoixZkw1qbghBG3bsi7VC3whKmzVr5vqmD3pVrlyZO9sSQjzLwYMHwxqcYuk7sjg7duwo7YejWagvirE3XEEprtu7d29x4cIF9dsihBBvwRgkODEGIYQQe9DcjEOWL1+u1KmRDW5uCXVgsKFBLCwTQbYSdvcNV1AKYUKGunb/93//p35LhBDiPTZv3hzW4BRCAIcMx1gIUJFpg9qa4dg0SK/27dsru9sTQoiXYQziTIxBCCHEPjQ34xAMXvPmzQtbvRZNGIgRBGNgjrYJBl4vMm1q164dlo009ML1J06cqBRdJ4QQr7NmzZqwbWSgF5aqo/5XNJqcyD5t1KhR2MdZCPXXjh49qn47hBDiXRiDZC3GIIQQEhw0N+MU1OSaNWtW2Gp/6YWBExOMaLiLiteHiVAkJhQQnmPMmDHiypUr6jdDCCHeBsHpihUrlGVssn7NTSFAhZGKJXnRsOkQMjUbNmwYEVMTwkYaBw4cUL8ZQgjxPoxB5GIMQgghoUFzM47BXbrJkydHZHIBIUhFJg7q4XitphqCZgTP2ME2EhMKCM8zfPhwZSdiQgiJJmBwLlmyJOzLC/XCc6HmJzaN8FKQqgWk2OghUuMpBBN179696jdCCCHRA2OQTDEGIYQQd6C5GedgcjF9+vSIBmQQnq9WrVrKksPsmmTgeXEnN9IBKYRJBXa15aSCEBKtwOBE/bRILFHXC/0napAhSEWtyewwOrFUvk2bNorBiAxWBM6y1xouoSbpvn371G+CEEKiD8YgjEEIIcRNaG4SZXnInDlzwroLXyBh+R6WjGB5HbJfEDS6HazierguatggKKxZs2bElg2ahUnM+PHjuQyEEBITrF69WjEbZf1duIWNemCuIqMTgSICxnCYnbgmlpwjGK5bt262GJqaWrRoIQ4fPqx++oQQEr0wBomsGIMQQmKZuDI3k5IOi3vv7e7T+fPs2DWuXr0qli1blm0BqiYEixjw8Trq1aunLNPAZAPZOQhasXRDm3joJx/av3Ec7dAe5+F87FSLiQuuG6nlHv6EZZUzZ85k4W5CXAZZhPr+vXXrJPWIO1y9arx+586r1SMEYBd19LWyfi9SwvihmZ3IhkGwCsMTy9hhTGY1fuAYxg+0RVYmjExkZiLDB2Ymxo/sMjQhPDdeZ0pKivqpE0LcolOn1YY+HmOKm7RsmRjW60czjEEiI8YghISHtLQrhv4dnhPJHuLK3Fy06IC45po2PuGHSIxs3LhRyUqRDYrZKUw4cLcRd3YRZKJuDgJY1KfBf/FvPI7jaJfdEwiZMLlJTEzkhJaQMIC/K33/Xr/+YvWIO8Dc1F+/RYtE9QjR2L9/v5JVmJ0GoEx4PTA9zeOHXngMgR8CULSVXSc7hTFtwIAB4ty5c+qnTQhxk+bNEw19PPp8N6lXb7Hh+pwLWmEMEj4xBiEkfKSmXjH070uWHFSPkEhDc5NYQICKTBevBajRLCxD2blzp/oJE0LchuamNzh58qTo27evJ4O7aBVM16lTp3IZISFhhOamN2AM4r4YgxASXmhuegeam0TK2bNnxbBhwzyZwRJNwuSsd+/eXEZISJihuekdLl26JKZNm6aYcrJ+kbIvLI1cu3YtjRBCwgzNTe/AGMQdMQYhJDLQ3PQONDeJX37//XexePFipd6YbNCkAgtLVbALJAJ9Qkh4obnpLVBDbf369UrdS1n/SAUWMl+7desmDh7kBJmQSEBz01swBglNjEEIiRw0N70DzU2SJXv37lUKZHOJiD3hc8ImFlu3blU/QUJIuKG56U2QMYJakczAsS/UccOmDwxKCYkcNDe9CWMQZ2IMQkjkobnpHWhuElucP39eCbZQkFo2mFIZQkHx8ePHK0tqCCGRg+amd0GtyKSkJGXncVm/SWUI2ZoI4lEbjcYHIZGF5qZ3YQxiT4xBCMkeaG56B5qbxBEo9N2jRw9m4ZiEO6UdOnQQ27dv54SVkGyA5qb3OXHihFJHjbU4rapTp46YPXs2szUJySb+v707gY+ivP84zm6y4ZYICvJHq6AGREAQL6qoqFWxWsW/R2ut1VrvowIV76OItyiHgghIAQUBQQERKreEI2AFFBWqnOX+R7Ackphsv/+Z3UmyITOzs5uQ7JjP+/X6vV66u/NkdhKe3/P8ZuYZipupjzmIfTAHAaoWxc3UQXETCTOvwsnJyTEGgs9W+9tEzO//xBNPaM6cOfrxxx+tIwSgslHc9AdzLc6vvvpKAwYMYIJqhHmlzahRo7RlyxbrCAGoChQ3/YE5SEkwBwFSA8XN1EFxE0nbs2ePZs6cGUmsdkn35x4PP/xw5InA33//vXVEAFQVipv+kpeXp8WLF+uFF16olhPU+++/P/IU23/961+Rgi+AqkVx01+YgzAHAVIFxc3UQXET5bZr167IE/kee+yxn/0k1fx+5pMb33//fe3YscM6AgCqGsVNfzLXUlu4cGHkKhxzzUm7fvfnFPfdd58GDx6sVatWqaCgwDoKAKoaxU1/Yg4CoKpR3EwdFDdRYcwFrGfNmvWznKSaA4qnn346sqC5+fRfBqVAaqG46W/mLXXmQ4f69esXKQDa9cN+jr/+9a8aMWKE1qxZQ1ETSEEUN/2NOQiAqkJxM3VUq+Lm5s179MorS4vjp58KrXdQkfbu3aulS5fqrbfeUo8ePXx9JtV88MXrr78eubKIpw8CqS22f1+4cLP1asUwJxOx7efkbLXeQUUy11Mzr2ocPXp05CE7fs4f5gS7d+/emjJlijZt2sSEFEhhS5ZsKdXHV7Ts7H8f0vYRxRwEQGXLzy8s1b+bNSdUjWpV3ETlKiwsjDwkwbxd5KWXXvLNE3LNq4bMM78ffPCB1q9fr59++sn6RgCAymAWAs21xObOnRuZ3PXs2dO2v061MCfSZlHWfEjQZ599FrntHgBQuZiDAED1Q3ETlcK8Dc98cIKZrPv37x+ZqKbK2VRzP8xBz8svv6wJEyZEnuRrPuwCAFD1zELnv//978jDI8z1Ks3iYSrddmg+9f2pp56K3HZu3lqfm5tr7TkAoKoxBwGA6oHiJiqdeRbSXDMmOzs7sii2eUb1wQcfjEwQ7RJ/RYc5KTYHNuaZ0XfffVeffvqptm3bpgMHDlh7CABIRebVOObtef/85z81depUDRw4MPLU2Mpap9OciD7wwAORJ/Satz3+4x//iEyazVshue0cAFIbcxAA+PmiuIkqZ05Wzaf+ffnll5FbEEeOHBk5s2quVWY+hMEcCJgTyqKwGywUReznigYQ5iLcr732moYOHRq5PWXFihXaunUrD3UAAJ8zC4pmsfObb77RokWL9N5770VuY3/uueciT5W99957S+UQu7xRFAfnD/Nqmscffzwy+R00aJAmTpwYWctt7dq1kYkoxUwA8DfmIADw80FxEynJTPrmWmXm7X2bN2+O3KZh3u5n3pY4efLkyNlWcxL7zjvvaOzYsZH/N183r6JZvHhx5PPmbYzm9uYVNQwiAKB6CIfDkaev79q1K3JFjHllpbn+5Zw5cyJXe06aNEnjxo2L5I8xY8ZEbgU0b1c0J57mVTTm5HPdunWRq3v+85//cIsgAFQjzEEAwJ8obgIAAAAAAADwJYqbAAAAAAAAAHyJ4iYAAAAAAAAAX6K4CQAAAAAAAMCXKG4CAAAAAAAA8CWKmwAAAAAAAAB8qVoVN/fty9fKlTuKIxz+r/UOAMDvYvv37dv3Wa9WnNj2d+7cb70KAPC7HTv2lerjK5qZkw5l+wCAqmHWlGL79/37f7LeQWWrVsXN+fM3qUaNl4pj79586x0AgJ/997//LdW/P/74p9Y7FcMcuMS2/9xzi613AAB+9+yzi0v18RV9AcRjj31aqn0zZwEA/G/PnvxS/fuCBf+23kFlo7gJAPA9ipsAgGRR3AQAJIPiZuqguAkA8D2KmwCAZFHcBAAkg+Jm6qC4CQDwPYqbAIBkUdwEACSD4mbqoLgJAPA9ipsAgGRR3AQAJIPiZuqguAkA8D2KmwCAZFHcBAAkg+Jm6qC4CQDwPYqbAIBkUdwEACSD4mbqoLgJAPA9ipsAgGRR3AQAJIPiZuqotsXNJk1e11/+Mks9e85xjHfe+cra0pv9+3+ybccttmzZa23tzUcffWfbjlO8+eZya0vv7NpxizVrvre29GbevE227TjFK68stbb07umns23bcorPPttmbemN+Xm7dpziqaeyrS29M7+3XVtOYR7XRJi/N7t23CJRQ4assG3HKcy/70Rs3brXth23MP+dJuLdd7+ybccpxo792trSm//8J8+2HbfYvn2ftbU3kyd/a9uOUwwdutLa0ju7dtzi2293WVt6M2fORtt2isLsz1u3Hlbcxx/q4ubtt8+w3Y/YyMsrsLb2ZuTIL23bcYoJE1ZbW3rz/fc/2rbjFrm5P1pbezNx4hrbdpzi7be/sLb0pqAgbNuOW6xf/4O1tTf/+Mc623acYuDAf1pbevfII/Nt23KKL7/caW3pzaJFm23bcYpkivVmMciuLadYvHiLtaU35ne2a8cpzGOaqAEDPrNtyyk++WS9taU35t+eXTtuYf6NJ8L8N2TXjlNMmrTG2tKb//u//bbtuMWuXQesrb0ZP361bTtOMWrUKmtLb8y+2K6d2Ljtthml+vhDWdxs3Xp43DmImfMSYeZUu3bcIlHm2MCuHacwxx6JMMc2du24hVlUSIQ5RrNrxynGjElsTLdvX75tO25hjmUTMXVqYnNBcyyeKLt23OJf/0psTFcZc0Fz7mXXllP885/brS29SXQu+Le/LbS29O7ll3Ns23IKs9aRiNWrD/1ccPDg5bbtOMW0aWutLb3ZvHmPbTtukehc0KwJ2bVTFA88MDtSWyrq4yluVp1qWdxs3Ph1HXfcm8V/gE5xww1TrS29MQeAdu24xfLliXWkvXrNs23HKS66aJy1pXfBoH1bTmFOBBPRt+9S23acol27EdaW3h111Bu2bTlFogPl0aNX2bbjFGaHlyjze9u15RSJJn7z92bXjlsk6le/GmfbjlOYf9+JWLFih207bmH+O03E738/1bYdp/jjH6dZW3pjDmrt2nGLVav+z9ram+7dZ9u24xRdu06wtvTm4MKfl0h04vbCC0ts24mNzMz+atVqaOS/D2Vx87zzxhb/t1skOum65poPbdtxCrPAmgiz0GLXjlskWoS+++5PbNtxiquummRt6c2PP/5k245bLFy42draG3MCYteOU/zyl+9YW3pXr95rtm05RaIFKXMyYdeOUxx//FvWlt61aDHEti2nSPRkq/md7dpxivr1X7O29K5Tp3ds23KK3r0Tm5xmZ//bth23OHAgsZMiV145ybYdp7jnnpnWlt6YRQu7dtxiw4bETigcXFiMF9deO9na0hvzJKJdOwfHeeeNKf7vQ1XcbNVqmBo06Ff8c5zixReXWFt6M3v2Btt23CLRq0cvvXSCbTtO0aNHYoUQ84SGXTtusW1bYoXBm26aZtuOU9x440fWlt7s3Jn4XHDlyh3W1t48+OBc23ac4uKLx1tbemfXjlskeuLHLNrZteMUp5yS+FzQnO/bteUUiV7UZJ6QtmvHKZo2fcPa0ru2bd+2bcspXn11mbWlNzNmJDYXNGsEibrwwvds23KKhx5KbC74+efbbdtxi0RP3P/ud1Ns24mN5s2HGPP9gZH/prhZdapdcdNrYdMMipveguJm/KC46S0obnoLipvOUVTgPFTFTa+FTTMobsYPipveguJm/KC46S0obrpHUYHzUBQ3vRY2zaC46S0obsYPipveguJm/KC46R5FBU6Km1WnWhU3zT80r4VNMyhueguKm/GD4qa3oLjpLShuuodZ4HzxxRxry4phfsdECptmUNyMHxQ3vQXFzfhBcdNbUNyMH2aBs6KLm88/v8RzYdMMipveguJm/KC46S0obsYPipvxwyxwJjruRMWpVsVNk5nIvUYy7Npxi2TYteMUybBrxy2SYdeOWyTKrg23SIZdO26RKLs23CIZdu24RTLs2nGKZNi14xbJsGvHKZJh145bJMOuHadIhl07bpEMu3ac4lCw+zlukQy7dpwiGXbtuEUy7NpximTYteMWybBrxymSYdeOWyTDrh23SJRdG26RDLt23CIZdu04RTLs2nGLZNi14xTJsGvHLZJh145TJMOuHbc4FOx+jlMkw64dt0iGXTtOkQy7dtwiGXbtOEUy7Npxi2TYteMUybBrxy2SYdeOWyTKrg23SIZdO26RKLs23CIZdu24RTLs2nGKZNi14xbJsGvHKVB1ql1xEwAAAAAAAMDPA8VNAAAAAAAAAL5EcRMAAAAAAACAL1HcBAAAAAAAAOBLFDcBAAAAAAAA+BLFTQAAAAAAAAC+RHETAAAAAAAAgC9R3AQAAAAAAADgSxQ3AQAAAAAAAPgSxU0AAAAAAAAAvkRxEwAAAAAAAIAvUdwEAAAAAAAA4EsUNwEAAAAAAAD4EsVNAAAAAAAAAL5EcRMAAAAAAACAL1HcBAAAAAAAAOBLFDcBAAAAAAAA+BLFTQAAAAAAAAC+RHETAAAAAAAAgC9R3AQAAAAAAADgSxQ3AQAAAAAAAPgSxU0AAAAAAAAAvkRxEwAAAAAAAIAvUdwEAAAAAAAA4EsUNwEAAAAAAAD4EsVNAAAAAAAAAL5EcRMAAAAAAACAL1HcBAAAAAAAAOBLFDcBAAAAAAAA+BLFTQAAAAAAAAC+RHETAAAAAAAAgC9R3AQAAAAAAADgSxQ3AQAAAAAAAPgSxU0AAAAAAAAAvkRxEwAAAAAAAIAvUdwEAAAAAAAA4EsUNwEAAAAAAAD4EsVNAAAAAAAAAL5EcRMAAAAAAACAL1HcBAAAAAAAAOBLFDcBAAAAAAAA+BLFTQAAAAAAAAC+RHETAAAAAAAAgC9R3AQAAAAAAADgSxQ3AQAAAAAAAPgSxU0AAAAAAAAAvkRxEwAAAAAAAIAvUdwEAAAAAAAA4EsUN1Hthbct09QJ4zV+/ERlbyi0XgUAIFlhbVs2VRPGG7llYrZILf63b81cvW/+Pt+foS++D1uvAoBPhbdp2dQJxvxnvCZmbxBpCoDfUdxEtXdg2q1qGqyhGjVq6ooRe6xXU0lYO3PGqF/f4Zq7Md96zQ8O7X6Hd+ZoTL++Gj53o/x0VABUBwc07damCtYwckvNK5SSqcW3uaUqFGrdK50VMn+f6a304GKb4xXeqZwx/dR3+FzZHs547wNAZTowTbc2DRrznxqqecUIpeQMiLF+wjhmqM4obqJSFCx/UV1bt1TLlifprJ4ztNd63as9Hz2gM1qZ27fWhb2XWK9WjFQvboZ3jlK3w83BR0C1znxWqwqsN1LcId1vY5I4qtvhkcJBoNaZetYvBwVAhUrd3JL6xU2/5paqEa+4GdbOUd10uDmWCNTSmc+uUunDGe99AD9LBcv1YtfWRo5pqZPO6qkZiScpPXBGq8j2rS/srSUVWa1K9eImY/3EccxQzVHcROXIz1aPrPRIAg02vlETf7Be92SXxl1/RHSSmNZc98w+YL1eMVK9uFm4+nmdFTL3r4bSfnGnZuZZb6S4Q7rfhav1/FmhSNs10n6hO/1yUABUrJTNLalf3PRrbqka8YqbhVr9/FnR92uk6Rd3zlTpwxnvfQA/T/nK7pGldPPffrCxbkwsSWnXuOt1RGSOkqbm98w2MksFSvXiJmP9xHHMUM1R3EQlKVDOwydbyb2Rrhu7y3rdg9zRujpydUkNpWf1UHYFX2Of8relF36jode1UsPMY3XhM9kJX5lUZQ7pfhfqm6HXqVXDTB174TPK9s1BAVCxUjW3+OC2dL/mlioR/7b0wm+G6rpWDZV57IV6xiYpxXsfwM9TQc7DOjndnGcE1ei6sfKepXI1+uroVXg10rPUo+InQCl+Wzpj/cRxzFC9UdxEpSlY8aQ6hAKR5J7ZbZR2elqPP6ztb1+hBgFzUBDSyY8srfBbuVJ/zU0AgJPUzC1+WHMT3nlYcxMA7BSs0JMdQgoY/Ucws5tGeUtSCm9/W1c0MHNbDYVOfkRLK34ClPJrbgJAIihuovIUfqU+Z2REknvgsMs1bJuH5B7eojcvrR/dJtRBT66o+LVDKG4CgI+lZG6huPnzQnETQLIK9VWfM5RhnkwLHKbLh21T/CwV1pY3L1X9yDYhdXhyRcWv00txE8DPDMVNVKJCffvSOaoZSdT1dMngzXGTe3jDQF1QxzxrGVDGmc/q60LrjTLCOrBjtRZNf1/vvD1EgwcP1d/HTdPC1blxnxSXcHEzvE+bPvtEE0YMVv9XX1X/wSP0/qwV2rrfet/Vfu3csE5r121UbqmFc/Zo7aKpGjN0oPoNeFMjpyyPufrI2mbtWq3bntz9Bft3btC6teu0KTdm7ZXwXq0zfubY4W+oX/839Pa4Gfp8s/2XCO/doJxpYzR04Gt6tf8gjZgwSyu3xVv5J/H9Du/bpM9nvq+/vzlAr73WX4OGvasp81dq876yfynR77TWOJbbuZ0SqNZSMbckUdwkt3jMLQfL186v52vSSOO4vTZAg0e8p2k5G7U33h/BwfK264vZEzRiUH+92u8NDX9vupZt2me9Gdb6vucqw624uX+nNqwzcpJxPGwPZ7z3AfxsFX77ks6pGc059S4ZrM3xk5QGXlAnegIu40w965ykjM8e0I7VizT9/Xf09pDBGjz07xo3baFW58aZASVc3Axr36bP9MmEERrc/1Wjzx6sEe/P0gpvSao4X2wsnaS0Z+0iTR0zVAP7DdCbI6doecyVreUe61v97rpNuTHrHIe1d53xM8cO1xv9+uuNt8dpxuebjYxow8hnG3KmRXLoa68a85IREzRr5bYE1z5Nfo5aJccM8DGKm6hU4fX91cWaUNa5YIA2uCb3Qn1nTCZqRSastXTuK98Zr5QW3vWFJr5wpy7v2Ex1gtFbN0pFIEONO96gl+ZtN1KLPc/FzcLtyn7jDnVpXl9p5j6V+lkBpWe2VNeeo7Rit/V5O0UDiWBD3TjJTFRh7ZjfVzd2bKxQTJuhU57Q50WnaMt9ZrVokh1Q5nXjjES3X9+811OXnNhA6Qd9j0Coodpe/7I+3WEdrf2rNeHhy9WyQVpkgFXqsxlNdNotg7TU6fsmsN+F2z7VgNvOV/P6ZX+OeWyDtY7Sad2nWp82cVUUgBKpl1sS6KPILaU/Gy+3FCvU1rl99cczm0Z/l7HtBIKq2/xX6j5qheI+vsM4/vNf/YNOaxK9+je2nUB6plpf9aSmrDugHW9erJrm6w7FzXhjCe4SAaqx8Hr172IVK+tcoAHuSUqF3/XVubWiOa3Wua/ouzK1zbB2fTFRL9x5uTo2q6Ngmdxh9qWN1fGGlzRvu8PP8pwDCrU9+w3d0aW56qeVzYdmP9mya0+Nck9SVr4IquGNk4z/M77Bjvnqe2NHNY4sK2O1FzpFT5QkqXKP9Yv63UDmdRq310g937ynnpecqAbpB32PQEgN216vlz/dYeX0/Vo94WFd3rJB2bxs5P8mp92iQXGSVMWNIyr3mAF+RnETlSu8WYMvqRdN7rU665Wy2bpE4Wq90KmmNRC4UAM3Htz1F2r1i2eXTGoCaarT+Hi1Pa2TOp3eRsdmRte3Md8L1OuoRxfYn7/yNOHY/4UGX31c9MqgyM8KqUGzLLXt0F6tWzRR3eJkH1T9trdrwgaH71U8kMjQxYO3adtH96ptXWtbYzKWUbe+6oTSVPeqkSUTsgqbgBoT23YPaWy/rjrK3N9Auuo1PVFtOpyqdic0Vu3ixBvUYZ16a+nOHL3Q5choUre+b7sOHdSmeSPjOJR89shL39Bqu6/rcb/3r3hdVx0bM6k0fo+1GjRWs2ZHKbOWNfE1BgBn9PnK2sJE8gYQI+Vyi8c+itySeG6JyNPXw65R88iVUNF2Mo85WaeddaZOzWpS8jODh+vMh2eqqKZaRuFGjb+lpWrHHP/MY9vq9E6/1GltjtPhGWY7AYWOvlL9nrs6ukYrxU0ACQtr8+BLVC/S79VSZ5uTaiWMHPRCJ+tuhDq6cODGssUvI4+9eHatklyUVkeNj2+r0zp10ultjlVmcfEroHodH5V9mvKSA/bri8FX67iivtbsDxs0U1bbDmrfuoWa1C05QRWs31a3T9jg8L1K8kXGxYO1bdtHurdtXWvbgIIZdVW/Tkhpda/SyJIkVe6xfnG/G2qnh8b2U9ejzP0NKL1eU53YpoNObXeCGtcOlnyHwzqp99Kdynmhi46M5F/r+7broA5tmquRcRyKP3vkpXrDMUlV7DiiMo8Z4GcUN1HJwto+3HqIQyBDZz33jWNyL/iyt06LJOeA6l/2lrbaTE7Cm4eoW8uz9LtHh2jaFztLX95/YL2mPdpZjSKTCSO5X/S67dU8cScc4VxNuzPLWisnXU3P66FRy3aU+ln7Ns7ToD931OFFP+v0J7XY7v6G4oFESO3veES/aWIk1Ixm6tJ9mOat3RMdvBTu1Y7colvhDBU4AQ2E6qpuzaDqtfmDBs7bZLxTJKzdX4zSn9tFiwPmrZ1ZRhLPML5vk3N7aszy3Ji1fgq1M+d1XXe8VZBMa6Y/TbFJyh72O5w7VbefaCX4YKba3vCCPlixveTWkYLdWrdkst58+jlNXB/7l0LyBhAr1XKLhz6K3JJcbjHsmdtTbayrmmpnXaNX5mwqdcvh7pWjdVfHzOjxTztKV4/aFD0GpRiTz/4XKtM6tjWP76aXZsfuu/G3kvu53unRWU3SjclwyJhEmr8ripsAkhDePtx6QFBAGWc9p2+ck5R6nxYdGwfqX6a37JKU0aNtHtJNLc/6nR4dMk1f7CzdJx1YP02Pdm4U7QONfvei1zdY78SImwPCyp12p7KskzzpTc9Tj1HLtKN0ktK8QX9Wx8Oj7QTqna4n7ZNUcb4Itb9Dj/ymiYJGrm7WpbuGzVurPdEkpb07clWSpco/1i/udwMh1a1bU8F6bfSHgfO0KaajD+/+QqP+3C5aeDbzbFYbNTe+c3qTc9VzzHLlliQpFe7M0evXHR/N2zXS1OxPUxxv/a7IcURlHjPAzyhuovLljtbVkSQYUKjj3/RlTNIoUaDlT7SP3k4XzNRVI4tuE0hQ4Xd69XzrNpC6V+jt763XY8SbcOQt7KXW1kT4sHP66LOYuWEp4V2a+9f21q2OdfTL51eVXfy7eCARUDBoTj5P1E1j17kvEl6BE1CzjWCTbhq5yf5o5i17TKfEnO2t2a6X/dlew54Zd6p5mvm5NB19xyfWqzHi7neeFvZqHf0dB2qrfc85yvX8SyZ5AzhISuWW+H0UucV68yBxc0vBCj3dMXrFUrDJbzRsrX2FILz5HV3TNC3y89KzHtD82KqlafcHuul/zPeNdjK7qO+qmHVDS9mjeT1OtiazRlDcBJCUXI2++vBInxkIddTf7JOUCpY/ofaR/jKozKtGOl95Hkfhd6/qfGu5lrpXvG29GiNeDshbqF6trSLrYeeoj3OS0q65f1V764RTnV8+r1Vlk1RxvggYOcos0p1401itc09S5R7rl/S7RgSbqNtIuxNdhrxleuyUmKspa7ZTL+ckpTubR3NH2tF36BOn1BFPAuOIyjxmgJ9R3EQV2K3xvz0y2vGG2unx4nVCYuTn6KHW6ZHEEWx0ncbusl5PWKG+7nN69AmnpdYkKeE+4diryTdbScKY0PTMPnh2dJA903X7cVbCa3Gf5h6c8GIGEuZZxJN6zI+/2HOFTkDTdVKvxaXPHsYqWKZH24Ss/WugK4a7PNExb7puaxb9rhld+lsvxoi333un6BZrYpne4i7NjHsgYpG8ARwslXJLvD6K3JJsbjkw8y4daxY/AzV1Rh+bQm+xfGX3yFK6+TPTjtGdM0sftO/fudq6ajNdrXpmG9/GWXjH2/pN5Ior4/MUNwEkaff43+rISD8QUrvHP7fpv/KV81DraL8VbKTrkk9SRpr6Wn1Oj/a75nrLZcTJAXsn32z1WfH7SPMk0PTbj1NapL9tofvKJqmYfBFQ6KQemh8/SZV7rB9b3Ew/qZdsum5LgZY92iaa0439a3DFcG1zTlKafluz6HfN6KL+cZ8O5SSBcUQlHjPAzyhuokrs+fCPxQnzpF5LykyI8rN7KCvdfD+oJn+YlMSkq8SuYZdZDwHIUs+FCU5I8mbr7mOtAlzrh5TjmBSL5Gne/cdHByXmBGjRQRvEDCS8LCgeUZET0LRmum26yynG8HYNuigj8rNqhDqr73qX/StYpd4drUFTx6etF2PE2e+8ufdaV+ekK6v7AudJsS2SN4CyUie3xOmjyC3WGzZcc0tMwTJ0hp51vK8zat/7v7Nu6Q/p9Gdi123O08e3/k90cupQrCwlvE2DfmWtb0dxE0Cy9nyoP1r9rllsW3JwV5KfrR5Z1gm4Jn/QpHJ1Fbs07LKa0Z+V1dN6LYZrDsjT7LuPtfrI1noofpJS3rz7dXwkv6ar1YOLDsq/MfkiUEcXDNjg4a6J8o/1S/rdNDW7bbrxrZyEtX3QRcowf5aRLzr3Xe+yfwVa1bujVZTsqKe/cD7FFo/ncUQlHjPAzyhuomrs+1h/Ptqa2GV114JS/Xme5tzbwjr710y3fuR0G4SNwv3K3fStvlr5mXIWLdD8OTP1Ya9O0QRkJI4e2WWTs9uEI7yxn87PMN8LKPP6cTFrmjj7YXQ31Y/cPlhTFw8+6Al4MQMJc9LmKR9W5AQ0dLZecnvQhjEQGto1OhAKNvy9Jrqdpi1crefPsiagHZ60Xozhut9hbR7QJTqICDTQNWMS/VYkbwA2Uia3uPdR5BbrZTtuuSW8VW9cFH0YVDDzMr00Z4EWLHCOeYOuVzPrFvdjYm9xD6/Xq+dGi62BBtdobNyrYfI09z7rb4fiJoCk7dPHfz7a6kuy1L10klLenHvVwuqzmt36kafcUKRwf642ffuVVn6Wo0UL5mvOzA/Vq1O0L03P6mF9KoZbDghvVL/zrT4y83qN85ak1K1+9Nb0mhcPVumHtMfmC68FwfKP9Uv63ZDOfsntIU5GlhraNVpoDDbU792TlFY/f5ZV3OygJ1d4LG6WZxxRiccM8DOKm6giBzT7nubWJLO57pkdk0T2z9Adv4hOTtOOu1uzXO+DyNeWxaPV565uOrfNMcrMKHniXZlIoriZn/OQWltnIU944FNPVxfmzbJumTMf7PDk8tK3nMQOJC4bZkz3PKjICWjNSzUk13rZVskENK3ZbXK7EKd8xc0CLX3Euv0j/XjdP9/LkY1F8gZgJ1Vyi3sfRW6xXrbjlltib29PKIJqfPMUqxFDzPIE6Sf8RfFTUIG+/Jt1pQ7FTQDlcGD2PcXrCje/Z7bRkxbZrxl3/MLKX8fpbvckZfRjW7R4dB/d1e1ctTkmUxlBa+kMm0i4uFmqj3xAn3pLUrrLuiMh1P5JLS+dpGLyxWUa5i1JlXusH9vvXuqepEqKm/HuRPBc3KzIcUTlHTPAzyhuosrkL+hu3R6YpmNun2Gk9Ki9U/9kXWkR53bl3UvU/7pWql+czAMK1T9KJ7Q7Q50vuES/vrKbrv3t73VtJ2tdlGSKm8X7GNLJjywtPZl0kL+wp7WNzW2RyUwmK3QCGi/RxUxAj75dMw5ZcTNfnz5wonVrYRs9stTLkY1F8gZgLzVyi3sfRW6xXrbjllvyP9UDJ0Yn3OYT2g8/8kgd6Sma6KT7ZliNGGLaCbV5RPFTUKHWvnwOxU0A5Ze/QN2tW8/TjjH6w5IkpT9Z6w2XvfOgtN1L+uu6VvUVLHrQWSCk+kedoHZndNYFl/xaV3a7Vr/9/bXqVNxeosXNkn0MneyljzTkL1RPa5uyt9wnM24v/1g/kX63pLh5tG53T1Lxi5uVMI6wV/5jBvgZxU1UnfwlxWcF05rdqmmR5L5HH950VLRTNtd4KbMYjaXwOw25vHH0c4Ga+sWveuqt2Wu0q0x+CWvja+dFb39OorhZ8PnjOiVkvpemFvfNc54Mx8ibeaeOsa6uOfWpL5yvrvk5T0BNrvudr5yHT7bWjztBf+HKTQAVJSVyi3sfRW6xXrbjeuVmjh4+2Zo8Z/WUzTLa3sRelXSil6uSjMnsc9ZkluImgHLJ15KihwaZS6REk5T2fHiTjor0Eelq/VDZNaOLFH43RJc3jvbdgZq/0K96vqXZa3aVPUkW3qjXzoveWp5wcbPgcz1+SrQfNh9iN89bktKdx1hXbp761EHLoyQzbi//WL9KipuVNI6wV/5jBvgZxU1UoQItf7K9QuZZRyOR3Db9gLRvsm4+yky0AZtbGkocmHWXjotM8oJqdNlgfevwOTMBrX35bGtCknhxU7lvqWut6Pox9a4apd3Wy25yh/9adSLrotXWZUMPugWiukxATa77bST0fudba24epqvf+cF63SuSNwAnqZBb4vRR5BZnbrklvFkDumREbu0z18pMeLnmIuENetWa9HtbTy6mGEFxE0A5FSx/Uu1DZg5I09G3TTd6032afHP0BFwg1F5POiUp45Oz7rKeSh5spMsGf1u2qFmkcK1ePjvalyZc3FSu3uoafYhaoN5VGuUtSenXdaJ5rfZlQ40WYiUzbi//WL8qipuVNo6wVf5jBvgZxU1UqcJVz+j0SHJP1/H3z9MPM26PXpkSyNAZfb4yun07BVr51KnRZBA8QjdOcpuV5GnOPdYgIJniZuyZy+PuVuzybfb2a/pt1kLhoTZ6dNlBGa26TEBNcfa7ZP24NLW4d67LEwztkLwBOKv63BKnjyK3OHPNLfla0N1a0iTtWN05M+6Bc5BnHE/rdsDQyR6WRtmtUVfVi66XRnETQHkVrtIzp4cifUr68fdr3g8zdHvkqseAMs7oo6+cnnxTsFJPnRrtH4NH3Cj3NDVH9xyX5G3pRj78/PFTovnQXP8zfpLS/um36ejIuD6kNo8uO6jomsy4vfxj/covblbiOMJW+Y8Z4GcUN1G1CtfoxbOjTz4NtX9Ew3ucFJm0BGqdo5e/dcrs+VrYM8ua3LTQfXNdEtD+efqLtf5LUsVNI0kte7Rt8RVAN3/ovppzOHeCbmhaMpAom6eqywTUEG+/93yomyJXUhk/65hbNNnTQtlFSN4AXFR5bonXR5FbHMXJLQeKnyYcVOP/Ha2tpZ7I692uMdfo8EjuT9fJvRa7n2DbNU6/PTJ6rChuAii/Qq158WzVNHNAqL0eGd5DJ5lrKgdq6ZyXv3U4AWeIWdfSvF3cPU39xVqnOZnippGllj2qtkVXl978odGLuwjnasINTVOuUFf5xc3KHEfYKf8xA/yM4iaqWKHW9eui2kZyD2S0UtuW5lnMgOpcMEAbHCcsYa3ve651S3MtdX7lO/tBQHiX5j98muqZAwfHxBE/8RWuf1NdDzeTf0AZre7Q1G0OOxbeog9vzYpOVgP1dX7f1WX3qxpNQOPv9wFl//Uk63hlqOVtkxOYpJK8Abip6twSv48itziIl1sKv9ZLnaNXUQbSmuqyfp9rr/WWo4KCg64iMvwwRX86OlowDmZ20Usrna5M2quFD3dQreLfN8VNAOVXuK6futQORMbArdq2jPTxgToXaIBzkjLywXr1PddaUqNWZ73ynX0ZNLxrvh4+zbra3IhkiptGktKbXQ+P9PFmHr1j6jYjS9oJa8uHtyorUggNqP75fbW6bJJKYtxe/rF+5Rc3K3ccUVb5jxngZxQ3UeXCmwbp4npmQrQ6eGPydumQLQ4JNKrgy2d0es3oNsFGnfXQB6u1p3iDPO1Y/r76XNta9YPpanJCCzUwE1uSxU3zLNzXAy/WEZHPBFW/1TXqM3G5thfnvQPa+tk4PX1VlupGklRQmec8p8/t5knVaQLqYb/DO6fq9hOjt+XUCNTR8Zc/or/PW63cPOOXGT6g7zet1rJPRun5+6/Ttc9mW1uZSN4A3FVtbvHSR5FbbMXLLYYDy1/UeZHCsDHpDmaqzTVPaMTsVdp+wPplFezRlq8W6aORL+vBG7uoZceeNg8NKtR3g7taxz+g0NEX6eF3l2lb8b4VaPeamXrjjrN0ZFpQhzVqqAzz90BxE0BFCG/SoItLCpCRwuClQ7TFLUkZ/dKXz5weveLTyAmNOj+kD1bvKclreTu0/P0+urZ1fQXTm+iEFg0ifXRSxU1D/tcDdfER0c8E67fSNX0manlJktKBrZ9p3NNXKauulTczz9Fz9kkqiXF7+cf6lV/crOxxxMHKf8wAP6O4iaoX3qZhlx9WnNwDmVdqxA7XzG7YpZnd20YfrmBuFwiqdqNjdMIJzdWsYW2lma8H0nRkl2eV/c1AXWg+uCHp4qYh/L3m975ATSNnJc3PBpRWK1NNmjVT4wY1oz8vsh9panjmg/rY6RLE6jQB9bjf+794U//bIrpouflZMwLBkELpwZjX0tTstunWFiaSN4A4qjS3eOyjyC1leShuGgdOO+c8pS5NrZNjVgSM4xSqGTKOW9HxjEb6CQ5PRA9v1dT72uuwyBjAjIDSax+upkcfo/9pWEfpkeMfUJ3Wt2v8R4+orfmEe4qbACpEWNuGXa7Divv5TF05YofrCbiIXTPVvW2dktwWrK1Gx5ygE5o3U8PaaZHXA2lHqsuz2fpm4IWRq86TLW6a+/j9/N66IKavDaTVUmaTZmrWuIFqpsXkroZn6sGPtzrsfzLj9vKP9auiuFnp44hSyn/MAD+juImUsHN0N2vtq6AaXTtG31uvuyrcrvmv3KjTjoquqxZNrmYEFMpspV8/NF6r9xufy1+iXiell6+4GVGgLfMG6I4Ls5RZPBG1IpCuw1qcp1te+Fjr3Nbcrk4T0AT2O5y7VMN7XKG2R0afgmtuUxyBkDJP7KK73/3W+rSJ5A0gvqrLLYn0UeSWUjwVN6MKtn6qN+69TCcfYZM7jN9XsHYTtbnoZj317ufa5Vgx2K3lf++uri0zrWJmyfZp9Zury11vakmusfHuEfqN+SRgipsAKsrO0epmXYUebHStxnhKUmaamq9XbjxNR1lXCBaHOWZu9Ws9NH61ommqV2Qtz+SLm1EFW+ZpwB0XKiuz9Akls59MP6yFzrvlBX3snqSSGLeXf6xfNcVNQ6WPI4qU/5gBfkZxE/5XsFtrl87W1EnjNX7iVM1aslo73XJSBcjLXaOcWVM0cfx4TZw6W0vW7HR/GAG8KdyjjSvm6+MPJmjc+ImaPGOBVqzfXXatNAA41Mgt/mHkjk0rP9X0D43c8d44vT95uubmfKNt++NeAxUjTzu+XqRPzDbGf6CPF3yprebkEwBSVMHutVo6e6omRXLGLC1ZfYhzRl6u1uTM0pSJ0bw4e8maQ54Xfa0KxhFAdUZxEwAAAAAAAIAvUdwEAAAAAAAA4EsUNwEAAAAAAAD4EsVNAAAAAAAAAL5EcRMAAAAAAACAL1HcBAAAAAAAAOBLFDcBAAAAAAAA+BLFTQAAAAAAAAC+RHETAAAAAAAAgC9R3AQAAAAAAADgSxQ3AQAAAAAAAPgSxU0AAAAAAAAAvkRxEwAAAAAAAIAvUdwEAAAAAAAA4EsUNwEAAAAAAAD4kPT/SrBBFHItrKkAAAAASUVORK5CYII=;" parent="1" vertex="1">
          <mxGeometry x="470" y="280" width="220" height="110" as="geometry" />
        </mxCell>
        <mxCell id="o5DvdfLguo0AZOg0hn8v-25" value="GUI" style="swimlane;rounded=1;sketch=1;hachureGap=4;jiggle=2;curveFitting=1;strokeColor=#788AA3;fontFamily=Architects Daughter;fontSource=https%3A%2F%2Ffonts.googleapis.com%2Fcss%3Ffamily%3DArchitects%2BDaughter;fontSize=20;fontColor=#46495D;fillColor=#B2C9AB;fillStyle=auto;gradientColor=none;swimlaneFillColor=default;" parent="1" vertex="1">
          <mxGeometry x="288" y="870" width="200" height="200" as="geometry">
            <mxRectangle x="269" y="485" width="70" height="40" as="alternateBounds" />
          </mxGeometry>
        </mxCell>
        <mxCell id="o5DvdfLguo0AZOg0hn8v-41" value="" style="group" parent="o5DvdfLguo0AZOg0hn8v-25" vertex="1" connectable="0">
          <mxGeometry y="40" width="200" height="150" as="geometry" />
        </mxCell>
        <mxCell id="o5DvdfLguo0AZOg0hn8v-35" value="" style="group" parent="o5DvdfLguo0AZOg0hn8v-41" vertex="1" connectable="0">
          <mxGeometry width="200" height="150" as="geometry" />
        </mxCell>
        <mxCell id="o5DvdfLguo0AZOg0hn8v-31" value="Dmin" style="text;html=1;strokeColor=none;fillColor=none;align=center;verticalAlign=middle;whiteSpace=wrap;rounded=0;fontSize=20;fontFamily=Architects Daughter;fontColor=#46495D;" parent="o5DvdfLguo0AZOg0hn8v-35" vertex="1">
          <mxGeometry y="120" width="60" height="30" as="geometry" />
        </mxCell>
        <mxCell id="o5DvdfLguo0AZOg0hn8v-32" value="Dmax" style="text;html=1;strokeColor=none;fillColor=none;align=center;verticalAlign=middle;whiteSpace=wrap;rounded=0;fontSize=20;fontFamily=Architects Daughter;fontColor=#46495D;" parent="o5DvdfLguo0AZOg0hn8v-35" vertex="1">
          <mxGeometry width="60" height="30" as="geometry" />
        </mxCell>
        <mxCell id="o5DvdfLguo0AZOg0hn8v-33" value="" style="endArrow=none;html=1;rounded=1;sketch=1;hachureGap=4;jiggle=2;curveFitting=1;strokeColor=#788AA3;fontFamily=Architects Daughter;fontSource=https%3A%2F%2Ffonts.googleapis.com%2Fcss%3Ffamily%3DArchitects%2BDaughter;fontSize=16;fontColor=#46495D;fillColor=#B2C9AB;" parent="o5DvdfLguo0AZOg0hn8v-35" edge="1">
          <mxGeometry width="50" height="50" relative="1" as="geometry">
            <mxPoint x="30" y="100" as="sourcePoint" />
            <mxPoint x="60" y="100" as="targetPoint" />
          </mxGeometry>
        </mxCell>
        <mxCell id="o5DvdfLguo0AZOg0hn8v-34" value="" style="endArrow=none;html=1;rounded=1;sketch=1;hachureGap=4;jiggle=2;curveFitting=1;strokeColor=#788AA3;fontFamily=Architects Daughter;fontSource=https%3A%2F%2Ffonts.googleapis.com%2Fcss%3Ffamily%3DArchitects%2BDaughter;fontSize=16;fontColor=#46495D;fillColor=#B2C9AB;" parent="o5DvdfLguo0AZOg0hn8v-35" edge="1">
          <mxGeometry width="50" height="50" relative="1" as="geometry">
            <mxPoint x="30" y="60" as="sourcePoint" />
            <mxPoint x="60" y="60" as="targetPoint" />
          </mxGeometry>
        </mxCell>
        <mxCell id="o5DvdfLguo0AZOg0hn8v-30" value="" style="group" parent="o5DvdfLguo0AZOg0hn8v-35" vertex="1" connectable="0">
          <mxGeometry x="59" y="20" width="130" height="120" as="geometry" />
        </mxCell>
        <mxCell id="o5DvdfLguo0AZOg0hn8v-28" value="" style="endArrow=classic;html=1;rounded=1;sketch=1;hachureGap=4;jiggle=2;curveFitting=1;strokeColor=#788AA3;fontFamily=Architects Daughter;fontSource=https%3A%2F%2Ffonts.googleapis.com%2Fcss%3Ffamily%3DArchitects%2BDaughter;fontSize=16;fontColor=#46495D;fillColor=#B2C9AB;" parent="o5DvdfLguo0AZOg0hn8v-30" edge="1">
          <mxGeometry width="50" height="50" relative="1" as="geometry">
            <mxPoint y="119.99999999999999" as="sourcePoint" />
            <mxPoint as="targetPoint" />
          </mxGeometry>
        </mxCell>
        <mxCell id="o5DvdfLguo0AZOg0hn8v-29" value="" style="endArrow=classic;html=1;rounded=1;sketch=1;hachureGap=4;jiggle=2;curveFitting=1;strokeColor=#788AA3;fontFamily=Architects Daughter;fontSource=https%3A%2F%2Ffonts.googleapis.com%2Fcss%3Ffamily%3DArchitects%2BDaughter;fontSize=16;fontColor=#46495D;fillColor=#B2C9AB;" parent="o5DvdfLguo0AZOg0hn8v-30" edge="1">
          <mxGeometry width="50" height="50" relative="1" as="geometry">
            <mxPoint y="119.99999999999999" as="sourcePoint" />
            <mxPoint x="130" y="119.99999999999999" as="targetPoint" />
          </mxGeometry>
        </mxCell>
        <mxCell id="o5DvdfLguo0AZOg0hn8v-38" value="" style="endArrow=none;html=1;rounded=1;sketch=1;hachureGap=4;jiggle=2;curveFitting=1;strokeColor=#00FF00;fontFamily=Architects Daughter;fontSource=https%3A%2F%2Ffonts.googleapis.com%2Fcss%3Ffamily%3DArchitects%2BDaughter;fontSize=16;fontColor=#46495D;fillColor=#B2C9AB;" parent="o5DvdfLguo0AZOg0hn8v-30" edge="1">
          <mxGeometry width="50" height="50" relative="1" as="geometry">
            <mxPoint y="120" as="sourcePoint" />
            <mxPoint x="20" y="80" as="targetPoint" />
          </mxGeometry>
        </mxCell>
        <mxCell id="o5DvdfLguo0AZOg0hn8v-39" value="" style="endArrow=none;html=1;rounded=1;sketch=1;hachureGap=4;jiggle=2;curveFitting=1;strokeColor=#FFFF00;fontFamily=Architects Daughter;fontSource=https%3A%2F%2Ffonts.googleapis.com%2Fcss%3Ffamily%3DArchitects%2BDaughter;fontSize=16;fontColor=#46495D;fillColor=#B2C9AB;" parent="o5DvdfLguo0AZOg0hn8v-30" edge="1">
          <mxGeometry width="50" height="50" relative="1" as="geometry">
            <mxPoint x="20" y="80" as="sourcePoint" />
            <mxPoint x="70" y="40" as="targetPoint" />
          </mxGeometry>
        </mxCell>
        <mxCell id="o5DvdfLguo0AZOg0hn8v-42" value="" style="endArrow=none;dashed=1;html=1;dashPattern=1 3;strokeWidth=2;rounded=1;sketch=1;hachureGap=4;jiggle=2;curveFitting=1;strokeColor=#788AA3;fontFamily=Architects Daughter;fontSource=https%3A%2F%2Ffonts.googleapis.com%2Fcss%3Ffamily%3DArchitects%2BDaughter;fontSize=16;fontColor=#46495D;fillColor=#B2C9AB;" parent="o5DvdfLguo0AZOg0hn8v-30" edge="1">
          <mxGeometry width="50" height="50" relative="1" as="geometry">
            <mxPoint y="40" as="sourcePoint" />
            <mxPoint x="71" y="40" as="targetPoint" />
          </mxGeometry>
        </mxCell>
        <mxCell id="o5DvdfLguo0AZOg0hn8v-46" value="" style="endArrow=none;dashed=1;html=1;dashPattern=1 3;strokeWidth=2;rounded=1;sketch=1;hachureGap=4;jiggle=2;curveFitting=1;strokeColor=#788AA3;fontFamily=Architects Daughter;fontSource=https%3A%2F%2Ffonts.googleapis.com%2Fcss%3Ffamily%3DArchitects%2BDaughter;fontSize=16;fontColor=#46495D;fillColor=#B2C9AB;" parent="o5DvdfLguo0AZOg0hn8v-30" edge="1">
          <mxGeometry width="50" height="50" relative="1" as="geometry">
            <mxPoint y="80" as="sourcePoint" />
            <mxPoint x="21" y="80" as="targetPoint" />
          </mxGeometry>
        </mxCell>
        <mxCell id="o5DvdfLguo0AZOg0hn8v-40" value="" style="endArrow=none;html=1;rounded=1;sketch=1;hachureGap=4;jiggle=2;curveFitting=1;strokeColor=#FF0000;fontFamily=Architects Daughter;fontSource=https%3A%2F%2Ffonts.googleapis.com%2Fcss%3Ffamily%3DArchitects%2BDaughter;fontSize=16;fontColor=#46495D;fillColor=#B2C9AB;" parent="o5DvdfLguo0AZOg0hn8v-41" edge="1">
          <mxGeometry width="50" height="50" relative="1" as="geometry">
            <mxPoint x="131" y="60" as="sourcePoint" />
            <mxPoint x="170" y="35" as="targetPoint" />
          </mxGeometry>
        </mxCell>
        <mxCell id="o5DvdfLguo0AZOg0hn8v-50" value="" style="endArrow=classic;html=1;rounded=1;sketch=1;hachureGap=4;jiggle=2;curveFitting=1;strokeColor=#788AA3;fontFamily=Architects Daughter;fontSource=https%3A%2F%2Ffonts.googleapis.com%2Fcss%3Ffamily%3DArchitects%2BDaughter;fontSize=16;fontColor=#46495D;fillColor=#B2C9AB;exitX=1;exitY=0.5;exitDx=0;exitDy=0;entryX=0.5;entryY=0;entryDx=0;entryDy=0;" parent="1" source="o5DvdfLguo0AZOg0hn8v-4" target="o5DvdfLguo0AZOg0hn8v-10" edge="1">
          <mxGeometry width="50" height="50" relative="1" as="geometry">
            <mxPoint x="129" y="830" as="sourcePoint" />
            <mxPoint x="179" y="780" as="targetPoint" />
            <Array as="points">
              <mxPoint x="349" y="600" />
            </Array>
          </mxGeometry>
        </mxCell>
        <mxCell id="o5DvdfLguo0AZOg0hn8v-51" value="" style="endArrow=classic;html=1;rounded=1;sketch=1;hachureGap=4;jiggle=2;curveFitting=1;strokeColor=#788AA3;fontFamily=Architects Daughter;fontSource=https%3A%2F%2Ffonts.googleapis.com%2Fcss%3Ffamily%3DArchitects%2BDaughter;fontSize=16;fontColor=#46495D;fillColor=#B2C9AB;exitX=0;exitY=0.5;exitDx=0;exitDy=0;entryX=0;entryY=0.5;entryDx=0;entryDy=0;" parent="1" source="o5DvdfLguo0AZOg0hn8v-18" target="o5DvdfLguo0AZOg0hn8v-19" edge="1">
          <mxGeometry width="50" height="50" relative="1" as="geometry">
            <mxPoint x="579" y="470" as="sourcePoint" />
            <mxPoint x="629" y="420" as="targetPoint" />
            <Array as="points">
              <mxPoint x="449" y="560" />
            </Array>
          </mxGeometry>
        </mxCell>
        <mxCell id="o5DvdfLguo0AZOg0hn8v-54" value="" style="edgeStyle=orthogonalEdgeStyle;rounded=1;sketch=1;hachureGap=4;jiggle=2;curveFitting=1;orthogonalLoop=1;jettySize=auto;html=1;strokeColor=#788AA3;fontFamily=Architects Daughter;fontSource=https%3A%2F%2Ffonts.googleapis.com%2Fcss%3Ffamily%3DArchitects%2BDaughter;fontSize=16;fontColor=#46495D;fillColor=#B2C9AB;" parent="1" source="o5DvdfLguo0AZOg0hn8v-52" target="o5DvdfLguo0AZOg0hn8v-53" edge="1">
          <mxGeometry relative="1" as="geometry" />
        </mxCell>
        <mxCell id="o5DvdfLguo0AZOg0hn8v-52" value="&lt;b&gt;GPIO&lt;br&gt;&lt;br&gt;&lt;/b&gt;" style="rounded=1;whiteSpace=wrap;html=1;sketch=1;hachureGap=4;jiggle=2;curveFitting=1;strokeColor=#788AA3;fontFamily=Architects Daughter;fontSource=https%3A%2F%2Ffonts.googleapis.com%2Fcss%3Ffamily%3DArchitects%2BDaughter;fontSize=20;fontColor=#46495D;fillColor=#B2C9AB;" parent="1" vertex="1">
          <mxGeometry x="328" y="370" width="120" height="85" as="geometry" />
        </mxCell>
        <mxCell id="o5DvdfLguo0AZOg0hn8v-53" value="&lt;b&gt;Buzzer&lt;/b&gt;" style="rounded=1;whiteSpace=wrap;html=1;sketch=1;hachureGap=4;jiggle=2;curveFitting=1;strokeColor=#788AA3;fontFamily=Architects Daughter;fontSource=https%3A%2F%2Ffonts.googleapis.com%2Fcss%3Ffamily%3DArchitects%2BDaughter;fontSize=20;fontColor=#46495D;fillColor=#B2C9AB;" parent="1" vertex="1">
          <mxGeometry x="328" y="260" width="120" height="60" as="geometry" />
        </mxCell>
        <mxCell id="ahE_DiFNaqVTV80JisQy-1" value="" style="endArrow=classic;html=1;rounded=0;sketch=1;hachureGap=4;jiggle=2;curveFitting=1;fontFamily=Architects Daughter;fontSource=https%3A%2F%2Ffonts.googleapis.com%2Fcss%3Ffamily%3DArchitects%2BDaughter;fontSize=16;exitX=1;exitY=0.5;exitDx=0;exitDy=0;entryX=0.5;entryY=1;entryDx=0;entryDy=0;" edge="1" parent="1" source="o5DvdfLguo0AZOg0hn8v-4" target="o5DvdfLguo0AZOg0hn8v-52">
          <mxGeometry width="50" height="50" relative="1" as="geometry">
            <mxPoint x="210" y="390" as="sourcePoint" />
            <mxPoint x="260" y="340" as="targetPoint" />
            <Array as="points">
              <mxPoint x="350" y="520" />
            </Array>
          </mxGeometry>
        </mxCell>
      </root>
    </mxGraphModel>
  </diagram>
</mxfile>
